# Blender 4.1.1
# www.blender.org
mtllib blackArrow.mtl
o 立方体
v 0.778935 -1.904130 -0.987156
v 0.778935 1.904130 -0.987156
v 0.778935 -1.904130 0.987156
v 0.778935 1.904130 0.987156
v -0.778935 -1.904130 -0.987156
v -0.778935 1.904130 -0.987156
v -0.778935 -1.904130 0.987156
v -0.778935 1.904130 0.987156
v 0.000000 0.447163 2.172705
v -0.423874 0.447163 2.130957
v -0.831458 0.447163 2.007318
v -1.207090 0.447163 1.806538
v -1.536335 0.447163 1.536335
v -1.806538 0.447163 1.207090
v -2.007318 0.447163 0.831458
v -2.130957 0.447163 0.423874
v -2.172705 0.447163 0.000000
v -2.130957 0.447163 -0.423874
v -2.007318 0.447163 -0.831458
v -1.806538 0.447163 -1.207090
v -1.536335 0.447163 -1.536335
v -1.207090 0.447163 -1.806538
v -0.831458 0.447163 -2.007318
v -0.423874 0.447163 -2.130957
v 0.000000 0.447163 -2.172705
v 0.423874 0.447163 -2.130957
v 0.831458 0.447163 -2.007318
v 1.207090 0.447163 -1.806538
v 1.536335 0.447163 -1.536335
v 1.806538 0.447163 -1.207090
v 2.007318 0.447163 -0.831458
v 2.130957 0.447163 -0.423874
v 2.172705 0.447163 0.000000
v 2.130957 0.447163 0.423874
v 2.007318 0.447163 0.831458
v 1.806538 0.447163 1.207090
v 1.536335 0.447163 1.536335
v 1.207090 0.447163 1.806538
v 0.831458 0.447163 2.007318
v 0.423874 0.447163 2.130957
v 0.000000 4.255423 0.000000
vn 0.7474 -0.3058 -0.5898
vn 0.7475 0.3058 -0.5898
vn 0.7475 -0.3058 0.5898
vn 0.7474 0.3058 0.5898
vn -0.7475 -0.3058 -0.5898
vn -0.7474 0.3058 -0.5898
vn -0.7474 -0.3058 0.5898
vn -0.7475 0.3058 0.5898
vn -0.0000 -0.1877 0.9822
vn -0.1962 -0.1852 0.9629
vn -0.3845 -0.1781 0.9058
vn -0.5572 -0.1674 0.8133
vn -0.7075 -0.1547 0.6896
vn -0.8296 -0.1419 0.5399
vn -0.9195 -0.1311 0.3707
vn -0.9742 -0.1238 0.1885
vn -0.9926 -0.1213 -0.0000
vn -0.9742 -0.1238 -0.1885
vn -0.9195 -0.1311 -0.3707
vn -0.8297 -0.1419 -0.5399
vn -0.7075 -0.1547 -0.6896
vn -0.5572 -0.1674 -0.8133
vn -0.3845 -0.1781 -0.9058
vn -0.1962 -0.1852 -0.9629
vn -0.0000 -0.1877 -0.9822
vn 0.1962 -0.1852 -0.9629
vn 0.3845 -0.1781 -0.9058
vn 0.5572 -0.1674 -0.8133
vn 0.7075 -0.1547 -0.6896
vn 0.8296 -0.1419 -0.5399
vn 0.9195 -0.1311 -0.3707
vn 0.9742 -0.1238 -0.1885
vn 0.9926 -0.1213 -0.0000
vn 0.9742 -0.1238 0.1885
vn 0.9195 -0.1311 0.3707
vn 0.8297 -0.1419 0.5399
vn 0.7075 -0.1547 0.6896
vn 0.5572 -0.1674 0.8133
vn 0.3845 -0.1781 0.9058
vn 0.1962 -0.1852 0.9629
vn -0.0000 1.0000 -0.0000
vt 0.625000 0.000000
vt 0.375000 0.250000
vt 0.375000 0.000000
vt 0.625000 0.250000
vt 0.375000 0.500000
vt 0.625000 0.500000
vt 0.375000 0.750000
vt 0.625000 0.750000
vt 0.375000 1.000000
vt 0.125000 0.750000
vt 0.125000 0.500000
vt 0.875000 0.500000
vt 0.250000 0.490000
vt 0.250000 0.250000
vt 0.296822 0.485388
vt 0.341844 0.471731
vt 0.383337 0.449553
vt 0.419706 0.419706
vt 0.449553 0.383337
vt 0.471731 0.341844
vt 0.485388 0.296822
vt 0.490000 0.250000
vt 0.485388 0.203178
vt 0.471731 0.158156
vt 0.449553 0.116663
vt 0.419706 0.080294
vt 0.383337 0.050447
vt 0.341844 0.028269
vt 0.296822 0.014612
vt 0.250000 0.010000
vt 0.203178 0.014612
vt 0.158156 0.028269
vt 0.116663 0.050447
vt 0.080294 0.080294
vt 0.050447 0.116663
vt 0.028269 0.158156
vt 0.014612 0.203178
vt 0.010000 0.250000
vt 0.014612 0.296822
vt 0.028269 0.341844
vt 0.050447 0.383337
vt 0.080294 0.419706
vt 0.116663 0.449553
vt 0.158156 0.471731
vt 0.616663 0.449553
vt 0.658156 0.471731
vt 0.616663 0.050447
vt 0.203178 0.485388
vt 0.625000 1.000000
vt 0.875000 0.750000
vt 0.703178 0.485388
vt 0.750000 0.490000
vt 0.750000 0.010000
vt 0.796822 0.485388
vt 0.796822 0.014612
vt 0.841844 0.471731
vt 0.883337 0.449553
vt 0.841844 0.028269
vt 0.919706 0.419706
vt 0.919706 0.080294
vt 0.949553 0.383337
vt 0.949553 0.116663
vt 0.971731 0.341844
vt 0.985388 0.296822
vt 0.971731 0.158156
vt 0.990000 0.250000
vt 0.985388 0.203178
vt 0.883337 0.050447
vt 0.703178 0.014612
vt 0.658156 0.028269
vt 0.580294 0.080294
vt 0.580294 0.419706
vt 0.550447 0.116663
vt 0.550447 0.383337
vt 0.528269 0.158156
vt 0.514612 0.203178
vt 0.528269 0.341844
vt 0.510000 0.250000
vt 0.514612 0.296822
s 1
usemtl マテリアル.001
f 2/1/2 3/2/3 1/3/1
f 4/4/4 7/5/7 3/2/3
f 8/6/8 5/7/5 7/5/7
f 6/8/6 1/9/1 5/7/5
f 7/5/7 1/10/1 3/11/3
f 4/12/4 6/8/6 8/6/8
f 9/13/9 41/14/41 10/15/10
f 10/15/10 41/14/41 11/16/11
f 11/16/11 41/14/41 12/17/12
f 12/17/12 41/14/41 13/18/13
f 13/18/13 41/14/41 14/19/14
f 14/19/14 41/14/41 15/20/15
f 15/20/15 41/14/41 16/21/16
f 16/21/16 41/14/41 17/22/17
f 17/22/17 41/14/41 18/23/18
f 18/23/18 41/14/41 19/24/19
f 19/24/19 41/14/41 20/25/20
f 20/25/20 41/14/41 21/26/21
f 21/26/21 41/14/41 22/27/22
f 22/27/22 41/14/41 23/28/23
f 23/28/23 41/14/41 24/29/24
f 24/29/24 41/14/41 25/30/25
f 25/30/25 41/14/41 26/31/26
f 26/31/26 41/14/41 27/32/27
f 27/32/27 41/14/41 28/33/28
f 28/33/28 41/14/41 29/34/29
f 29/34/29 41/14/41 30/35/30
f 30/35/30 41/14/41 31/36/31
f 31/36/31 41/14/41 32/37/32
f 32/37/32 41/14/41 33/38/33
f 33/38/33 41/14/41 34/39/34
f 34/39/34 41/14/41 35/40/35
f 35/40/35 41/14/41 36/41/36
f 36/41/36 41/14/41 37/42/37
f 37/42/37 41/14/41 38/43/38
f 38/43/38 41/14/41 39/44/39
f 38/45/38 39/46/39 28/47/28
f 39/44/39 41/14/41 40/48/40
f 40/48/40 41/14/41 9/13/9
f 2/1/2 4/4/4 3/2/3
f 4/4/4 8/6/8 7/5/7
f 8/6/8 6/8/6 5/7/5
f 6/8/6 2/49/2 1/9/1
f 7/5/7 5/7/5 1/10/1
f 4/12/4 2/50/2 6/8/6
f 40/51/40 9/52/9 25/53/25
f 9/52/9 10/54/10 24/55/24
f 10/54/10 11/56/11 24/55/24
f 11/56/11 12/57/12 23/58/23
f 24/55/24 11/56/11 23/58/23
f 12/57/12 13/59/13 21/60/21
f 13/59/13 14/61/14 20/62/20
f 14/61/14 15/63/15 20/62/20
f 15/63/15 16/64/16 19/65/19
f 20/62/20 15/63/15 19/65/19
f 16/64/16 17/66/17 18/67/18
f 18/67/18 19/65/19 16/64/16
f 20/62/20 21/60/21 13/59/13
f 21/60/21 22/68/22 12/57/12
f 22/68/22 23/58/23 12/57/12
f 24/55/24 25/53/25 9/52/9
f 25/53/25 26/69/26 40/51/40
f 26/69/26 27/70/27 40/51/40
f 27/70/27 28/47/28 39/46/39
f 40/51/40 27/70/27 39/46/39
f 28/47/28 29/71/29 37/72/37
f 29/71/29 30/73/30 36/74/36
f 30/73/30 31/75/31 36/74/36
f 31/75/31 32/76/32 35/77/35
f 36/74/36 31/75/31 35/77/35
f 32/76/32 33/78/33 34/79/34
f 34/79/34 35/77/35 32/76/32
f 36/74/36 37/72/37 29/71/29
f 37/72/37 38/45/38 28/47/28
