# Blender 4.1.1
# www.blender.org
mtllib yazirusi.mtl
o 円錐
v 0.000000 -1.506022 -0.988598
v 0.281985 -1.477160 -0.988466
v 0.553133 -1.391684 -0.988074
v 0.803024 -1.252877 -0.987438
v 1.022056 -1.066075 -0.986582
v 1.201810 -0.838456 -0.985538
v 1.335380 -0.578767 -0.984348
v 1.417632 -0.296988 -0.983056
v 1.445405 -0.003948 -0.981713
v 1.417632 0.289093 -0.980370
v 1.335380 0.570871 -0.979078
v 1.201810 0.830560 -0.977888
v 1.022056 1.058180 -0.976844
v 0.803024 1.244982 -0.975988
v 0.553133 1.383788 -0.975352
v 0.281985 1.469265 -0.974960
v 0.000000 1.498127 -0.974828
v -0.281985 1.469265 -0.974960
v -0.553133 1.383788 -0.975352
v -0.803024 1.244982 -0.975988
v -1.022056 1.058180 -0.976844
v -1.201810 0.830560 -0.977888
v -1.335380 0.570871 -0.979078
v -1.417632 0.289093 -0.980370
v -1.445405 -0.003948 -0.981713
v -1.417632 -0.296988 -0.983056
v -1.335380 -0.578767 -0.984348
v -1.201810 -0.838456 -0.985538
v -1.022056 -1.066075 -0.986582
v -0.803024 -1.252877 -0.987438
v -0.553133 -1.391684 -0.988074
v -0.281985 -1.477160 -0.988466
v 0.000000 0.003948 -2.704101
v -0.686314 -0.579406 1.041371
v -0.686314 0.599092 1.043676
v -0.686314 -0.588264 -1.555205
v -0.686314 0.590234 -1.552901
v 0.686314 -0.579406 1.041371
v 0.686314 0.599092 1.043676
v 0.686314 -0.588264 -1.555205
v 0.686314 0.590234 -1.552901
vn -0.0000 -0.7048 0.7094
vn 0.1421 -0.6908 0.7089
vn 0.2782 -0.6495 0.7076
vn 0.4026 -0.5831 0.7057
vn 0.5105 -0.4945 0.7035
vn 0.5981 -0.3878 0.7014
vn 0.6625 -0.2673 0.6997
vn 0.7019 -0.1376 0.6989
vn 0.7151 -0.0032 0.6990
vn 0.7019 0.1311 0.7001
vn 0.6625 0.2608 0.7022
vn 0.5981 0.3813 0.7049
vn 0.5105 0.4880 0.7080
vn 0.4026 0.5765 0.7110
vn 0.2782 0.6430 0.7136
vn 0.1421 0.6843 0.7152
vn -0.0000 0.6983 0.7159
vn -0.1421 0.6843 0.7152
vn -0.2782 0.6430 0.7136
vn -0.4026 0.5766 0.7110
vn -0.5105 0.4880 0.7080
vn -0.5981 0.3813 0.7049
vn -0.6625 0.2608 0.7022
vn -0.7019 0.1311 0.7001
vn -0.7151 -0.0032 0.6990
vn -0.7019 -0.1376 0.6989
vn -0.6625 -0.2673 0.6997
vn -0.5981 -0.3878 0.7013
vn -0.5105 -0.4945 0.7035
vn -0.4026 -0.5830 0.7057
vn -0.2782 -0.6495 0.7076
vn -0.1421 -0.6908 0.7089
vn -0.0000 0.0046 -1.0000
vn -0.4583 -0.4425 0.7708
vn -0.4600 0.4412 0.7706
vn -0.4600 -0.4412 -0.7706
vn -0.4583 0.4425 -0.7708
vn 0.4583 -0.4426 0.7708
vn 0.4600 0.4411 0.7706
vn 0.4600 -0.4411 -0.7706
vn 0.4583 0.4426 -0.7708
vt 0.250000 0.490000
vt 0.250000 0.250000
vt 0.296822 0.485388
vt 0.341844 0.471731
vt 0.383337 0.449553
vt 0.419706 0.419706
vt 0.449553 0.383337
vt 0.471731 0.341844
vt 0.485388 0.296822
vt 0.490000 0.250000
vt 0.485388 0.203178
vt 0.471731 0.158156
vt 0.449553 0.116663
vt 0.419706 0.080294
vt 0.383337 0.050447
vt 0.341844 0.028269
vt 0.296822 0.014612
vt 0.250000 0.010000
vt 0.203178 0.014612
vt 0.158156 0.028269
vt 0.116663 0.050447
vt 0.080294 0.080294
vt 0.050447 0.116663
vt 0.028269 0.158156
vt 0.014612 0.203178
vt 0.010000 0.250000
vt 0.014612 0.296822
vt 0.028269 0.341844
vt 0.050447 0.383337
vt 0.080294 0.419706
vt 0.116663 0.449553
vt 0.158156 0.471731
vt 0.796822 0.014612
vt 0.514612 0.203178
vt 0.703178 0.485388
vt 0.203178 0.485388
vt 0.625000 0.000000
vt 0.375000 0.250000
vt 0.375000 0.000000
vt 0.625000 0.250000
vt 0.375000 0.500000
vt 0.625000 0.750000
vt 0.375000 0.750000
vt 0.375000 1.000000
vt 0.125000 0.750000
vt 0.125000 0.500000
vt 0.875000 0.500000
vt 0.625000 0.500000
vt 0.750000 0.490000
vt 0.796822 0.485388
vt 0.841844 0.471731
vt 0.883337 0.449553
vt 0.919706 0.419706
vt 0.949553 0.383337
vt 0.971731 0.341844
vt 0.985388 0.296822
vt 0.990000 0.250000
vt 0.985388 0.203178
vt 0.971731 0.158156
vt 0.949553 0.116663
vt 0.919706 0.080294
vt 0.883337 0.050447
vt 0.841844 0.028269
vt 0.750000 0.010000
vt 0.703178 0.014612
vt 0.658156 0.028269
vt 0.616663 0.050447
vt 0.580294 0.080294
vt 0.550447 0.116663
vt 0.528269 0.158156
vt 0.510000 0.250000
vt 0.514612 0.296822
vt 0.528269 0.341844
vt 0.550447 0.383337
vt 0.580294 0.419706
vt 0.616663 0.449553
vt 0.658156 0.471731
vt 0.625000 1.000000
vt 0.875000 0.750000
s 1
usemtl マテリアル.002
f 1/1/1 33/2/33 2/3/2
f 2/3/2 33/2/33 3/4/3
f 3/4/3 33/2/33 4/5/4
f 4/5/4 33/2/33 5/6/5
f 5/6/5 33/2/33 6/7/6
f 6/7/6 33/2/33 7/8/7
f 7/8/7 33/2/33 8/9/8
f 8/9/8 33/2/33 9/10/9
f 9/10/9 33/2/33 10/11/10
f 10/11/10 33/2/33 11/12/11
f 11/12/11 33/2/33 12/13/12
f 12/13/12 33/2/33 13/14/13
f 13/14/13 33/2/33 14/15/14
f 14/15/14 33/2/33 15/16/15
f 15/16/15 33/2/33 16/17/16
f 16/17/16 33/2/33 17/18/17
f 17/18/17 33/2/33 18/19/18
f 18/19/18 33/2/33 19/20/19
f 19/20/19 33/2/33 20/21/20
f 20/21/20 33/2/33 21/22/21
f 21/22/21 33/2/33 22/23/22
f 22/23/22 33/2/33 23/24/23
f 23/24/23 33/2/33 24/25/24
f 24/25/24 33/2/33 25/26/25
f 25/26/25 33/2/33 26/27/26
f 26/27/26 33/2/33 27/28/27
f 27/28/27 33/2/33 28/29/28
f 28/29/28 33/2/33 29/30/29
f 29/30/29 33/2/33 30/31/30
f 30/31/30 33/2/33 31/32/31
f 16/33/16 24/34/24 32/35/32
f 31/32/31 33/2/33 32/36/32
f 32/36/32 33/2/33 1/1/1
f 35/37/35 36/38/36 34/39/34
f 37/40/37 40/41/40 36/38/36
f 40/41/40 39/42/39 38/43/38
f 39/42/39 34/44/34 38/43/38
f 40/41/40 34/45/34 36/46/36
f 37/47/37 39/42/39 41/48/41
f 32/35/32 1/49/1 2/50/2
f 2/50/2 3/51/3 4/52/4
f 4/52/4 5/53/5 6/54/6
f 6/54/6 7/55/7 8/56/8
f 8/56/8 9/57/9 10/58/10
f 10/58/10 11/59/11 12/60/12
f 12/60/12 13/61/13 14/62/14
f 14/62/14 15/63/15 16/33/16
f 16/33/16 17/64/17 18/65/18
f 18/65/18 19/66/19 20/67/20
f 20/67/20 21/68/21 22/69/22
f 22/69/22 23/70/23 24/34/24
f 24/34/24 25/71/25 26/72/26
f 26/72/26 27/73/27 28/74/28
f 28/74/28 29/75/29 30/76/30
f 30/76/30 31/77/31 32/35/32
f 32/35/32 2/50/2 8/56/8
f 2/50/2 4/52/4 8/56/8
f 4/52/4 6/54/6 8/56/8
f 8/56/8 10/58/10 16/33/16
f 10/58/10 12/60/12 16/33/16
f 12/60/12 14/62/14 16/33/16
f 16/33/16 18/65/18 24/34/24
f 18/65/18 20/67/20 24/34/24
f 20/67/20 22/69/22 24/34/24
f 24/34/24 26/72/26 32/35/32
f 26/72/26 28/74/28 32/35/32
f 28/74/28 30/76/30 32/35/32
f 32/35/32 8/56/8 16/33/16
f 35/37/35 37/40/37 36/38/36
f 37/40/37 41/48/41 40/41/40
f 40/41/40 41/48/41 39/42/39
f 39/42/39 35/78/35 34/44/34
f 40/41/40 38/43/38 34/45/34
f 37/47/37 35/79/35 39/42/39
