# Blender 4.1.1
# www.blender.org
mtllib fly.mtl
o 立方体.012
v -1.066637 0.529573 -2.937782
v -0.927320 0.529573 -2.937782
v -1.066637 -0.024411 0.394103
v -1.066637 -0.212046 -2.612155
v -0.927320 -0.212046 -2.612155
v -0.927320 -0.024411 0.394103
vn -0.0000 -0.9865 -0.1640
vn -0.0000 0.4020 0.9156
vn 1.0000 -0.0000 -0.0000
vn -0.0000 0.9981 -0.0623
vn -1.0000 -0.0000 -0.0000
vt 0.232984 0.697562
vt 0.267016 0.697562
vt 0.267016 0.731594
vt 0.232984 0.731594
vt 0.232984 0.833688
vt 0.250000 0.748609
vt 0.250000 0.816672
vt 0.267016 0.833688
vt 0.625000 1.000000
vt 0.500000 0.875000
vt 0.500000 0.375000
vt 0.625000 0.250000
s 0
usemtl マテリアル
f 1/1/1 2/4/1 6/3/1 3/2/1
f 1/5/2 4/7/2 5/6/2 2/4/2
f 1/5/3 3/8/3 4/7/3
f 3/9/4 6/12/4 5/11/4 4/10/4
f 6/3/5 2/4/5 5/6/5
