# Blender 4.1.1
# www.blender.org
mtllib key.mtl
o 球
v -0.201222 0.860827 -0.008537
v -0.301150 0.762282 -0.012776
v -0.355230 0.633527 -0.015070
v -0.362190 0.563845 -0.015365
v -0.355230 0.494163 -0.015070
v -0.301150 0.365407 -0.012776
v -0.068720 0.914159 -0.016660
v -0.134799 0.893834 -0.032679
v -0.195698 0.860827 -0.047442
v -0.249076 0.816407 -0.060382
v -0.292883 0.762282 -0.071002
v -0.325434 0.700531 -0.078894
v -0.345479 0.633527 -0.083753
v -0.352247 0.563845 -0.085394
v -0.345479 0.494163 -0.083753
v -0.325434 0.427159 -0.078894
v -0.292883 0.365407 -0.071002
v -0.249076 0.311282 -0.060382
v -0.195698 0.266862 -0.047442
v -0.134799 0.233856 -0.032679
v -0.068720 0.213530 -0.016660
v -0.064140 0.914159 -0.029681
v -0.125814 0.893834 -0.058222
v -0.182654 0.860827 -0.084525
v -0.232474 0.816407 -0.107580
v -0.273360 0.762282 -0.126500
v -0.303742 0.700531 -0.140559
v -0.322451 0.633527 -0.149217
v -0.328768 0.563845 -0.152141
v -0.322451 0.494163 -0.149217
v -0.303742 0.427159 -0.140559
v -0.273360 0.365407 -0.126500
v -0.232474 0.311282 -0.107580
v -0.182654 0.266862 -0.084525
v -0.125814 0.233856 -0.058222
v -0.064139 0.213530 -0.029681
v -0.057094 0.914159 -0.041562
v -0.111994 0.893834 -0.081527
v -0.162590 0.860827 -0.118359
v -0.206938 0.816407 -0.150642
v -0.243333 0.762282 -0.177137
v -0.270377 0.700531 -0.196824
v -0.287030 0.633527 -0.208947
v -0.292654 0.563845 -0.213041
v -0.287030 0.494163 -0.208947
v -0.270377 0.427159 -0.196824
v -0.243333 0.365407 -0.177137
v -0.206938 0.311282 -0.150642
v -0.162590 0.266862 -0.118359
v -0.111994 0.233856 -0.081527
v -0.057094 0.213530 -0.041562
v -0.047854 0.914159 -0.051846
v -0.093870 0.893834 -0.101700
v -0.136278 0.860827 -0.147645
v -0.173449 0.816407 -0.187916
v -0.203954 0.762282 -0.220966
v -0.226622 0.700531 -0.245524
v -0.240580 0.633527 -0.260647
v -0.245294 0.563845 -0.265754
v -0.240580 0.494163 -0.260647
v -0.226622 0.427159 -0.245524
v -0.203954 0.365407 -0.220966
v -0.173449 0.311282 -0.187916
v -0.136278 0.266862 -0.147645
v -0.093870 0.233856 -0.101700
v -0.047854 0.213530 -0.051846
v -0.036776 0.914159 -0.060137
v -0.072139 0.893834 -0.117964
v -0.104729 0.860827 -0.171257
v -0.133294 0.816407 -0.217969
v -0.156738 0.762282 -0.256304
v -0.174158 0.700531 -0.284789
v -0.184885 0.633527 -0.302331
v -0.188507 0.563845 -0.308254
v -0.184885 0.494163 -0.302331
v -0.174158 0.427159 -0.284789
v -0.156738 0.365407 -0.256304
v -0.133294 0.311282 -0.217969
v -0.104729 0.266862 -0.171257
v -0.072138 0.233856 -0.117964
v -0.036776 0.213530 -0.060137
v -0.000000 0.921022 -0.000000
v -0.024284 0.914159 -0.066118
v -0.047635 0.893834 -0.129694
v -0.069155 0.860827 -0.188287
v -0.088018 0.816407 -0.239644
v -0.103498 0.762282 -0.281792
v -0.115001 0.700531 -0.313110
v -0.122084 0.633527 -0.332396
v -0.124476 0.563845 -0.338908
v -0.122084 0.494163 -0.332396
v -0.115000 0.427159 -0.313110
v -0.103498 0.365407 -0.281792
v -0.088018 0.311282 -0.239644
v -0.069155 0.266862 -0.188287
v -0.047635 0.233856 -0.129694
v -0.024284 0.213530 -0.066118
v -0.010859 0.914159 -0.069557
v -0.021301 0.893834 -0.136441
v -0.030924 0.860827 -0.198082
v -0.039359 0.816407 -0.252111
v -0.046281 0.762282 -0.296451
v -0.051424 0.700531 -0.329399
v -0.054592 0.633527 -0.349688
v -0.055661 0.563845 -0.356538
v -0.054592 0.494163 -0.349688
v -0.051424 0.427159 -0.329399
v -0.046281 0.365407 -0.296451
v -0.039358 0.311282 -0.252111
v -0.030924 0.266862 -0.198082
v -0.021301 0.233856 -0.136441
v -0.010859 0.213530 -0.069557
v 0.002983 0.914159 -0.070324
v 0.005852 0.893834 -0.137945
v 0.008496 0.860827 -0.200265
v 0.010813 0.816407 -0.254888
v 0.012715 0.762282 -0.299717
v 0.014128 0.700531 -0.333028
v 0.014998 0.633527 -0.353541
v 0.015292 0.563845 -0.360467
v 0.014998 0.494163 -0.353541
v 0.014128 0.427159 -0.333028
v 0.012715 0.365407 -0.299717
v 0.010813 0.311282 -0.254888
v 0.008496 0.266862 -0.200265
v 0.005852 0.233856 -0.137945
v 0.002983 0.213530 -0.070324
v 0.016711 0.914159 -0.068388
v 0.032780 0.893834 -0.134147
v 0.047589 0.860827 -0.194751
v 0.060569 0.816407 -0.247872
v 0.071222 0.762282 -0.291466
v 0.079138 0.700531 -0.323860
v 0.084012 0.633527 -0.343808
v 0.085658 0.563845 -0.350543
v 0.084012 0.494163 -0.343808
v 0.079138 0.427159 -0.323860
v 0.071222 0.365407 -0.291466
v 0.060570 0.311282 -0.247872
v 0.047589 0.266862 -0.194751
v 0.032780 0.233856 -0.134147
v 0.016711 0.213530 -0.068388
v 0.029796 0.914159 -0.063823
v 0.058448 0.893834 -0.125194
v 0.084854 0.860827 -0.181754
v 0.107998 0.816407 -0.231329
v 0.126992 0.762282 -0.272013
v 0.141106 0.700531 -0.302245
v 0.149797 0.633527 -0.320862
v 0.152732 0.563845 -0.327148
v 0.149797 0.494163 -0.320862
v 0.141106 0.427159 -0.302245
v 0.126992 0.365408 -0.272013
v 0.107998 0.311282 -0.231329
v 0.084854 0.266862 -0.181754
v 0.058448 0.233856 -0.125194
v 0.029797 0.213530 -0.063823
v 0.041737 0.914159 -0.056806
v 0.081870 0.893834 -0.111430
v 0.118857 0.860827 -0.161771
v 0.151276 0.816407 -0.205896
v 0.177882 0.762282 -0.242108
v 0.197652 0.700531 -0.269016
v 0.209826 0.633527 -0.285586
v 0.213937 0.563845 -0.291181
v 0.209826 0.494163 -0.285586
v 0.197652 0.427159 -0.269016
v 0.177882 0.365408 -0.242108
v 0.151276 0.311282 -0.205896
v 0.118857 0.266862 -0.161771
v 0.081870 0.233856 -0.111430
v 0.041737 0.213530 -0.056806
v 0.052073 0.914159 -0.047607
v 0.102146 0.893834 -0.093384
v 0.148293 0.860827 -0.135572
v 0.188741 0.816407 -0.172551
v 0.221936 0.762282 -0.202898
v 0.246602 0.700531 -0.225449
v 0.261791 0.633527 -0.239335
v 0.266920 0.563845 -0.244024
v 0.261791 0.494163 -0.239335
v 0.246602 0.427159 -0.225449
v 0.221936 0.365408 -0.202898
v 0.188741 0.311282 -0.172551
v 0.148293 0.266862 -0.135572
v 0.102146 0.233856 -0.093384
v 0.052073 0.213530 -0.047607
v 0.060409 0.914159 -0.036577
v 0.118496 0.893834 -0.071749
v 0.172030 0.860827 -0.104163
v 0.218953 0.816407 -0.132575
v 0.257461 0.762282 -0.155891
v 0.286075 0.700531 -0.173217
v 0.303696 0.633527 -0.183886
v 0.309646 0.563845 -0.187489
v 0.303696 0.494163 -0.183886
v 0.286075 0.427159 -0.173217
v 0.257461 0.365408 -0.155891
v 0.218953 0.311282 -0.132575
v 0.172030 0.266862 -0.104163
v 0.118496 0.233856 -0.071749
v 0.060409 0.213530 -0.036577
v 0.066423 0.914159 -0.024142
v 0.130293 0.893834 -0.047357
v 0.189156 0.860827 -0.068751
v 0.240750 0.816407 -0.087504
v 0.283092 0.762282 -0.102893
v 0.314555 0.700531 -0.114329
v 0.333930 0.633527 -0.121371
v 0.340472 0.563845 -0.123749
v 0.333930 0.494163 -0.121371
v 0.314555 0.427159 -0.114329
v 0.283092 0.365408 -0.102893
v 0.240750 0.311282 -0.087504
v 0.189156 0.266862 -0.068751
v 0.130293 0.233856 -0.047357
v 0.066423 0.213530 -0.024142
v 0.069884 0.914159 -0.010779
v 0.137082 0.893834 -0.021145
v 0.199013 0.860827 -0.030697
v 0.253295 0.816407 -0.039070
v 0.297844 0.762282 -0.045941
v 0.330946 0.700531 -0.051048
v 0.351331 0.633527 -0.054192
v 0.358213 0.563845 -0.055253
v 0.351331 0.494163 -0.054192
v 0.330946 0.427159 -0.051048
v 0.297844 0.365408 -0.045941
v 0.253295 0.311282 -0.039070
v 0.199013 0.266862 -0.030697
v 0.137082 0.233856 -0.021145
v 0.069884 0.213530 -0.010779
v 0.070660 0.914159 0.002998
v 0.138604 0.893834 0.005880
v 0.201222 0.860827 0.008537
v 0.256107 0.816407 0.010865
v 0.301150 0.762282 0.012776
v 0.334620 0.700531 0.014196
v 0.355230 0.633527 0.015070
v 0.362190 0.563845 0.015365
v 0.355230 0.494163 0.015070
v 0.334620 0.427159 0.014196
v 0.301150 0.365408 0.012776
v 0.256107 0.311282 0.010865
v 0.201222 0.266862 0.008537
v 0.138604 0.233856 0.005880
v 0.070660 0.213530 0.002998
v 0.068720 0.914159 0.016660
v 0.134799 0.893834 0.032679
v 0.195698 0.860827 0.047442
v 0.249076 0.816407 0.060382
v 0.292883 0.762282 0.071002
v 0.325434 0.700531 0.078894
v 0.345478 0.633527 0.083753
v 0.352247 0.563845 0.085394
v 0.345478 0.494163 0.083753
v 0.325434 0.427159 0.078894
v 0.292883 0.365408 0.071002
v 0.249076 0.311282 0.060382
v 0.195698 0.266862 0.047442
v 0.134799 0.233856 0.032679
v 0.068720 0.213530 0.016660
v 0.064139 0.914159 0.029681
v 0.125814 0.893834 0.058222
v 0.182653 0.860827 0.084525
v 0.232474 0.816407 0.107580
v 0.273360 0.762282 0.126500
v 0.303742 0.700531 0.140559
v 0.322450 0.633527 0.149217
v 0.328767 0.563845 0.152140
v 0.322450 0.494163 0.149217
v 0.303742 0.427159 0.140559
v 0.273360 0.365408 0.126500
v 0.232474 0.311282 0.107580
v 0.182653 0.266862 0.084525
v 0.125814 0.233856 0.058222
v 0.064139 0.213530 0.029681
v 0.057094 0.914159 0.041562
v 0.111994 0.893834 0.081527
v 0.162590 0.860827 0.118359
v 0.206938 0.816407 0.150642
v 0.243333 0.762282 0.177137
v 0.270377 0.700531 0.196824
v 0.287030 0.633527 0.208947
v 0.292654 0.563845 0.213041
v 0.287030 0.494163 0.208947
v 0.270377 0.427159 0.196824
v 0.243333 0.365408 0.177137
v 0.206938 0.311282 0.150642
v 0.162590 0.266862 0.118359
v 0.111994 0.233856 0.081527
v 0.057094 0.213530 0.041562
v 0.047854 0.914159 0.051846
v 0.093870 0.893834 0.101700
v 0.136278 0.860827 0.147645
v 0.173449 0.816407 0.187916
v 0.203954 0.762282 0.220966
v 0.226622 0.700531 0.245524
v 0.240580 0.633527 0.260647
v 0.245293 0.563845 0.265753
v 0.240580 0.494163 0.260647
v 0.226622 0.427159 0.245524
v 0.203954 0.365408 0.220966
v 0.173449 0.311282 0.187916
v 0.136278 0.266862 0.147645
v 0.093870 0.233856 0.101700
v 0.047854 0.213530 0.051846
v 0.000000 0.206667 0.000000
v 0.036776 0.914159 0.060137
v 0.072138 0.893834 0.117964
v 0.104729 0.860827 0.171257
v 0.133294 0.816407 0.217969
v 0.156738 0.762282 0.256304
v 0.174158 0.700531 0.284789
v 0.184885 0.633527 0.302331
v 0.188506 0.563845 0.308254
v 0.184885 0.494163 0.302331
v 0.174158 0.427159 0.284789
v 0.156738 0.365408 0.256304
v 0.133294 0.311282 0.217969
v 0.104729 0.266862 0.171257
v 0.072139 0.233856 0.117964
v 0.036776 0.213530 0.060137
v 0.024284 0.914159 0.066118
v 0.047635 0.893834 0.129694
v 0.069155 0.860827 0.188287
v 0.088018 0.816407 0.239644
v 0.103498 0.762282 0.281792
v 0.115000 0.700531 0.313110
v 0.122084 0.633527 0.332396
v 0.124475 0.563845 0.338908
v 0.122084 0.494163 0.332396
v 0.115001 0.427159 0.313110
v 0.103498 0.365408 0.281792
v 0.088018 0.311282 0.239644
v 0.069155 0.266862 0.188287
v 0.047635 0.233856 0.129694
v 0.024284 0.213530 0.066118
v 0.010859 0.914159 0.069557
v 0.021301 0.893834 0.136441
v 0.030924 0.860827 0.198082
v 0.039358 0.816407 0.252111
v 0.046281 0.762282 0.296451
v 0.051424 0.700531 0.329399
v 0.054592 0.633527 0.349688
v 0.055661 0.563845 0.356538
v 0.054592 0.494163 0.349688
v 0.051424 0.427159 0.329399
v 0.046281 0.365407 0.296451
v 0.039358 0.311282 0.252111
v 0.030924 0.266862 0.198082
v 0.021301 0.233856 0.136441
v 0.010859 0.213530 0.069557
v -0.002983 0.914159 0.070324
v -0.005852 0.893834 0.137945
v -0.008496 0.860827 0.200265
v -0.010813 0.816407 0.254889
v -0.012715 0.762282 0.299717
v -0.014128 0.700531 0.333028
v -0.014998 0.633527 0.353541
v -0.015292 0.563845 0.360467
v -0.014998 0.494163 0.353541
v -0.014128 0.427159 0.333028
v -0.012715 0.365407 0.299717
v -0.010813 0.311282 0.254889
v -0.008496 0.266862 0.200265
v -0.005852 0.233856 0.137945
v -0.002983 0.213530 0.070324
v -0.016711 0.914159 0.068388
v -0.032780 0.893834 0.134147
v -0.047589 0.860827 0.194751
v -0.060570 0.816407 0.247872
v -0.071222 0.762282 0.291466
v -0.079138 0.700531 0.323860
v -0.084012 0.633527 0.343808
v -0.085658 0.563845 0.350543
v -0.084012 0.494163 0.343808
v -0.079138 0.427159 0.323860
v -0.071222 0.365407 0.291466
v -0.060569 0.311282 0.247872
v -0.047589 0.266862 0.194751
v -0.032780 0.233856 0.134147
v -0.016711 0.213530 0.068388
v -0.029797 0.914159 0.063823
v -0.058448 0.893834 0.125194
v -0.084854 0.860827 0.181753
v -0.107998 0.816407 0.231329
v -0.126992 0.762282 0.272013
v -0.141106 0.700531 0.302245
v -0.149797 0.633527 0.320862
v -0.152732 0.563845 0.327148
v -0.149797 0.494163 0.320862
v -0.141106 0.427159 0.302245
v -0.126992 0.365407 0.272013
v -0.107998 0.311282 0.231329
v -0.084853 0.266862 0.181753
v -0.058448 0.233856 0.125194
v -0.029796 0.213530 0.063823
v -0.041737 0.914159 0.056806
v -0.081870 0.893834 0.111430
v -0.118857 0.860827 0.161771
v -0.151276 0.816407 0.205896
v -0.177882 0.762282 0.242108
v -0.197652 0.700531 0.269016
v -0.209826 0.633527 0.285586
v -0.213937 0.563845 0.291180
v -0.209826 0.494163 0.285586
v -0.197652 0.427159 0.269016
v -0.177882 0.365407 0.242108
v -0.151276 0.311282 0.205896
v -0.118857 0.266862 0.161771
v -0.081870 0.233856 0.111430
v -0.041737 0.213530 0.056806
v -0.052073 0.914159 0.047607
v -0.102146 0.893834 0.093384
v -0.148293 0.860827 0.135572
v -0.188741 0.816407 0.172551
v -0.221936 0.762282 0.202898
v -0.246602 0.700531 0.225449
v -0.261791 0.633527 0.239335
v -0.266920 0.563845 0.244024
v -0.261791 0.494163 0.239335
v -0.246602 0.427159 0.225449
v -0.221936 0.365407 0.202898
v -0.188741 0.311282 0.172551
v -0.148293 0.266862 0.135572
v -0.102146 0.233856 0.093384
v -0.052073 0.213530 0.047607
v -0.060409 0.914159 0.036577
v -0.118496 0.893834 0.071749
v -0.172030 0.860827 0.104163
v -0.218953 0.816407 0.132575
v -0.257461 0.762282 0.155891
v -0.286075 0.700531 0.173217
v -0.303696 0.633527 0.183886
v -0.309646 0.563845 0.187489
v -0.303696 0.494163 0.183886
v -0.286075 0.427159 0.173217
v -0.257461 0.365407 0.155891
v -0.218953 0.311282 0.132575
v -0.172030 0.266862 0.104163
v -0.118496 0.233856 0.071749
v -0.060409 0.213530 0.036577
v -0.066423 0.914159 0.024142
v -0.130293 0.893834 0.047357
v -0.189156 0.860827 0.068751
v -0.240750 0.816407 0.087504
v -0.283092 0.762282 0.102893
v -0.314555 0.700531 0.114329
v -0.333929 0.633527 0.121371
v -0.340471 0.563845 0.123749
v -0.333929 0.494163 0.121371
v -0.314555 0.427159 0.114329
v -0.283092 0.365407 0.102893
v -0.240750 0.311282 0.087504
v -0.189156 0.266862 0.068751
v -0.130293 0.233856 0.047357
v -0.066423 0.213530 0.024142
v -0.069884 0.914159 0.010779
v -0.137082 0.893834 0.021145
v -0.199013 0.860827 0.030697
v -0.253295 0.816407 0.039070
v -0.297844 0.762282 0.045941
v -0.330946 0.700531 0.051048
v -0.351331 0.633527 0.054192
v -0.358213 0.563845 0.055253
v -0.351331 0.494163 0.054192
v -0.330946 0.427159 0.051048
v -0.297844 0.365407 0.045941
v -0.253295 0.311282 0.039070
v -0.199013 0.266862 0.030697
v -0.137082 0.233856 0.021145
v -0.069884 0.213530 0.010779
v -0.070660 0.914159 -0.002998
v -0.138604 0.893834 -0.005880
v -0.256107 0.816407 -0.010865
v -0.334619 0.700531 -0.014196
v -0.334619 0.427159 -0.014196
v -0.256107 0.311282 -0.010865
v -0.201222 0.266862 -0.008537
v -0.138604 0.233856 -0.005880
v -0.070659 0.213530 -0.002998
v 0.164871 -0.543898 0.179480
v 0.164871 0.352070 0.179480
v -0.179480 -0.543898 0.164871
v -0.179480 0.352070 0.164871
v 0.179480 -0.543898 -0.164871
v 0.179480 0.352070 -0.164871
v -0.164871 -0.543898 -0.179480
v -0.164871 0.352070 -0.179480
v -0.128199 -0.210184 0.167047
v -0.128199 0.018355 0.167047
v -0.472550 -0.210184 0.152438
v -0.472550 0.018355 0.152438
v -0.113590 -0.210184 -0.177304
v -0.113590 0.018355 -0.177304
v -0.457941 -0.210184 -0.191913
v -0.457941 0.018355 -0.191913
v -0.128199 -0.533042 0.167047
v -0.128199 -0.304503 0.167047
v -0.472550 -0.533042 0.152438
v -0.472550 -0.304503 0.152438
v -0.113590 -0.533042 -0.177304
v -0.113590 -0.304503 -0.177304
v -0.457941 -0.533042 -0.191913
v -0.457941 -0.304503 -0.191913
vn -0.3825 -0.9238 -0.0162
vn -0.1926 -0.9802 -0.0471
vn -0.1980 -0.9802 -0.0084
vn -0.9796 0.1966 -0.0416
vn -0.9714 -0.0000 -0.2373
vn -0.9991 -0.0000 -0.0424
vn -0.1980 0.9802 -0.0084
vn -0.0000 1.0000 -0.0000
vn -0.1926 0.9802 -0.0471
vn -0.0000 -1.0000 -0.0000
vn -0.9796 -0.1966 -0.0416
vn -0.9525 -0.1966 -0.2327
vn -0.3825 0.9238 -0.0162
vn -0.3722 0.9237 -0.0910
vn -0.8965 -0.3852 -0.2190
vn -0.9220 -0.3853 -0.0391
vn -0.5537 0.8324 -0.0235
vn -0.5380 0.8326 -0.1315
vn -0.8060 -0.5582 -0.1969
vn -0.8289 -0.5583 -0.0352
vn -0.7044 0.7092 -0.0299
vn -0.6849 0.7091 -0.1674
vn -0.6849 -0.7091 -0.1674
vn -0.7044 -0.7092 -0.0299
vn -0.8289 0.5583 -0.0352
vn -0.8060 0.5582 -0.1969
vn -0.5384 -0.8323 -0.1316
vn -0.5537 -0.8324 -0.0235
vn -0.9220 0.3853 -0.0391
vn -0.8965 0.3852 -0.2190
vn -0.3722 -0.9237 -0.0910
vn -0.9525 0.1966 -0.2327
vn -0.8363 0.3850 -0.3904
vn -0.5024 -0.8322 -0.2346
vn -0.3469 -0.9238 -0.1621
vn -0.8885 0.1965 -0.4147
vn -0.1792 -0.9802 -0.0838
vn -0.9061 -0.0000 -0.4230
vn -0.1797 0.9801 -0.0839
vn -0.8885 -0.1965 -0.4147
vn -0.3474 0.9236 -0.1622
vn -0.8363 -0.3850 -0.3904
vn -0.5024 0.8322 -0.2346
vn -0.7519 -0.5580 -0.3510
vn -0.6389 0.7092 -0.2982
vn -0.6388 -0.7093 -0.2981
vn -0.7519 0.5580 -0.3510
vn -0.7439 -0.3848 -0.5465
vn -0.4471 0.8320 -0.3285
vn -0.6689 -0.5578 -0.4914
vn -0.5686 0.7087 -0.4177
vn -0.5686 -0.7087 -0.4177
vn -0.6689 0.5578 -0.4914
vn -0.4471 -0.8320 -0.3285
vn -0.7439 0.3848 -0.5465
vn -0.3091 -0.9235 -0.2271
vn -0.7902 0.1964 -0.5805
vn -0.1599 -0.9801 -0.1175
vn -0.8059 -0.0000 -0.5920
vn -0.1599 0.9801 -0.1175
vn -0.7902 -0.1964 -0.5805
vn -0.3091 0.9235 -0.2271
vn -0.3745 -0.8318 -0.4097
vn -0.2590 -0.9234 -0.2833
vn -0.6229 0.3845 -0.6813
vn -0.6617 0.1962 -0.7237
vn -0.1340 -0.9801 -0.1466
vn -0.6748 -0.0000 -0.7380
vn -0.1340 0.9801 -0.1466
vn -0.6617 -0.1962 -0.7237
vn -0.2590 0.9234 -0.2833
vn -0.6229 -0.3845 -0.6813
vn -0.3745 0.8318 -0.4097
vn -0.5602 -0.5574 -0.6127
vn -0.4763 0.7084 -0.5209
vn -0.4761 -0.7086 -0.5208
vn -0.5602 0.5574 -0.6127
vn -0.4782 -0.3842 -0.7897
vn -0.4302 -0.5571 -0.7104
vn -0.3658 0.7081 -0.6040
vn -0.3658 -0.7081 -0.6040
vn -0.4302 0.5571 -0.7104
vn -0.2877 -0.8316 -0.4751
vn -0.4781 0.3845 -0.7897
vn -0.1990 -0.9233 -0.3286
vn -0.5080 0.1960 -0.8388
vn -0.1029 -0.9800 -0.1701
vn -0.5180 -0.0000 -0.8554
vn -0.1029 0.9800 -0.1701
vn -0.5080 -0.1960 -0.8388
vn -0.1990 0.9233 -0.3286
vn -0.2877 0.8316 -0.4751
vn -0.1313 -0.9232 -0.3613
vn -0.0679 -0.9800 -0.1870
vn -0.3350 0.1959 -0.9216
vn -0.3416 -0.0000 -0.9398
vn -0.0679 0.9800 -0.1870
vn -0.3350 -0.1959 -0.9216
vn -0.1313 0.9232 -0.3613
vn -0.3155 -0.3840 -0.8678
vn -0.1898 0.8314 -0.5223
vn -0.2838 -0.5568 -0.7807
vn -0.2413 0.7078 -0.6639
vn -0.2412 -0.7080 -0.6637
vn -0.2838 0.5568 -0.7807
vn -0.1898 -0.8314 -0.5223
vn -0.3155 0.3840 -0.8678
vn -0.1077 0.7076 -0.6983
vn -0.1077 -0.7076 -0.6983
vn -0.1267 0.5566 -0.8211
vn -0.0847 -0.8312 -0.5494
vn -0.1408 0.3838 -0.9126
vn -0.0586 -0.9231 -0.3801
vn -0.1495 0.1958 -0.9692
vn -0.0303 -0.9800 -0.1967
vn -0.1525 -0.0000 -0.9883
vn -0.0303 0.9800 -0.1967
vn -0.1495 -0.1958 -0.9692
vn -0.0586 0.9231 -0.3801
vn -0.1408 -0.3838 -0.9126
vn -0.0847 0.8312 -0.5494
vn -0.1267 -0.5566 -0.8211
vn 0.0416 0.1958 -0.9798
vn 0.0424 -0.0000 -0.9991
vn 0.0084 0.9800 -0.1989
vn 0.0084 -0.9800 -0.1989
vn 0.0416 -0.1958 -0.9798
vn 0.0163 0.9231 -0.3843
vn 0.0391 -0.3838 -0.9226
vn 0.0236 0.8312 -0.5555
vn 0.0352 -0.5565 -0.8301
vn 0.0300 0.7076 -0.7060
vn 0.0300 -0.7076 -0.7060
vn 0.0352 0.5565 -0.8301
vn 0.0236 -0.8312 -0.5555
vn 0.0391 0.3838 -0.9226
vn 0.0163 -0.9231 -0.3843
vn 0.1665 -0.7076 -0.6867
vn 0.1665 0.7076 -0.6867
vn 0.1957 0.5566 -0.8074
vn 0.1310 -0.8312 -0.5403
vn 0.2176 0.3838 -0.8974
vn 0.0906 -0.9231 -0.3737
vn 0.2311 0.1958 -0.9530
vn 0.0469 -0.9800 -0.1934
vn 0.2356 -0.0000 -0.9718
vn 0.0469 0.9800 -0.1934
vn 0.2311 -0.1958 -0.9530
vn 0.0906 0.9231 -0.3737
vn 0.2176 -0.3838 -0.8974
vn 0.1310 0.8312 -0.5403
vn 0.1957 -0.5566 -0.8074
vn 0.0835 0.9800 -0.1805
vn 0.0835 -0.9800 -0.1805
vn 0.4119 -0.1959 -0.8899
vn 0.1614 0.9232 -0.3489
vn 0.3878 -0.3840 -0.8380
vn 0.2334 0.8314 -0.5043
vn 0.3489 -0.5568 -0.7538
vn 0.2967 0.7078 -0.6411
vn 0.2967 -0.7078 -0.6411
vn 0.3489 0.5568 -0.7538
vn 0.2334 -0.8314 -0.5043
vn 0.3878 0.3840 -0.8380
vn 0.1614 -0.9232 -0.3489
vn 0.4119 0.1959 -0.8899
vn 0.4200 -0.0000 -0.9075
vn 0.4156 0.7081 -0.5709
vn 0.4888 0.5571 -0.6714
vn 0.4156 -0.7081 -0.5709
vn 0.3269 -0.8316 -0.4491
vn 0.5434 0.3842 -0.7464
vn 0.2261 -0.9233 -0.3106
vn 0.5772 0.1960 -0.7927
vn 0.1170 -0.9800 -0.1607
vn 0.5886 -0.0000 -0.8084
vn 0.1170 0.9800 -0.1607
vn 0.5772 -0.1960 -0.7927
vn 0.2261 0.9233 -0.3106
vn 0.5434 -0.3842 -0.7464
vn 0.3269 0.8316 -0.4491
vn 0.4888 -0.5571 -0.6714
vn 0.7206 -0.1962 -0.6650
vn 0.2821 0.9234 -0.2604
vn 0.6784 -0.3845 -0.6261
vn 0.4079 0.8318 -0.3765
vn 0.6101 -0.5574 -0.5631
vn 0.5187 0.7084 -0.4787
vn 0.5187 -0.7084 -0.4787
vn 0.6101 0.5574 -0.5631
vn 0.4079 -0.8318 -0.3765
vn 0.6784 0.3845 -0.6261
vn 0.2821 -0.9234 -0.2604
vn 0.7206 0.1962 -0.6650
vn 0.1459 -0.9801 -0.1347
vn 0.7349 -0.0000 -0.6782
vn 0.1459 0.9801 -0.1347
vn 0.6019 -0.7087 -0.3681
vn 0.4733 -0.8320 -0.2894
vn 0.7875 0.3848 -0.4815
vn 0.3272 -0.9235 -0.2001
vn 0.8365 0.1964 -0.5115
vn 0.1693 -0.9801 -0.1036
vn 0.8532 -0.0000 -0.5216
vn 0.1693 0.9801 -0.1036
vn 0.8365 -0.1964 -0.5115
vn 0.3272 0.9235 -0.2001
vn 0.7875 -0.3848 -0.4815
vn 0.4733 0.8320 -0.2894
vn 0.7081 -0.5578 -0.4330
vn 0.6019 0.7087 -0.3681
vn 0.7081 0.5578 -0.4330
vn 0.8663 -0.3850 -0.3182
vn 0.5205 0.8322 -0.1912
vn 0.7789 -0.5581 -0.2861
vn 0.6617 0.7093 -0.2430
vn 0.6617 -0.7093 -0.2430
vn 0.7789 0.5580 -0.2861
vn 0.5205 -0.8322 -0.1912
vn 0.8663 0.3850 -0.3182
vn 0.3599 -0.9236 -0.1322
vn 0.9204 0.1965 -0.3380
vn 0.1858 -0.9802 -0.0683
vn 0.9387 -0.0000 -0.3447
vn 0.1862 0.9801 -0.0684
vn 0.9204 -0.1965 -0.3380
vn 0.3599 0.9236 -0.1322
vn 0.5477 -0.8323 -0.0855
vn 0.3786 -0.9237 -0.0591
vn 0.9118 0.3852 -0.1423
vn 0.9688 0.1966 -0.1512
vn 0.1959 -0.9802 -0.0306
vn 0.9880 -0.0000 -0.1542
vn 0.1959 0.9802 -0.0306
vn 0.9688 -0.1966 -0.1512
vn 0.3786 0.9237 -0.0591
vn 0.9118 -0.3852 -0.1423
vn 0.5472 0.8326 -0.0854
vn 0.8198 -0.5582 -0.1280
vn 0.6967 0.7091 -0.1088
vn 0.6967 -0.7091 -0.1088
vn 0.8198 0.5582 -0.1280
vn 0.5537 0.8324 0.0235
vn 0.9220 -0.3853 0.0391
vn 0.8289 -0.5583 0.0352
vn 0.7044 0.7092 0.0299
vn 0.7044 -0.7092 0.0299
vn 0.8289 0.5583 0.0352
vn 0.5537 -0.8324 0.0235
vn 0.9220 0.3853 0.0391
vn 0.3828 -0.9237 0.0162
vn 0.9796 0.1966 0.0416
vn 0.1980 -0.9802 0.0084
vn 0.9991 -0.0000 0.0424
vn 0.1980 0.9802 0.0084
vn 0.9796 -0.1966 0.0416
vn 0.3828 0.9237 0.0162
vn 0.8965 0.3852 0.2190
vn 0.9525 0.1966 0.2327
vn 0.1926 -0.9802 0.0471
vn 0.9714 -0.0000 0.2374
vn 0.1926 0.9802 0.0471
vn 0.9525 -0.1966 0.2327
vn 0.3718 0.9239 0.0909
vn 0.8965 -0.3852 0.2190
vn 0.5384 0.8323 0.1316
vn 0.8060 -0.5582 0.1969
vn 0.6849 0.7091 0.1674
vn 0.6849 -0.7091 0.1674
vn 0.8060 0.5582 0.1969
vn 0.5382 -0.8325 0.1315
vn 0.3722 -0.9237 0.0910
vn 0.8363 -0.3850 0.3904
vn 0.7519 -0.5580 0.3510
vn 0.6389 0.7092 0.2982
vn 0.6388 -0.7093 0.2981
vn 0.7519 0.5580 0.3510
vn 0.5024 -0.8322 0.2346
vn 0.8363 0.3850 0.3904
vn 0.3474 -0.9236 0.1622
vn 0.8885 0.1965 0.4147
vn 0.1797 -0.9801 0.0839
vn 0.9061 -0.0000 0.4230
vn 0.1797 0.9801 0.0839
vn 0.8885 -0.1965 0.4147
vn 0.3474 0.9236 0.1622
vn 0.5024 0.8322 0.2346
vn 0.3091 -0.9235 0.2271
vn 0.1599 -0.9801 0.1175
vn 0.7902 0.1964 0.5805
vn 0.8059 -0.0000 0.5920
vn 0.1599 0.9801 0.1175
vn 0.7902 -0.1964 0.5805
vn 0.3091 0.9235 0.2271
vn 0.7439 -0.3848 0.5465
vn 0.4471 0.8320 0.3285
vn 0.6689 -0.5578 0.4914
vn 0.5686 0.7087 0.4177
vn 0.5686 -0.7087 0.4177
vn 0.6689 0.5578 0.4914
vn 0.4468 -0.8322 0.3284
vn 0.7439 0.3848 0.5465
vn 0.4763 0.7084 0.5209
vn 0.4763 -0.7084 0.5209
vn 0.5602 0.5574 0.6127
vn 0.3745 -0.8318 0.4097
vn 0.6229 0.3845 0.6813
vn 0.2590 -0.9234 0.2833
vn 0.6617 0.1962 0.7237
vn 0.1340 -0.9801 0.1466
vn 0.6748 -0.0000 0.7380
vn 0.1340 0.9801 0.1466
vn 0.6617 -0.1962 0.7237
vn 0.2590 0.9234 0.2833
vn 0.6229 -0.3845 0.6813
vn 0.3745 0.8318 0.4097
vn 0.5602 -0.5574 0.6127
vn 0.5080 0.1960 0.8388
vn 0.5180 -0.0000 0.8554
vn 0.1029 0.9800 0.1701
vn 0.1029 -0.9800 0.1701
vn 0.5080 -0.1960 0.8388
vn 0.1990 0.9233 0.3286
vn 0.4782 -0.3842 0.7897
vn 0.2877 0.8316 0.4751
vn 0.4302 -0.5571 0.7104
vn 0.3658 0.7081 0.6040
vn 0.3658 -0.7081 0.6040
vn 0.4302 0.5571 0.7104
vn 0.2877 -0.8316 0.4751
vn 0.4781 0.3845 0.7897
vn 0.1990 -0.9233 0.3286
vn 0.2413 -0.7078 0.6639
vn 0.2413 0.7078 0.6639
vn 0.2838 0.5568 0.7807
vn 0.1898 -0.8314 0.5223
vn 0.3155 0.3840 0.8678
vn 0.1313 -0.9232 0.3613
vn 0.3350 0.1959 0.9216
vn 0.0679 -0.9800 0.1870
vn 0.3416 -0.0000 0.9398
vn 0.0679 0.9800 0.1870
vn 0.3350 -0.1959 0.9216
vn 0.1313 0.9232 0.3613
vn 0.3155 -0.3840 0.8678
vn 0.1898 0.8314 0.5223
vn 0.2838 -0.5568 0.7807
vn 0.0303 -0.9800 0.1967
vn 0.1495 -0.1958 0.9692
vn 0.0586 0.9231 0.3801
vn 0.1408 -0.3838 0.9126
vn 0.0847 0.8312 0.5494
vn 0.1267 -0.5566 0.8211
vn 0.1077 0.7076 0.6983
vn 0.1077 -0.7076 0.6983
vn 0.1267 0.5566 0.8211
vn 0.0847 -0.8312 0.5494
vn 0.1408 0.3838 0.9126
vn 0.0586 -0.9231 0.3801
vn 0.1495 0.1958 0.9692
vn 0.1525 -0.0000 0.9883
vn 0.0303 0.9800 0.1967
vn -0.0300 -0.7076 0.7060
vn -0.0236 -0.8312 0.5555
vn -0.0391 0.3838 0.9226
vn -0.0163 -0.9231 0.3843
vn -0.0416 0.1958 0.9798
vn -0.0084 -0.9800 0.1989
vn -0.0424 -0.0000 0.9991
vn -0.0084 0.9800 0.1989
vn -0.0416 -0.1958 0.9798
vn -0.0163 0.9231 0.3843
vn -0.0391 -0.3838 0.9226
vn -0.0236 0.8312 0.5555
vn -0.0352 -0.5565 0.8301
vn -0.0300 0.7076 0.7060
vn -0.0352 0.5565 0.8301
vn -0.0906 0.9231 0.3737
vn -0.2176 -0.3838 0.8974
vn -0.1310 0.8312 0.5403
vn -0.1957 -0.5566 0.8074
vn -0.1665 0.7076 0.6867
vn -0.1665 -0.7076 0.6867
vn -0.1957 0.5566 0.8074
vn -0.1310 -0.8312 0.5403
vn -0.2176 0.3838 0.8974
vn -0.0906 -0.9231 0.3737
vn -0.2311 0.1958 0.9530
vn -0.0469 -0.9800 0.1934
vn -0.2356 -0.0000 0.9718
vn -0.0469 0.9800 0.1934
vn -0.2311 -0.1958 0.9530
vn -0.3878 0.3840 0.8380
vn -0.1614 -0.9232 0.3489
vn -0.4119 0.1959 0.8899
vn -0.0835 -0.9800 0.1805
vn -0.4200 -0.0000 0.9075
vn -0.0835 0.9800 0.1805
vn -0.4119 -0.1959 0.8899
vn -0.1614 0.9232 0.3489
vn -0.3878 -0.3840 0.8380
vn -0.2334 0.8314 0.5043
vn -0.3489 -0.5568 0.7538
vn -0.2967 0.7078 0.6411
vn -0.2967 -0.7078 0.6411
vn -0.3489 0.5568 0.7538
vn -0.2334 -0.8314 0.5043
vn -0.5434 -0.3842 0.7464
vn -0.3269 0.8316 0.4491
vn -0.4888 -0.5571 0.6714
vn -0.4156 0.7081 0.5709
vn -0.4156 -0.7081 0.5709
vn -0.4888 0.5571 0.6714
vn -0.3269 -0.8316 0.4491
vn -0.5434 0.3842 0.7464
vn -0.2261 -0.9233 0.3106
vn -0.5772 0.1960 0.7927
vn -0.1170 -0.9800 0.1607
vn -0.5886 -0.0000 0.8084
vn -0.1170 0.9800 0.1607
vn -0.5772 -0.1960 0.7927
vn -0.2261 0.9233 0.3106
vn -0.2821 -0.9234 0.2604
vn -0.6784 0.3845 0.6261
vn -0.7206 0.1962 0.6650
vn -0.1459 -0.9801 0.1347
vn -0.7349 -0.0000 0.6782
vn -0.1459 0.9801 0.1347
vn -0.7206 -0.1962 0.6650
vn -0.2821 0.9234 0.2604
vn -0.6784 -0.3845 0.6261
vn -0.4079 0.8318 0.3765
vn -0.6101 -0.5574 0.5631
vn -0.5185 0.7086 0.4786
vn -0.5187 -0.7084 0.4787
vn -0.6101 0.5574 0.5631
vn -0.4079 -0.8318 0.3765
vn -0.3273 0.9235 0.2001
vn -0.4733 0.8320 0.2894
vn -0.7875 -0.3848 0.4815
vn -0.7081 -0.5578 0.4330
vn -0.6019 0.7087 0.3681
vn -0.6019 -0.7087 0.3681
vn -0.7081 0.5578 0.4330
vn -0.4730 -0.8322 0.2893
vn -0.7875 0.3848 0.4815
vn -0.3273 -0.9235 0.2001
vn -0.8365 0.1964 0.5115
vn -0.1693 -0.9801 0.1036
vn -0.8532 -0.0000 0.5216
vn -0.1693 0.9801 0.1036
vn -0.8365 -0.1964 0.5115
vn -0.8663 0.3850 0.3181
vn -0.9204 0.1965 0.3380
vn -0.1858 -0.9802 0.0683
vn -0.9387 -0.0000 0.3447
vn -0.1862 0.9801 0.0684
vn -0.9204 -0.1965 0.3380
vn -0.3599 0.9236 0.1322
vn -0.8663 -0.3850 0.3181
vn -0.5205 0.8322 0.1912
vn -0.7789 -0.5580 0.2861
vn -0.6618 0.7092 0.2430
vn -0.6618 -0.7092 0.2430
vn -0.7789 0.5580 0.2861
vn -0.5205 -0.8322 0.1912
vn -0.3599 -0.9236 0.1322
vn -0.9118 -0.3852 0.1423
vn -0.8198 -0.5582 0.1280
vn -0.6967 0.7091 0.1088
vn -0.6967 -0.7091 0.1088
vn -0.8198 0.5582 0.1280
vn -0.5477 -0.8323 0.0855
vn -0.9118 0.3852 0.1423
vn -0.3786 -0.9237 0.0591
vn -0.9688 0.1966 0.1512
vn -0.1959 -0.9802 0.0306
vn -0.9880 -0.0000 0.1542
vn -0.1959 0.9802 0.0306
vn -0.9688 -0.1966 0.1512
vn -0.3783 0.9238 0.0591
vn -0.5474 0.8325 0.0854
vt 0.750000 0.125000
vt 0.718750 0.062500
vt 0.750000 0.062500
vt 0.750000 0.562500
vt 0.718750 0.500000
vt 0.750000 0.500000
vt 0.750000 0.937500
vt 0.734375 1.000000
vt 0.718750 0.937500
vt 0.734375 0.000000
vt 0.750000 0.437500
vt 0.718750 0.437500
vt 0.750000 0.875000
vt 0.718750 0.875000
vt 0.718750 0.375000
vt 0.750000 0.375000
vt 0.750000 0.812500
vt 0.718750 0.812500
vt 0.718750 0.312500
vt 0.750000 0.312500
vt 0.750000 0.750000
vt 0.718750 0.750000
vt 0.718750 0.250000
vt 0.750000 0.250000
vt 0.750000 0.687500
vt 0.718750 0.687500
vt 0.718750 0.187500
vt 0.750000 0.187500
vt 0.750000 0.625000
vt 0.718750 0.625000
vt 0.718750 0.125000
vt 0.718750 0.562500
vt 0.687500 0.625000
vt 0.687500 0.187500
vt 0.687500 0.125000
vt 0.687500 0.562500
vt 0.687500 0.062500
vt 0.687500 0.500000
vt 0.703125 1.000000
vt 0.687500 0.937500
vt 0.703125 0.000000
vt 0.687500 0.437500
vt 0.687500 0.875000
vt 0.687500 0.375000
vt 0.687500 0.812500
vt 0.687500 0.312500
vt 0.687500 0.750000
vt 0.687500 0.250000
vt 0.687500 0.687500
vt 0.656250 0.375000
vt 0.656250 0.812500
vt 0.656250 0.312500
vt 0.656250 0.750000
vt 0.656250 0.250000
vt 0.656250 0.687500
vt 0.656250 0.187500
vt 0.656250 0.625000
vt 0.656250 0.125000
vt 0.656250 0.562500
vt 0.656250 0.062500
vt 0.656250 0.500000
vt 0.671875 1.000000
vt 0.656250 0.937500
vt 0.671875 0.000000
vt 0.656250 0.437500
vt 0.656250 0.875000
vt 0.625000 0.187500
vt 0.625000 0.125000
vt 0.625000 0.625000
vt 0.625000 0.562500
vt 0.625000 0.062500
vt 0.625000 0.500000
vt 0.640625 1.000000
vt 0.625000 0.937500
vt 0.640625 0.000000
vt 0.625000 0.437500
vt 0.625000 0.875000
vt 0.625000 0.375000
vt 0.625000 0.812500
vt 0.625000 0.312500
vt 0.625000 0.750000
vt 0.625000 0.250000
vt 0.625000 0.687500
vt 0.593750 0.375000
vt 0.593750 0.312500
vt 0.593750 0.750000
vt 0.593750 0.250000
vt 0.593750 0.687500
vt 0.593750 0.187500
vt 0.593750 0.625000
vt 0.593750 0.125000
vt 0.593750 0.562500
vt 0.593750 0.062500
vt 0.593750 0.500000
vt 0.609375 1.000000
vt 0.593750 0.937500
vt 0.609375 0.000000
vt 0.593750 0.437500
vt 0.593750 0.875000
vt 0.593750 0.812500
vt 0.562500 0.125000
vt 0.562500 0.062500
vt 0.562500 0.562500
vt 0.562500 0.500000
vt 0.578125 1.000000
vt 0.562500 0.937500
vt 0.578125 0.000000
vt 0.562500 0.437500
vt 0.562500 0.875000
vt 0.562500 0.375000
vt 0.562500 0.812500
vt 0.562500 0.312500
vt 0.562500 0.750000
vt 0.562500 0.250000
vt 0.562500 0.687500
vt 0.562500 0.187500
vt 0.562500 0.625000
vt 0.531250 0.750000
vt 0.531250 0.250000
vt 0.531250 0.687500
vt 0.531250 0.187500
vt 0.531250 0.625000
vt 0.531250 0.125000
vt 0.531250 0.562500
vt 0.531250 0.062500
vt 0.531250 0.500000
vt 0.546875 1.000000
vt 0.531250 0.937500
vt 0.546875 0.000000
vt 0.531250 0.437500
vt 0.531250 0.875000
vt 0.531250 0.375000
vt 0.531250 0.812500
vt 0.531250 0.312500
vt 0.500000 0.562500
vt 0.500000 0.500000
vt 0.515625 1.000000
vt 0.500000 0.937500
vt 0.515625 0.000000
vt 0.500000 0.062500
vt 0.500000 0.437500
vt 0.500000 0.875000
vt 0.500000 0.375000
vt 0.500000 0.812500
vt 0.500000 0.312500
vt 0.500000 0.750000
vt 0.500000 0.250000
vt 0.500000 0.687500
vt 0.500000 0.187500
vt 0.500000 0.625000
vt 0.500000 0.125000
vt 0.468750 0.250000
vt 0.468750 0.750000
vt 0.468750 0.687500
vt 0.468750 0.187500
vt 0.468750 0.625000
vt 0.468750 0.125000
vt 0.468750 0.562500
vt 0.468750 0.062500
vt 0.468750 0.500000
vt 0.484375 1.000000
vt 0.468750 0.937500
vt 0.484375 0.000000
vt 0.468750 0.437500
vt 0.468750 0.875000
vt 0.468750 0.375000
vt 0.468750 0.812500
vt 0.468750 0.312500
vt 0.453125 1.000000
vt 0.437500 0.937500
vt 0.453125 0.000000
vt 0.437500 0.062500
vt 0.437500 0.437500
vt 0.437500 0.875000
vt 0.437500 0.375000
vt 0.437500 0.812500
vt 0.437500 0.312500
vt 0.437500 0.750000
vt 0.437500 0.250000
vt 0.437500 0.687500
vt 0.437500 0.187500
vt 0.437500 0.625000
vt 0.437500 0.125000
vt 0.437500 0.562500
vt 0.437500 0.500000
vt 0.406250 0.750000
vt 0.406250 0.687500
vt 0.406250 0.250000
vt 0.406250 0.187500
vt 0.406250 0.625000
vt 0.406250 0.125000
vt 0.406250 0.562500
vt 0.406250 0.062500
vt 0.406250 0.500000
vt 0.421875 1.000000
vt 0.406250 0.937500
vt 0.421875 0.000000
vt 0.406250 0.437500
vt 0.406250 0.875000
vt 0.406250 0.375000
vt 0.406250 0.812500
vt 0.406250 0.312500
vt 0.375000 0.437500
vt 0.375000 0.875000
vt 0.375000 0.375000
vt 0.375000 0.812500
vt 0.375000 0.312500
vt 0.375000 0.750000
vt 0.375000 0.250000
vt 0.375000 0.687500
vt 0.375000 0.187500
vt 0.375000 0.625000
vt 0.375000 0.125000
vt 0.375000 0.562500
vt 0.375000 0.062500
vt 0.375000 0.500000
vt 0.390625 1.000000
vt 0.375000 0.937500
vt 0.390625 0.000000
vt 0.343750 0.250000
vt 0.343750 0.187500
vt 0.343750 0.625000
vt 0.343750 0.125000
vt 0.343750 0.562500
vt 0.343750 0.062500
vt 0.343750 0.500000
vt 0.359375 1.000000
vt 0.343750 0.937500
vt 0.359375 0.000000
vt 0.343750 0.437500
vt 0.343750 0.875000
vt 0.343750 0.375000
vt 0.343750 0.812500
vt 0.343750 0.312500
vt 0.343750 0.750000
vt 0.343750 0.687500
vt 0.312500 0.375000
vt 0.312500 0.812500
vt 0.312500 0.312500
vt 0.312500 0.750000
vt 0.312500 0.250000
vt 0.312500 0.687500
vt 0.312500 0.187500
vt 0.312500 0.625000
vt 0.312500 0.125000
vt 0.312500 0.562500
vt 0.312500 0.062500
vt 0.312500 0.500000
vt 0.328125 1.000000
vt 0.312500 0.937500
vt 0.328125 0.000000
vt 0.312500 0.437500
vt 0.312500 0.875000
vt 0.281250 0.187500
vt 0.281250 0.125000
vt 0.281250 0.625000
vt 0.281250 0.562500
vt 0.281250 0.062500
vt 0.281250 0.500000
vt 0.296875 1.000000
vt 0.281250 0.937500
vt 0.296875 0.000000
vt 0.281250 0.437500
vt 0.281250 0.875000
vt 0.281250 0.375000
vt 0.281250 0.812500
vt 0.281250 0.312500
vt 0.281250 0.750000
vt 0.281250 0.250000
vt 0.281250 0.687500
vt 0.250000 0.812500
vt 0.250000 0.375000
vt 0.250000 0.312500
vt 0.250000 0.750000
vt 0.250000 0.250000
vt 0.250000 0.687500
vt 0.250000 0.187500
vt 0.250000 0.625000
vt 0.250000 0.125000
vt 0.250000 0.562500
vt 0.250000 0.062500
vt 0.250000 0.500000
vt 0.265625 1.000000
vt 0.250000 0.937500
vt 0.265625 0.000000
vt 0.250000 0.437500
vt 0.250000 0.875000
vt 0.218750 0.625000
vt 0.218750 0.562500
vt 0.218750 0.062500
vt 0.218750 0.500000
vt 0.234375 1.000000
vt 0.218750 0.937500
vt 0.234375 0.000000
vt 0.218750 0.437500
vt 0.218750 0.875000
vt 0.218750 0.375000
vt 0.218750 0.812500
vt 0.218750 0.312500
vt 0.218750 0.750000
vt 0.218750 0.250000
vt 0.218750 0.687500
vt 0.218750 0.187500
vt 0.218750 0.125000
vt 0.187500 0.375000
vt 0.187500 0.312500
vt 0.187500 0.750000
vt 0.187500 0.250000
vt 0.187500 0.687500
vt 0.187500 0.187500
vt 0.187500 0.625000
vt 0.187500 0.125000
vt 0.187500 0.562500
vt 0.187500 0.062500
vt 0.187500 0.500000
vt 0.203125 1.000000
vt 0.187500 0.937500
vt 0.203125 0.000000
vt 0.187500 0.437500
vt 0.187500 0.875000
vt 0.187500 0.812500
vt 0.156250 0.125000
vt 0.156250 0.062500
vt 0.156250 0.562500
vt 0.156250 0.500000
vt 0.171875 1.000000
vt 0.156250 0.937500
vt 0.171875 0.000000
vt 0.156250 0.437500
vt 0.156250 0.875000
vt 0.156250 0.375000
vt 0.156250 0.812500
vt 0.156250 0.312500
vt 0.156250 0.750000
vt 0.156250 0.250000
vt 0.156250 0.687500
vt 0.156250 0.187500
vt 0.156250 0.625000
vt 0.125000 0.750000
vt 0.125000 0.250000
vt 0.125000 0.687500
vt 0.125000 0.187500
vt 0.125000 0.625000
vt 0.125000 0.125000
vt 0.125000 0.562500
vt 0.125000 0.062500
vt 0.125000 0.500000
vt 0.140625 1.000000
vt 0.125000 0.937500
vt 0.140625 0.000000
vt 0.125000 0.437500
vt 0.125000 0.875000
vt 0.125000 0.375000
vt 0.125000 0.812500
vt 0.125000 0.312500
vt 0.093750 0.562500
vt 0.093750 0.500000
vt 0.109375 1.000000
vt 0.093750 0.937500
vt 0.109375 0.000000
vt 0.093750 0.062500
vt 0.093750 0.437500
vt 0.093750 0.875000
vt 0.093750 0.375000
vt 0.093750 0.812500
vt 0.093750 0.312500
vt 0.093750 0.750000
vt 0.093750 0.250000
vt 0.093750 0.687500
vt 0.093750 0.187500
vt 0.093750 0.625000
vt 0.093750 0.125000
vt 0.062500 0.250000
vt 0.062500 0.750000
vt 0.062500 0.687500
vt 0.062500 0.187500
vt 0.062500 0.625000
vt 0.062500 0.125000
vt 0.062500 0.562500
vt 0.062500 0.062500
vt 0.062500 0.500000
vt 0.078125 1.000000
vt 0.062500 0.937500
vt 0.078125 0.000000
vt 0.062500 0.437500
vt 0.062500 0.875000
vt 0.062500 0.375000
vt 0.062500 0.812500
vt 0.062500 0.312500
vt 0.046875 0.000000
vt 0.031250 0.062500
vt 0.031250 0.437500
vt 0.031250 0.875000
vt 0.031250 0.375000
vt 0.031250 0.812500
vt 0.031250 0.312500
vt 0.031250 0.750000
vt 0.031250 0.250000
vt 0.031250 0.687500
vt 0.031250 0.187500
vt 0.031250 0.625000
vt 0.031250 0.125000
vt 0.031250 0.562500
vt 0.031250 0.500000
vt 0.046875 1.000000
vt 0.031250 0.937500
vt 0.000000 0.250000
vt 0.000000 0.187500
vt 0.000000 0.625000
vt 0.000000 0.125000
vt 0.000000 0.562500
vt 0.000000 0.062500
vt 0.000000 0.500000
vt 0.015625 1.000000
vt 0.000000 0.937500
vt 0.015625 0.000000
vt 0.000000 0.437500
vt 0.000000 0.875000
vt 0.000000 0.375000
vt 0.000000 0.812500
vt 0.000000 0.312500
vt 0.000000 0.750000
vt 0.000000 0.687500
vt 1.000000 0.937500
vt 0.968750 0.875000
vt 1.000000 0.875000
vt 1.000000 0.437500
vt 0.968750 0.375000
vt 1.000000 0.375000
vt 1.000000 0.812500
vt 0.968750 0.812500
vt 1.000000 0.312500
vt 0.968750 0.312500
vt 0.968750 0.750000
vt 1.000000 0.750000
vt 0.968750 0.250000
vt 1.000000 0.250000
vt 1.000000 0.687500
vt 0.968750 0.687500
vt 1.000000 0.187500
vt 0.968750 0.187500
vt 0.968750 0.625000
vt 1.000000 0.625000
vt 0.968750 0.125000
vt 1.000000 0.125000
vt 1.000000 0.562500
vt 0.968750 0.562500
vt 1.000000 0.062500
vt 0.968750 0.062500
vt 1.000000 0.500000
vt 0.968750 0.500000
vt 0.984375 1.000000
vt 0.968750 0.937500
vt 0.984375 0.000000
vt 0.968750 0.437500
vt 0.937500 0.625000
vt 0.937500 0.125000
vt 0.937500 0.562500
vt 0.937500 0.062500
vt 0.937500 0.500000
vt 0.953125 1.000000
vt 0.937500 0.937500
vt 0.953125 0.000000
vt 0.937500 0.437500
vt 0.937500 0.875000
vt 0.937500 0.375000
vt 0.937500 0.812500
vt 0.937500 0.312500
vt 0.937500 0.750000
vt 0.937500 0.250000
vt 0.937500 0.687500
vt 0.937500 0.187500
vt 0.906250 0.375000
vt 0.906250 0.812500
vt 0.906250 0.312500
vt 0.906250 0.750000
vt 0.906250 0.250000
vt 0.906250 0.687500
vt 0.906250 0.187500
vt 0.906250 0.625000
vt 0.906250 0.125000
vt 0.906250 0.562500
vt 0.906250 0.062500
vt 0.906250 0.500000
vt 0.921875 1.000000
vt 0.906250 0.937500
vt 0.921875 0.000000
vt 0.906250 0.437500
vt 0.906250 0.875000
vt 0.875000 0.125000
vt 0.875000 0.625000
vt 0.875000 0.562500
vt 0.875000 0.062500
vt 0.875000 0.500000
vt 0.890625 1.000000
vt 0.875000 0.937500
vt 0.890625 0.000000
vt 0.875000 0.437500
vt 0.875000 0.875000
vt 0.875000 0.375000
vt 0.875000 0.812500
vt 0.875000 0.312500
vt 0.875000 0.750000
vt 0.875000 0.250000
vt 0.875000 0.687500
vt 0.875000 0.187500
vt 0.843750 0.875000
vt 0.843750 0.812500
vt 0.843750 0.375000
vt 0.843750 0.312500
vt 0.843750 0.750000
vt 0.843750 0.250000
vt 0.843750 0.687500
vt 0.843750 0.187500
vt 0.843750 0.625000
vt 0.843750 0.125000
vt 0.843750 0.562500
vt 0.843750 0.062500
vt 0.843750 0.500000
vt 0.859375 1.000000
vt 0.843750 0.937500
vt 0.859375 0.000000
vt 0.843750 0.437500
vt 0.812500 0.625000
vt 0.812500 0.562500
vt 0.812500 0.062500
vt 0.812500 0.500000
vt 0.828125 1.000000
vt 0.812500 0.937500
vt 0.828125 0.000000
vt 0.812500 0.437500
vt 0.812500 0.875000
vt 0.812500 0.375000
vt 0.812500 0.812500
vt 0.812500 0.312500
vt 0.812500 0.750000
vt 0.812500 0.250000
vt 0.812500 0.687500
vt 0.812500 0.187500
vt 0.812500 0.125000
vt 0.781250 0.375000
vt 0.781250 0.312500
vt 0.781250 0.750000
vt 0.781250 0.250000
vt 0.781250 0.687500
vt 0.781250 0.187500
vt 0.781250 0.625000
vt 0.781250 0.125000
vt 0.781250 0.562500
vt 0.781250 0.062500
vt 0.781250 0.500000
vt 0.796875 1.000000
vt 0.781250 0.937500
vt 0.796875 0.000000
vt 0.781250 0.437500
vt 0.781250 0.875000
vt 0.781250 0.812500
vt 0.765625 1.000000
vt 0.765625 0.000000
vt 0.000000 0.000000
s 1
usemtl マテリアル
f 481/1/1 21/2/2 482/3/3
f 3/4/4 14/5/5 4/6/6
f 474/7/7 82/8/8 7/9/9
f 308/10/10 482/3/3 21/2/2
f 5/11/11 14/5/5 15/12/12
f 475/13/13 7/9/9 8/14/14
f 5/11/11 16/15/15 478/16/16
f 1/17/17 8/14/14 9/18/18
f 478/16/16 17/19/19 6/20/20
f 476/21/21 9/18/18 10/22/22
f 6/20/20 18/23/23 479/24/24
f 2/25/25 10/22/22 11/26/26
f 479/24/24 19/27/27 480/28/28
f 477/29/29 11/26/26 12/30/30
f 480/28/28 20/31/31 481/1/1
f 3/4/4 12/30/30 13/32/32
f 11/26/26 27/33/33 12/30/30
f 20/31/31 34/34/34 35/35/35
f 13/32/32 27/33/33 28/36/36
f 21/2/2 35/35/35 36/37/37
f 14/5/5 28/36/36 29/38/38
f 7/9/9 82/39/8 22/40/39
f 308/41/10 21/2/2 36/37/37
f 14/5/5 30/42/40 15/12/12
f 7/9/9 23/43/41 8/14/14
f 15/12/12 31/44/42 16/15/15
f 8/14/14 24/45/43 9/18/18
f 17/19/19 31/44/42 32/46/44
f 9/18/18 25/47/45 10/22/22
f 18/23/23 32/46/44 33/48/46
f 10/22/22 26/49/47 11/26/26
f 19/27/27 33/48/46 34/34/34
f 30/42/40 46/50/48 31/44/42
f 23/43/41 39/51/49 24/45/43
f 32/46/44 46/50/48 47/52/50
f 24/45/43 40/53/51 25/47/45
f 32/46/44 48/54/52 33/48/46
f 26/49/47 40/53/51 41/55/53
f 34/34/34 48/54/52 49/56/54
f 26/49/47 42/57/55 27/33/33
f 35/35/35 49/56/54 50/58/56
f 28/36/36 42/57/55 43/59/57
f 36/37/37 50/58/56 51/60/58
f 29/38/38 43/59/57 44/61/59
f 22/40/39 82/62/8 37/63/60
f 308/64/10 36/37/37 51/60/58
f 29/38/38 45/65/61 30/42/40
f 22/40/39 38/66/62 23/43/41
f 50/58/56 64/67/63 65/68/64
f 43/59/57 57/69/65 58/70/66
f 51/60/58 65/68/64 66/71/67
f 44/61/59 58/70/66 59/72/68
f 37/63/60 82/73/8 52/74/69
f 308/75/10 51/60/58 66/71/67
f 44/61/59 60/76/70 45/65/61
f 37/63/60 53/77/71 38/66/62
f 45/65/61 61/78/72 46/50/48
f 38/66/62 54/79/73 39/51/49
f 47/52/50 61/78/72 62/80/74
f 39/51/49 55/81/75 40/53/51
f 48/54/52 62/80/74 63/82/76
f 40/53/51 56/83/77 41/55/53
f 49/56/54 63/82/76 64/67/63
f 41/55/53 57/69/65 42/57/55
f 62/80/74 76/84/78 77/85/79
f 54/79/73 70/86/80 55/81/75
f 62/80/74 78/87/81 63/82/76
f 56/83/77 70/86/80 71/88/82
f 64/67/63 78/87/81 79/89/83
f 56/83/77 72/90/84 57/69/65
f 64/67/63 80/91/85 65/68/64
f 58/70/66 72/90/84 73/92/86
f 65/68/64 81/93/87 66/71/67
f 59/72/68 73/92/86 74/94/88
f 52/74/69 82/95/8 67/96/89
f 308/97/10 66/71/67 81/93/87
f 59/72/68 75/98/90 60/76/70
f 53/77/71 67/96/89 68/99/91
f 60/76/70 76/84/78 61/78/72
f 54/79/73 68/99/91 69/100/92
f 81/93/87 96/101/93 97/102/94
f 74/94/88 89/103/95 90/104/96
f 67/96/89 82/105/8 83/106/97
f 308/107/10 81/93/87 97/102/94
f 74/94/88 91/108/98 75/98/90
f 67/96/89 84/109/99 68/99/91
f 75/98/90 92/110/100 76/84/78
f 68/99/91 85/111/101 69/100/92
f 77/85/79 92/110/100 93/112/102
f 69/100/92 86/113/103 70/86/80
f 77/85/79 94/114/104 78/87/81
f 71/88/82 86/113/103 87/115/105
f 79/89/83 94/114/104 95/116/106
f 71/88/82 88/117/107 72/90/84
f 80/91/85 95/116/106 96/101/93
f 73/92/86 88/117/107 89/103/95
f 85/111/101 101/118/108 86/113/103
f 93/112/102 109/119/109 94/114/104
f 87/115/105 101/118/108 102/120/110
f 95/116/106 109/119/109 110/121/111
f 87/115/105 103/122/112 88/117/107
f 95/116/106 111/123/113 96/101/93
f 89/103/95 103/122/112 104/124/114
f 96/101/93 112/125/115 97/102/94
f 90/104/96 104/124/114 105/126/116
f 83/106/97 82/127/8 98/128/117
f 308/129/10 97/102/94 112/125/115
f 90/104/96 106/130/118 91/108/98
f 84/109/99 98/128/117 99/131/119
f 91/108/98 107/132/120 92/110/100
f 85/111/101 99/131/119 100/133/121
f 93/112/102 107/132/120 108/134/122
f 105/126/116 119/135/123 120/136/124
f 98/128/117 82/137/8 113/138/125
f 308/139/10 112/125/115 127/140/126
f 105/126/116 121/141/127 106/130/118
f 99/131/119 113/138/125 114/142/128
f 106/130/118 122/143/129 107/132/120
f 100/133/121 114/142/128 115/144/130
f 108/134/122 122/143/129 123/145/131
f 100/133/121 116/146/132 101/118/108
f 108/134/122 124/147/133 109/119/109
f 102/120/110 116/146/132 117/148/134
f 110/121/111 124/147/133 125/149/135
f 102/120/110 118/150/136 103/122/112
f 110/121/111 126/151/137 111/123/113
f 104/124/114 118/150/136 119/135/123
f 111/123/113 127/140/126 112/125/115
f 123/145/131 139/152/138 124/147/133
f 117/148/134 131/153/139 132/154/140
f 125/149/135 139/152/138 140/155/141
f 117/148/134 133/156/142 118/150/136
f 126/151/137 140/155/141 141/157/143
f 119/135/123 133/156/142 134/158/144
f 127/140/126 141/157/143 142/159/145
f 120/136/124 134/158/144 135/160/146
f 113/138/125 82/161/8 128/162/147
f 308/163/10 127/140/126 142/159/145
f 120/136/124 136/164/148 121/141/127
f 113/138/125 129/165/149 114/142/128
f 121/141/127 137/166/150 122/143/129
f 114/142/128 130/167/151 115/144/130
f 123/145/131 137/166/150 138/168/152
f 115/144/130 131/153/139 116/146/132
f 128/162/147 82/169/8 143/170/153
f 308/171/10 142/159/145 157/172/154
f 135/160/146 151/173/155 136/164/148
f 128/162/147 144/174/156 129/165/149
f 136/164/148 152/175/157 137/166/150
f 129/165/149 145/176/158 130/167/151
f 138/168/152 152/175/157 153/177/159
f 130/167/151 146/178/160 131/153/139
f 138/168/152 154/179/161 139/152/138
f 132/154/140 146/178/160 147/180/162
f 140/155/141 154/179/161 155/181/163
f 132/154/140 148/182/164 133/156/142
f 141/157/143 155/181/163 156/183/165
f 134/158/144 148/182/164 149/184/166
f 142/159/145 156/183/165 157/172/154
f 135/160/146 149/184/166 150/185/167
f 147/180/162 161/186/168 162/187/169
f 155/181/163 169/188/170 170/189/171
f 147/180/162 163/190/172 148/182/164
f 155/181/163 171/191/173 156/183/165
f 149/184/166 163/190/172 164/192/174
f 156/183/165 172/193/175 157/172/154
f 150/185/167 164/192/174 165/194/176
f 143/170/153 82/195/8 158/196/177
f 308/197/10 157/172/154 172/193/175
f 150/185/167 166/198/178 151/173/155
f 143/170/153 159/199/179 144/174/156
f 151/173/155 167/200/180 152/175/157
f 145/176/158 159/199/179 160/201/181
f 153/177/159 167/200/180 168/202/182
f 145/176/158 161/186/168 146/178/160
f 153/177/159 169/188/170 154/179/161
f 165/194/176 181/203/183 166/198/178
f 158/196/177 174/204/184 159/199/179
f 166/198/178 182/205/185 167/200/180
f 159/199/179 175/206/186 160/201/181
f 168/202/182 182/205/185 183/207/187
f 160/201/181 176/208/188 161/186/168
f 168/202/182 184/209/189 169/188/170
f 162/187/169 176/208/188 177/210/190
f 170/189/171 184/209/189 185/211/191
f 162/187/169 178/212/192 163/190/172
f 171/191/173 185/211/191 186/213/193
f 164/192/174 178/212/192 179/214/194
f 172/193/175 186/213/193 187/215/195
f 165/194/176 179/214/194 180/216/196
f 158/196/177 82/217/8 173/218/197
f 308/219/10 172/193/175 187/215/195
f 185/211/191 199/220/198 200/221/199
f 177/210/190 193/222/200 178/212/192
f 185/211/191 201/223/201 186/213/193
f 179/214/194 193/222/200 194/224/202
f 186/213/193 202/225/203 187/215/195
f 180/216/196 194/224/202 195/226/204
f 173/218/197 82/227/8 188/228/205
f 308/229/10 187/215/195 202/225/203
f 180/216/196 196/230/206 181/203/183
f 174/204/184 188/228/205 189/231/207
f 181/203/183 197/232/208 182/205/185
f 175/206/186 189/231/207 190/233/209
f 183/207/187 197/232/208 198/234/210
f 175/206/186 191/235/211 176/208/188
f 183/207/187 199/220/198 184/209/189
f 177/210/190 191/235/211 192/236/212
f 196/230/206 212/237/213 197/232/208
f 189/231/207 205/238/214 190/233/209
f 198/234/210 212/237/213 213/239/215
f 190/233/209 206/240/216 191/235/211
f 198/234/210 214/241/217 199/220/198
f 192/236/212 206/240/216 207/242/218
f 200/221/199 214/241/217 215/243/219
f 192/236/212 208/244/220 193/222/200
f 201/223/201 215/243/219 216/245/221
f 194/224/202 208/244/220 209/246/222
f 202/225/203 216/245/221 217/247/223
f 195/226/204 209/246/222 210/248/224
f 188/228/205 82/249/8 203/250/225
f 308/251/10 202/225/203 217/247/223
f 195/226/204 211/252/226 196/230/206
f 188/228/205 204/253/227 189/231/207
f 216/245/221 230/254/228 231/255/229
f 209/246/222 223/256/230 224/257/231
f 217/247/223 231/255/229 232/258/232
f 210/248/224 224/257/231 225/259/233
f 203/250/225 82/260/8 218/261/234
f 308/262/10 217/247/223 232/258/232
f 210/248/224 226/263/235 211/252/226
f 203/250/225 219/264/236 204/253/227
f 211/252/226 227/265/237 212/237/213
f 204/253/227 220/266/238 205/238/214
f 213/239/215 227/265/237 228/267/239
f 205/238/214 221/268/240 206/240/216
f 213/239/215 229/269/241 214/241/217
f 207/242/218 221/268/240 222/270/242
f 215/243/219 229/269/241 230/254/228
f 207/242/218 223/256/230 208/244/220
f 219/264/236 235/271/243 220/266/238
f 228/267/239 242/272/244 243/273/245
f 220/266/238 236/274/246 221/268/240
f 228/267/239 244/275/247 229/269/241
f 222/270/242 236/274/246 237/276/248
f 230/254/228 244/275/247 245/277/249
f 222/270/242 238/278/250 223/256/230
f 231/255/229 245/277/249 246/279/251
f 224/257/231 238/278/250 239/280/252
f 231/255/229 247/281/253 232/258/232
f 225/259/233 239/280/252 240/282/254
f 218/261/234 82/283/8 233/284/255
f 308/285/10 232/258/232 247/281/253
f 225/259/233 241/286/256 226/263/235
f 219/264/236 233/284/255 234/287/257
f 226/263/235 242/272/244 227/265/237
f 239/280/252 253/288/258 254/289/259
f 246/279/251 262/290/260 247/281/253
f 240/282/254 254/289/259 255/291/261
f 233/284/255 82/292/8 248/293/262
f 308/294/10 247/281/253 262/290/260
f 240/282/254 256/295/263 241/286/256
f 234/287/257 248/293/262 249/296/264
f 241/286/256 257/297/265 242/272/244
f 235/271/243 249/296/264 250/298/266
f 243/273/245 257/297/265 258/299/267
f 235/271/243 251/300/268 236/274/246
f 243/273/245 259/301/269 244/275/247
f 237/276/248 251/300/268 252/302/270
f 245/277/249 259/301/269 260/303/271
f 237/276/248 253/288/258 238/278/250
f 245/277/249 261/304/272 246/279/251
f 258/299/267 272/305/273 273/306/274
f 250/298/266 266/307/275 251/300/268
f 258/299/267 274/308/276 259/301/269
f 252/302/270 266/307/275 267/309/277
f 260/303/271 274/308/276 275/310/278
f 252/302/270 268/311/279 253/288/258
f 260/303/271 276/312/280 261/304/272
f 254/289/259 268/311/279 269/313/281
f 261/304/272 277/314/282 262/290/260
f 255/291/261 269/313/281 270/315/283
f 248/293/262 82/316/8 263/317/284
f 308/318/10 262/290/260 277/314/282
f 255/291/261 271/319/285 256/295/263
f 248/293/262 264/320/286 249/296/264
f 256/295/263 272/305/273 257/297/265
f 249/296/264 265/321/287 250/298/266
f 277/314/282 291/322/288 292/323/289
f 270/315/283 284/324/290 285/325/291
f 263/317/284 82/326/8 278/327/292
f 308/328/10 277/314/282 292/323/289
f 270/315/283 286/329/293 271/319/285
f 263/317/284 279/330/294 264/320/286
f 271/319/285 287/331/295 272/305/273
f 265/321/287 279/330/294 280/332/296
f 273/306/274 287/331/295 288/333/297
f 265/321/287 281/334/298 266/307/275
f 273/306/274 289/335/299 274/308/276
f 266/307/275 282/336/300 267/309/277
f 275/310/278 289/335/299 290/337/301
f 267/309/277 283/338/302 268/311/279
f 275/310/278 291/322/288 276/312/280
f 269/313/281 283/338/302 284/324/290
f 280/332/296 296/339/303 281/334/298
f 288/333/297 304/340/304 289/335/299
f 282/336/300 296/339/303 297/341/305
f 290/337/301 304/340/304 305/342/306
f 282/336/300 298/343/307 283/338/302
f 290/337/301 306/344/308 291/322/288
f 284/324/290 298/343/307 299/345/309
f 292/323/289 306/344/308 307/346/310
f 285/325/291 299/345/309 300/347/311
f 278/327/292 82/348/8 293/349/312
f 308/350/10 292/323/289 307/346/310
f 285/325/291 301/351/313 286/329/293
f 278/327/292 294/352/314 279/330/294
f 286/329/293 302/353/315 287/331/295
f 279/330/294 295/354/316 280/332/296
f 288/333/297 302/353/315 303/355/317
f 300/347/311 315/356/318 316/357/319
f 293/349/312 82/358/8 309/359/320
f 308/360/10 307/346/310 323/361/321
f 300/347/311 317/362/322 301/351/313
f 293/349/312 310/363/323 294/352/314
f 301/351/313 318/364/324 302/353/315
f 295/354/316 310/363/323 311/365/325
f 303/355/317 318/364/324 319/366/326
f 295/354/316 312/367/327 296/339/303
f 303/355/317 320/368/328 304/340/304
f 297/341/305 312/367/327 313/369/329
f 305/342/306 320/368/328 321/370/330
f 297/341/305 314/371/331 298/343/307
f 305/342/306 322/372/332 306/344/308
f 299/345/309 314/371/331 315/356/318
f 307/346/310 322/372/332 323/361/321
f 319/366/326 335/373/333 320/368/328
f 313/369/329 327/374/334 328/375/335
f 321/370/330 335/373/333 336/376/336
f 313/369/329 329/377/337 314/371/331
f 321/370/330 337/378/338 322/372/332
f 315/356/318 329/377/337 330/379/339
f 323/361/321 337/378/338 338/380/340
f 316/357/319 330/379/339 331/381/341
f 309/359/320 82/382/8 324/383/342
f 308/384/10 323/361/321 338/380/340
f 316/357/319 332/385/343 317/362/322
f 309/359/320 325/386/344 310/363/323
f 317/362/322 333/387/345 318/364/324
f 311/365/325 325/386/344 326/388/346
f 319/366/326 333/387/345 334/389/347
f 311/365/325 327/374/334 312/367/327
f 308/390/10 338/380/340 353/391/348
f 331/381/341 347/392/349 332/385/343
f 324/383/342 340/393/350 325/386/344
f 332/385/343 348/394/351 333/387/345
f 326/388/346 340/393/350 341/395/352
f 334/389/347 348/394/351 349/396/353
f 326/388/346 342/397/354 327/374/334
f 334/389/347 350/398/355 335/373/333
f 328/375/335 342/397/354 343/399/356
f 336/376/336 350/398/355 351/400/357
f 328/375/335 344/401/358 329/377/337
f 336/376/336 352/402/359 337/378/338
f 330/379/339 344/401/358 345/403/360
f 338/380/340 352/402/359 353/391/348
f 331/381/341 345/403/360 346/404/361
f 324/383/342 82/405/8 339/406/362
f 351/400/357 365/407/363 366/408/364
f 343/399/356 359/409/365 344/401/358
f 351/400/357 367/410/366 352/402/359
f 345/403/360 359/409/365 360/411/367
f 352/402/359 368/412/368 353/391/348
f 346/404/361 360/411/367 361/413/369
f 339/406/362 82/414/8 354/415/370
f 308/416/10 353/391/348 368/412/368
f 346/404/361 362/417/371 347/392/349
f 340/393/350 354/415/370 355/418/372
f 347/392/349 363/419/373 348/394/351
f 341/395/352 355/418/372 356/420/374
f 349/396/353 363/419/373 364/421/375
f 341/395/352 357/422/376 342/397/354
f 349/396/353 365/407/363 350/398/355
f 343/399/356 357/422/376 358/423/377
f 354/424/370 370/425/378 355/426/372
f 362/427/371 378/428/379 363/429/373
f 356/430/374 370/425/378 371/431/380
f 364/432/375 378/428/379 379/433/381
f 356/430/374 372/434/382 357/435/376
f 364/432/375 380/436/383 365/437/363
f 358/438/377 372/434/382 373/439/384
f 366/440/364 380/436/383 381/441/385
f 358/438/377 374/442/386 359/443/365
f 366/440/364 382/444/387 367/445/366
f 360/446/367 374/442/386 375/447/388
f 368/448/368 382/444/387 383/449/389
f 361/450/369 375/447/388 376/451/390
f 354/424/370 82/452/8 369/453/391
f 308/454/10 368/448/368 383/449/389
f 361/450/369 377/455/392 362/427/371
f 373/439/384 389/456/393 374/442/386
f 381/441/385 397/457/394 382/444/387
f 375/447/388 389/456/393 390/458/395
f 382/444/387 398/459/396 383/449/389
f 376/451/390 390/458/395 391/460/397
f 369/453/391 82/461/8 384/462/398
f 308/463/10 383/449/389 398/459/396
f 376/451/390 392/464/399 377/455/392
f 370/425/378 384/462/398 385/465/400
f 377/455/392 393/466/401 378/428/379
f 371/431/380 385/465/400 386/467/402
f 379/433/381 393/466/401 394/468/403
f 371/431/380 387/469/404 372/434/382
f 379/433/381 395/470/405 380/436/383
f 373/439/384 387/469/404 388/471/406
f 381/441/385 395/470/405 396/472/407
f 392/464/399 408/473/408 393/466/401
f 385/465/400 401/474/409 386/467/402
f 394/468/403 408/473/408 409/475/410
f 386/467/402 402/476/411 387/469/404
f 394/468/403 410/477/412 395/470/405
f 388/471/406 402/476/411 403/478/413
f 396/472/407 410/477/412 411/479/414
f 388/471/406 404/480/415 389/456/393
f 397/457/394 411/479/414 412/481/416
f 390/458/395 404/480/415 405/482/417
f 398/459/396 412/481/416 413/483/418
f 391/460/397 405/482/417 406/484/419
f 384/462/398 82/485/8 399/486/420
f 308/487/10 398/459/396 413/483/418
f 391/460/397 407/488/421 392/464/399
f 384/462/398 400/489/422 385/465/400
f 411/479/414 427/490/423 412/481/416
f 405/482/417 419/491/424 420/492/425
f 413/483/418 427/490/423 428/493/426
f 406/484/419 420/492/425 421/494/427
f 399/486/420 82/495/8 414/496/428
f 308/497/10 413/483/418 428/493/426
f 406/484/419 422/498/429 407/488/421
f 399/486/420 415/499/430 400/489/422
f 407/488/421 423/500/431 408/473/408
f 401/474/409 415/499/430 416/501/432
f 409/475/410 423/500/431 424/502/433
f 401/474/409 417/503/434 402/476/411
f 409/475/410 425/504/435 410/477/412
f 403/478/413 417/503/434 418/505/436
f 411/479/414 425/504/435 426/506/437
f 403/478/413 419/491/424 404/480/415
f 416/501/432 430/507/438 431/508/439
f 424/502/433 438/509/440 439/510/441
f 416/501/432 432/511/442 417/503/434
f 424/502/433 440/512/443 425/504/435
f 418/505/436 432/511/442 433/513/444
f 426/506/437 440/512/443 441/514/445
f 418/505/436 434/515/446 419/491/424
f 426/506/437 442/516/447 427/490/423
f 420/492/425 434/515/446 435/517/448
f 427/490/423 443/518/449 428/493/426
f 421/494/427 435/517/448 436/519/450
f 414/496/428 82/520/8 429/521/451
f 308/522/10 428/493/426 443/518/449
f 421/494/427 437/523/452 422/498/429
f 415/499/430 429/521/451 430/507/438
f 422/498/429 438/509/440 423/500/431
f 435/517/448 449/524/453 450/525/454
f 442/516/447 458/526/455 443/518/449
f 436/519/450 450/525/454 451/527/456
f 429/521/451 82/528/8 444/529/457
f 308/530/10 443/518/449 458/526/455
f 436/519/450 452/531/458 437/523/452
f 430/507/438 444/529/457 445/532/459
f 437/523/452 453/533/460 438/509/440
f 431/508/439 445/532/459 446/534/461
f 439/510/441 453/533/460 454/535/462
f 431/508/439 447/536/463 432/511/442
f 439/510/441 455/537/464 440/512/443
f 433/513/444 447/536/463 448/538/465
f 441/514/445 455/537/464 456/539/466
f 433/513/444 449/524/453 434/515/446
f 441/514/445 457/540/467 442/516/447
f 454/535/462 468/541/468 469/542/469
f 446/534/461 462/543/470 447/536/463
f 454/535/462 470/544/471 455/537/464
f 448/538/465 462/543/470 463/545/472
f 456/539/466 470/544/471 471/546/473
f 448/538/465 464/547/474 449/524/453
f 456/539/466 472/548/475 457/540/467
f 450/525/454 464/547/474 465/549/476
f 458/526/455 472/548/475 473/550/477
f 451/527/456 465/549/476 466/551/478
f 444/529/457 82/552/8 459/553/479
f 308/554/10 458/526/455 473/550/477
f 451/527/456 467/555/480 452/531/458
f 444/529/457 460/556/481 445/532/459
f 452/531/458 468/541/468 453/533/460
f 446/534/461 460/556/481 461/557/482
f 472/548/475 482/3/3 473/550/477
f 466/551/478 3/4/4 4/6/6
f 459/553/479 82/558/8 474/7/7
f 308/559/10 473/550/477 482/3/3
f 466/551/478 5/11/11 467/555/480
f 460/556/481 474/7/7 475/13/13
f 467/555/480 478/16/16 468/541/468
f 461/557/482 475/13/13 1/17/17
f 468/541/468 6/20/20 469/542/469
f 462/543/470 1/17/17 476/21/21
f 469/542/469 479/24/24 470/544/471
f 463/545/472 476/21/21 2/25/25
f 471/546/473 479/24/24 480/28/28
f 464/547/474 2/25/25 477/29/29
f 471/546/473 481/1/1 472/548/475
f 465/549/476 477/29/29 3/4/4
f 481/1/1 20/31/31 21/2/2
f 3/4/4 13/32/32 14/5/5
f 5/11/11 4/6/6 14/5/5
f 475/13/13 474/7/7 7/9/9
f 5/11/11 15/12/12 16/15/15
f 1/17/17 475/13/13 8/14/14
f 478/16/16 16/15/15 17/19/19
f 476/21/21 1/17/17 9/18/18
f 6/20/20 17/19/19 18/23/23
f 2/25/25 476/21/21 10/22/22
f 479/24/24 18/23/23 19/27/27
f 477/29/29 2/25/25 11/26/26
f 480/28/28 19/27/27 20/31/31
f 3/4/4 477/29/29 12/30/30
f 11/26/26 26/49/47 27/33/33
f 20/31/31 19/27/27 34/34/34
f 13/32/32 12/30/30 27/33/33
f 21/2/2 20/31/31 35/35/35
f 14/5/5 13/32/32 28/36/36
f 14/5/5 29/38/38 30/42/40
f 7/9/9 22/40/39 23/43/41
f 15/12/12 30/42/40 31/44/42
f 8/14/14 23/43/41 24/45/43
f 17/19/19 16/15/15 31/44/42
f 9/18/18 24/45/43 25/47/45
f 18/23/23 17/19/19 32/46/44
f 10/22/22 25/47/45 26/49/47
f 19/27/27 18/23/23 33/48/46
f 30/42/40 45/65/61 46/50/48
f 23/43/41 38/66/62 39/51/49
f 32/46/44 31/44/42 46/50/48
f 24/45/43 39/51/49 40/53/51
f 32/46/44 47/52/50 48/54/52
f 26/49/47 25/47/45 40/53/51
f 34/34/34 33/48/46 48/54/52
f 26/49/47 41/55/53 42/57/55
f 35/35/35 34/34/34 49/56/54
f 28/36/36 27/33/33 42/57/55
f 36/37/37 35/35/35 50/58/56
f 29/38/38 28/36/36 43/59/57
f 29/38/38 44/61/59 45/65/61
f 22/40/39 37/63/60 38/66/62
f 50/58/56 49/56/54 64/67/63
f 43/59/57 42/57/55 57/69/65
f 51/60/58 50/58/56 65/68/64
f 44/61/59 43/59/57 58/70/66
f 44/61/59 59/72/68 60/76/70
f 37/63/60 52/74/69 53/77/71
f 45/65/61 60/76/70 61/78/72
f 38/66/62 53/77/71 54/79/73
f 47/52/50 46/50/48 61/78/72
f 39/51/49 54/79/73 55/81/75
f 48/54/52 47/52/50 62/80/74
f 40/53/51 55/81/75 56/83/77
f 49/56/54 48/54/52 63/82/76
f 41/55/53 56/83/77 57/69/65
f 62/80/74 61/78/72 76/84/78
f 54/79/73 69/100/92 70/86/80
f 62/80/74 77/85/79 78/87/81
f 56/83/77 55/81/75 70/86/80
f 64/67/63 63/82/76 78/87/81
f 56/83/77 71/88/82 72/90/84
f 64/67/63 79/89/83 80/91/85
f 58/70/66 57/69/65 72/90/84
f 65/68/64 80/91/85 81/93/87
f 59/72/68 58/70/66 73/92/86
f 59/72/68 74/94/88 75/98/90
f 53/77/71 52/74/69 67/96/89
f 60/76/70 75/98/90 76/84/78
f 54/79/73 53/77/71 68/99/91
f 81/93/87 80/91/85 96/101/93
f 74/94/88 73/92/86 89/103/95
f 74/94/88 90/104/96 91/108/98
f 67/96/89 83/106/97 84/109/99
f 75/98/90 91/108/98 92/110/100
f 68/99/91 84/109/99 85/111/101
f 77/85/79 76/84/78 92/110/100
f 69/100/92 85/111/101 86/113/103
f 77/85/79 93/112/102 94/114/104
f 71/88/82 70/86/80 86/113/103
f 79/89/83 78/87/81 94/114/104
f 71/88/82 87/115/105 88/117/107
f 80/91/85 79/89/83 95/116/106
f 73/92/86 72/90/84 88/117/107
f 85/111/101 100/133/121 101/118/108
f 93/112/102 108/134/122 109/119/109
f 87/115/105 86/113/103 101/118/108
f 95/116/106 94/114/104 109/119/109
f 87/115/105 102/120/110 103/122/112
f 95/116/106 110/121/111 111/123/113
f 89/103/95 88/117/107 103/122/112
f 96/101/93 111/123/113 112/125/115
f 90/104/96 89/103/95 104/124/114
f 90/104/96 105/126/116 106/130/118
f 84/109/99 83/106/97 98/128/117
f 91/108/98 106/130/118 107/132/120
f 85/111/101 84/109/99 99/131/119
f 93/112/102 92/110/100 107/132/120
f 105/126/116 104/124/114 119/135/123
f 105/126/116 120/136/124 121/141/127
f 99/131/119 98/128/117 113/138/125
f 106/130/118 121/141/127 122/143/129
f 100/133/121 99/131/119 114/142/128
f 108/134/122 107/132/120 122/143/129
f 100/133/121 115/144/130 116/146/132
f 108/134/122 123/145/131 124/147/133
f 102/120/110 101/118/108 116/146/132
f 110/121/111 109/119/109 124/147/133
f 102/120/110 117/148/134 118/150/136
f 110/121/111 125/149/135 126/151/137
f 104/124/114 103/122/112 118/150/136
f 111/123/113 126/151/137 127/140/126
f 123/145/131 138/168/152 139/152/138
f 117/148/134 116/146/132 131/153/139
f 125/149/135 124/147/133 139/152/138
f 117/148/134 132/154/140 133/156/142
f 126/151/137 125/149/135 140/155/141
f 119/135/123 118/150/136 133/156/142
f 127/140/126 126/151/137 141/157/143
f 120/136/124 119/135/123 134/158/144
f 120/136/124 135/160/146 136/164/148
f 113/138/125 128/162/147 129/165/149
f 121/141/127 136/164/148 137/166/150
f 114/142/128 129/165/149 130/167/151
f 123/145/131 122/143/129 137/166/150
f 115/144/130 130/167/151 131/153/139
f 135/160/146 150/185/167 151/173/155
f 128/162/147 143/170/153 144/174/156
f 136/164/148 151/173/155 152/175/157
f 129/165/149 144/174/156 145/176/158
f 138/168/152 137/166/150 152/175/157
f 130/167/151 145/176/158 146/178/160
f 138/168/152 153/177/159 154/179/161
f 132/154/140 131/153/139 146/178/160
f 140/155/141 139/152/138 154/179/161
f 132/154/140 147/180/162 148/182/164
f 141/157/143 140/155/141 155/181/163
f 134/158/144 133/156/142 148/182/164
f 142/159/145 141/157/143 156/183/165
f 135/160/146 134/158/144 149/184/166
f 147/180/162 146/178/160 161/186/168
f 155/181/163 154/179/161 169/188/170
f 147/180/162 162/187/169 163/190/172
f 155/181/163 170/189/171 171/191/173
f 149/184/166 148/182/164 163/190/172
f 156/183/165 171/191/173 172/193/175
f 150/185/167 149/184/166 164/192/174
f 150/185/167 165/194/176 166/198/178
f 143/170/153 158/196/177 159/199/179
f 151/173/155 166/198/178 167/200/180
f 145/176/158 144/174/156 159/199/179
f 153/177/159 152/175/157 167/200/180
f 145/176/158 160/201/181 161/186/168
f 153/177/159 168/202/182 169/188/170
f 165/194/176 180/216/196 181/203/183
f 158/196/177 173/218/197 174/204/184
f 166/198/178 181/203/183 182/205/185
f 159/199/179 174/204/184 175/206/186
f 168/202/182 167/200/180 182/205/185
f 160/201/181 175/206/186 176/208/188
f 168/202/182 183/207/187 184/209/189
f 162/187/169 161/186/168 176/208/188
f 170/189/171 169/188/170 184/209/189
f 162/187/169 177/210/190 178/212/192
f 171/191/173 170/189/171 185/211/191
f 164/192/174 163/190/172 178/212/192
f 172/193/175 171/191/173 186/213/193
f 165/194/176 164/192/174 179/214/194
f 185/211/191 184/209/189 199/220/198
f 177/210/190 192/236/212 193/222/200
f 185/211/191 200/221/199 201/223/201
f 179/214/194 178/212/192 193/222/200
f 186/213/193 201/223/201 202/225/203
f 180/216/196 179/214/194 194/224/202
f 180/216/196 195/226/204 196/230/206
f 174/204/184 173/218/197 188/228/205
f 181/203/183 196/230/206 197/232/208
f 175/206/186 174/204/184 189/231/207
f 183/207/187 182/205/185 197/232/208
f 175/206/186 190/233/209 191/235/211
f 183/207/187 198/234/210 199/220/198
f 177/210/190 176/208/188 191/235/211
f 196/230/206 211/252/226 212/237/213
f 189/231/207 204/253/227 205/238/214
f 198/234/210 197/232/208 212/237/213
f 190/233/209 205/238/214 206/240/216
f 198/234/210 213/239/215 214/241/217
f 192/236/212 191/235/211 206/240/216
f 200/221/199 199/220/198 214/241/217
f 192/236/212 207/242/218 208/244/220
f 201/223/201 200/221/199 215/243/219
f 194/224/202 193/222/200 208/244/220
f 202/225/203 201/223/201 216/245/221
f 195/226/204 194/224/202 209/246/222
f 195/226/204 210/248/224 211/252/226
f 188/228/205 203/250/225 204/253/227
f 216/245/221 215/243/219 230/254/228
f 209/246/222 208/244/220 223/256/230
f 217/247/223 216/245/221 231/255/229
f 210/248/224 209/246/222 224/257/231
f 210/248/224 225/259/233 226/263/235
f 203/250/225 218/261/234 219/264/236
f 211/252/226 226/263/235 227/265/237
f 204/253/227 219/264/236 220/266/238
f 213/239/215 212/237/213 227/265/237
f 205/238/214 220/266/238 221/268/240
f 213/239/215 228/267/239 229/269/241
f 207/242/218 206/240/216 221/268/240
f 215/243/219 214/241/217 229/269/241
f 207/242/218 222/270/242 223/256/230
f 219/264/236 234/287/257 235/271/243
f 228/267/239 227/265/237 242/272/244
f 220/266/238 235/271/243 236/274/246
f 228/267/239 243/273/245 244/275/247
f 222/270/242 221/268/240 236/274/246
f 230/254/228 229/269/241 244/275/247
f 222/270/242 237/276/248 238/278/250
f 231/255/229 230/254/228 245/277/249
f 224/257/231 223/256/230 238/278/250
f 231/255/229 246/279/251 247/281/253
f 225/259/233 224/257/231 239/280/252
f 225/259/233 240/282/254 241/286/256
f 219/264/236 218/261/234 233/284/255
f 226/263/235 241/286/256 242/272/244
f 239/280/252 238/278/250 253/288/258
f 246/279/251 261/304/272 262/290/260
f 240/282/254 239/280/252 254/289/259
f 240/282/254 255/291/261 256/295/263
f 234/287/257 233/284/255 248/293/262
f 241/286/256 256/295/263 257/297/265
f 235/271/243 234/287/257 249/296/264
f 243/273/245 242/272/244 257/297/265
f 235/271/243 250/298/266 251/300/268
f 243/273/245 258/299/267 259/301/269
f 237/276/248 236/274/246 251/300/268
f 245/277/249 244/275/247 259/301/269
f 237/276/248 252/302/270 253/288/258
f 245/277/249 260/303/271 261/304/272
f 258/299/267 257/297/265 272/305/273
f 250/298/266 265/321/287 266/307/275
f 258/299/267 273/306/274 274/308/276
f 252/302/270 251/300/268 266/307/275
f 260/303/271 259/301/269 274/308/276
f 252/302/270 267/309/277 268/311/279
f 260/303/271 275/310/278 276/312/280
f 254/289/259 253/288/258 268/311/279
f 261/304/272 276/312/280 277/314/282
f 255/291/261 254/289/259 269/313/281
f 255/291/261 270/315/283 271/319/285
f 248/293/262 263/317/284 264/320/286
f 256/295/263 271/319/285 272/305/273
f 249/296/264 264/320/286 265/321/287
f 277/314/282 276/312/280 291/322/288
f 270/315/283 269/313/281 284/324/290
f 270/315/283 285/325/291 286/329/293
f 263/317/284 278/327/292 279/330/294
f 271/319/285 286/329/293 287/331/295
f 265/321/287 264/320/286 279/330/294
f 273/306/274 272/305/273 287/331/295
f 265/321/287 280/332/296 281/334/298
f 273/306/274 288/333/297 289/335/299
f 266/307/275 281/334/298 282/336/300
f 275/310/278 274/308/276 289/335/299
f 267/309/277 282/336/300 283/338/302
f 275/310/278 290/337/301 291/322/288
f 269/313/281 268/311/279 283/338/302
f 280/332/296 295/354/316 296/339/303
f 288/333/297 303/355/317 304/340/304
f 282/336/300 281/334/298 296/339/303
f 290/337/301 289/335/299 304/340/304
f 282/336/300 297/341/305 298/343/307
f 290/337/301 305/342/306 306/344/308
f 284/324/290 283/338/302 298/343/307
f 292/323/289 291/322/288 306/344/308
f 285/325/291 284/324/290 299/345/309
f 285/325/291 300/347/311 301/351/313
f 278/327/292 293/349/312 294/352/314
f 286/329/293 301/351/313 302/353/315
f 279/330/294 294/352/314 295/354/316
f 288/333/297 287/331/295 302/353/315
f 300/347/311 299/345/309 315/356/318
f 300/347/311 316/357/319 317/362/322
f 293/349/312 309/359/320 310/363/323
f 301/351/313 317/362/322 318/364/324
f 295/354/316 294/352/314 310/363/323
f 303/355/317 302/353/315 318/364/324
f 295/354/316 311/365/325 312/367/327
f 303/355/317 319/366/326 320/368/328
f 297/341/305 296/339/303 312/367/327
f 305/342/306 304/340/304 320/368/328
f 297/341/305 313/369/329 314/371/331
f 305/342/306 321/370/330 322/372/332
f 299/345/309 298/343/307 314/371/331
f 307/346/310 306/344/308 322/372/332
f 319/366/326 334/389/347 335/373/333
f 313/369/329 312/367/327 327/374/334
f 321/370/330 320/368/328 335/373/333
f 313/369/329 328/375/335 329/377/337
f 321/370/330 336/376/336 337/378/338
f 315/356/318 314/371/331 329/377/337
f 323/361/321 322/372/332 337/378/338
f 316/357/319 315/356/318 330/379/339
f 316/357/319 331/381/341 332/385/343
f 309/359/320 324/383/342 325/386/344
f 317/362/322 332/385/343 333/387/345
f 311/365/325 310/363/323 325/386/344
f 319/366/326 318/364/324 333/387/345
f 311/365/325 326/388/346 327/374/334
f 331/381/341 346/404/361 347/392/349
f 324/383/342 339/406/362 340/393/350
f 332/385/343 347/392/349 348/394/351
f 326/388/346 325/386/344 340/393/350
f 334/389/347 333/387/345 348/394/351
f 326/388/346 341/395/352 342/397/354
f 334/389/347 349/396/353 350/398/355
f 328/375/335 327/374/334 342/397/354
f 336/376/336 335/373/333 350/398/355
f 328/375/335 343/399/356 344/401/358
f 336/376/336 351/400/357 352/402/359
f 330/379/339 329/377/337 344/401/358
f 338/380/340 337/378/338 352/402/359
f 331/381/341 330/379/339 345/403/360
f 351/400/357 350/398/355 365/407/363
f 343/399/356 358/423/377 359/409/365
f 351/400/357 366/408/364 367/410/366
f 345/403/360 344/401/358 359/409/365
f 352/402/359 367/410/366 368/412/368
f 346/404/361 345/403/360 360/411/367
f 346/404/361 361/413/369 362/417/371
f 340/393/350 339/406/362 354/415/370
f 347/392/349 362/417/371 363/419/373
f 341/395/352 340/393/350 355/418/372
f 349/396/353 348/394/351 363/419/373
f 341/395/352 356/420/374 357/422/376
f 349/396/353 364/421/375 365/407/363
f 343/399/356 342/397/354 357/422/376
f 354/424/370 369/453/391 370/425/378
f 362/427/371 377/455/392 378/428/379
f 356/430/374 355/426/372 370/425/378
f 364/432/375 363/429/373 378/428/379
f 356/430/374 371/431/380 372/434/382
f 364/432/375 379/433/381 380/436/383
f 358/438/377 357/435/376 372/434/382
f 366/440/364 365/437/363 380/436/383
f 358/438/377 373/439/384 374/442/386
f 366/440/364 381/441/385 382/444/387
f 360/446/367 359/443/365 374/442/386
f 368/448/368 367/445/366 382/444/387
f 361/450/369 360/446/367 375/447/388
f 361/450/369 376/451/390 377/455/392
f 373/439/384 388/471/406 389/456/393
f 381/441/385 396/472/407 397/457/394
f 375/447/388 374/442/386 389/456/393
f 382/444/387 397/457/394 398/459/396
f 376/451/390 375/447/388 390/458/395
f 376/451/390 391/460/397 392/464/399
f 370/425/378 369/453/391 384/462/398
f 377/455/392 392/464/399 393/466/401
f 371/431/380 370/425/378 385/465/400
f 379/433/381 378/428/379 393/466/401
f 371/431/380 386/467/402 387/469/404
f 379/433/381 394/468/403 395/470/405
f 373/439/384 372/434/382 387/469/404
f 381/441/385 380/436/383 395/470/405
f 392/464/399 407/488/421 408/473/408
f 385/465/400 400/489/422 401/474/409
f 394/468/403 393/466/401 408/473/408
f 386/467/402 401/474/409 402/476/411
f 394/468/403 409/475/410 410/477/412
f 388/471/406 387/469/404 402/476/411
f 396/472/407 395/470/405 410/477/412
f 388/471/406 403/478/413 404/480/415
f 397/457/394 396/472/407 411/479/414
f 390/458/395 389/456/393 404/480/415
f 398/459/396 397/457/394 412/481/416
f 391/460/397 390/458/395 405/482/417
f 391/460/397 406/484/419 407/488/421
f 384/462/398 399/486/420 400/489/422
f 411/479/414 426/506/437 427/490/423
f 405/482/417 404/480/415 419/491/424
f 413/483/418 412/481/416 427/490/423
f 406/484/419 405/482/417 420/492/425
f 406/484/419 421/494/427 422/498/429
f 399/486/420 414/496/428 415/499/430
f 407/488/421 422/498/429 423/500/431
f 401/474/409 400/489/422 415/499/430
f 409/475/410 408/473/408 423/500/431
f 401/474/409 416/501/432 417/503/434
f 409/475/410 424/502/433 425/504/435
f 403/478/413 402/476/411 417/503/434
f 411/479/414 410/477/412 425/504/435
f 403/478/413 418/505/436 419/491/424
f 416/501/432 415/499/430 430/507/438
f 424/502/433 423/500/431 438/509/440
f 416/501/432 431/508/439 432/511/442
f 424/502/433 439/510/441 440/512/443
f 418/505/436 417/503/434 432/511/442
f 426/506/437 425/504/435 440/512/443
f 418/505/436 433/513/444 434/515/446
f 426/506/437 441/514/445 442/516/447
f 420/492/425 419/491/424 434/515/446
f 427/490/423 442/516/447 443/518/449
f 421/494/427 420/492/425 435/517/448
f 421/494/427 436/519/450 437/523/452
f 415/499/430 414/496/428 429/521/451
f 422/498/429 437/523/452 438/509/440
f 435/517/448 434/515/446 449/524/453
f 442/516/447 457/540/467 458/526/455
f 436/519/450 435/517/448 450/525/454
f 436/519/450 451/527/456 452/531/458
f 430/507/438 429/521/451 444/529/457
f 437/523/452 452/531/458 453/533/460
f 431/508/439 430/507/438 445/532/459
f 439/510/441 438/509/440 453/533/460
f 431/508/439 446/534/461 447/536/463
f 439/510/441 454/535/462 455/537/464
f 433/513/444 432/511/442 447/536/463
f 441/514/445 440/512/443 455/537/464
f 433/513/444 448/538/465 449/524/453
f 441/514/445 456/539/466 457/540/467
f 454/535/462 453/533/460 468/541/468
f 446/534/461 461/557/482 462/543/470
f 454/535/462 469/542/469 470/544/471
f 448/538/465 447/536/463 462/543/470
f 456/539/466 455/537/464 470/544/471
f 448/538/465 463/545/472 464/547/474
f 456/539/466 471/546/473 472/548/475
f 450/525/454 449/524/453 464/547/474
f 458/526/455 457/540/467 472/548/475
f 451/527/456 450/525/454 465/549/476
f 451/527/456 466/551/478 467/555/480
f 444/529/457 459/553/479 460/556/481
f 452/531/458 467/555/480 468/541/468
f 446/534/461 445/532/459 460/556/481
f 472/548/475 481/1/1 482/3/3
f 466/551/478 465/549/476 3/4/4
f 466/551/478 4/6/6 5/11/11
f 460/556/481 459/553/479 474/7/7
f 467/555/480 5/11/11 478/16/16
f 461/557/482 460/556/481 475/13/13
f 468/541/468 478/16/16 6/20/20
f 462/543/470 461/557/482 1/17/17
f 469/542/469 6/20/20 479/24/24
f 463/545/472 462/543/470 476/21/21
f 471/546/473 470/544/471 479/24/24
f 464/547/474 463/545/472 2/25/25
f 471/546/473 480/28/28 481/1/1
f 465/549/476 464/547/474 477/29/29
s 0
f 483/560/369 486/560/369 485/560/369
f 486/560/6 489/560/6 485/560/6
f 490/560/124 487/560/124 489/560/124
f 488/560/254 483/560/254 487/560/254
f 489/560/10 483/560/10 485/560/10
f 486/560/8 488/560/8 490/560/8
f 492/560/369 493/560/369 491/560/369
f 494/560/6 497/560/6 493/560/6
f 497/560/124 496/560/124 495/560/124
f 496/560/254 491/560/254 495/560/254
f 497/560/10 491/560/10 493/560/10
f 494/560/8 496/560/8 498/560/8
f 499/560/369 502/560/369 501/560/369
f 502/560/6 505/560/6 501/560/6
f 506/560/124 503/560/124 505/560/124
f 504/560/254 499/560/254 503/560/254
f 505/560/10 499/560/10 501/560/10
f 502/560/8 504/560/8 506/560/8
f 483/560/369 484/560/369 486/560/369
f 486/560/6 490/560/6 489/560/6
f 490/560/124 488/560/124 487/560/124
f 488/560/254 484/560/254 483/560/254
f 489/560/10 487/560/10 483/560/10
f 486/560/8 484/560/8 488/560/8
f 492/560/369 494/560/369 493/560/369
f 494/560/6 498/560/6 497/560/6
f 497/560/124 498/560/124 496/560/124
f 496/560/254 492/560/254 491/560/254
f 497/560/10 495/560/10 491/560/10
f 494/560/8 492/560/8 496/560/8
f 499/560/369 500/560/369 502/560/369
f 502/560/6 506/560/6 505/560/6
f 506/560/124 504/560/124 503/560/124
f 504/560/254 500/560/254 499/560/254
f 505/560/10 503/560/10 499/560/10
f 502/560/8 500/560/8 504/560/8
