# Blender 4.1.1
# www.blender.org
mtllib zimenn.mtl
o 立方体
v -1524.227905 -0.205202 957.166138
v -1524.227905 -0.149340 957.166138
v -1524.227905 -0.205202 -957.166138
v -1524.227905 -0.149340 -957.166138
v 1524.227905 -0.205202 957.166138
v 1524.227905 -0.149340 957.166138
v 1524.227905 -0.205202 -957.166138
v 1524.227905 -0.149340 -957.166138
v 0.000000 864.212769 -8657.815430
v 0.000000 577.389038 -12957.333984
v 0.000000 202.635818 -15284.208984
v 0.000000 -0.178991 -15583.645508
v 0.000000 -202.993790 -15284.208984
v 0.000000 -577.746216 -12957.322266
v -829.567566 1019.441162 -2981.809326
v -1627.255859 960.282166 -5849.021484
v -2362.409180 864.212769 -8491.458008
v -3006.776367 734.925720 -10807.575195
v -3535.594971 577.389038 -12708.362305
v -3928.541992 397.656769 -14120.770508
v -4170.518555 202.635849 -14990.527344
v -4252.224121 -0.178967 -15284.208984
v -4170.518555 -202.993774 -14990.527344
v -3928.541992 -398.014282 -14120.768555
v -3535.594971 -577.746216 -12708.349609
v -3006.776367 -735.282532 -10807.563477
v -2362.409180 -864.569275 -8491.446289
v -1627.255859 -960.637573 -5849.008789
v -829.567566 -1019.796082 -2981.793457
v -1627.255615 1019.441162 -2808.803711
v -3191.976562 960.282166 -5509.657715
v -4634.032227 864.212769 -7998.777832
v -5898.003906 734.925781 -10180.512695
v -6935.318848 577.389099 -11971.014648
v -7706.112305 397.656860 -13301.475586
v -8180.766113 202.635941 -14120.768555
v -8341.037109 -0.178868 -14397.411133
v -8180.766113 -202.993652 -14120.768555
v -7706.112305 -398.014221 -13301.471680
v -6935.318848 -577.746155 -11971.001953
v -5898.003906 -735.282471 -10180.500977
v -4634.032227 -864.569275 -7998.766602
v -3191.976562 -960.637573 -5509.644531
v -1627.255615 -1019.796082 -2808.787109
v -2362.408691 1019.441162 -2527.857178
v -4634.032227 960.282288 -4958.561523
v -6727.571289 864.212769 -7198.710449
v -8562.574219 734.925842 -9162.220703
v -10068.521484 577.389160 -10773.627930
v -11187.541016 397.656982 -11971.010742
v -11876.630859 202.636124 -12708.356445
v -12109.309570 -0.178709 -12957.325195
v -11876.630859 -202.993484 -12708.356445
v -11187.541016 -398.014130 -11971.008789
v -10068.521484 -577.746094 -10773.617188
v -8562.574219 -735.282410 -9162.206055
v -6727.571289 -864.569336 -7198.698730
v -4634.032227 -960.637451 -4958.547852
v -2362.408691 -1019.796082 -2527.840820
v -3006.776123 1019.441284 -2149.766846
v -5898.003906 960.282288 -4216.910645
v -8562.574219 864.212952 -6122.000977
v -10898.089844 734.925842 -7791.830078
v -12814.794922 577.389282 -9162.218750
v -14239.041016 397.656982 -10180.507812
v -15116.084961 202.636292 -10807.568359
v -15412.227539 -0.178494 -11019.298828
v -15116.084961 -202.993286 -10807.568359
v -14239.041016 -398.013977 -10180.505859
v -12814.794922 -577.745972 -9162.205078
v -10898.089844 -735.282532 -7791.816406
v -8562.574219 -864.569092 -6121.988281
v -5898.003906 -960.637451 -4216.897461
v -3006.776123 -1019.795959 -2149.750732
v -3535.594482 1019.441284 -1689.062500
v -6935.318848 960.282410 -3313.207764
v -10068.521484 864.213318 -4810.026855
v -12814.797852 734.926147 -6122.002930
v -15068.606445 577.389404 -7198.706543
v -16743.339844 397.657440 -7998.775879
v -17774.634766 202.636551 -8491.450195
v -18122.859375 -0.178233 -8657.804688
v -17774.634766 -202.993042 -8491.450195
v -16743.339844 -398.013611 -7998.770996
v -15068.606445 -577.745850 -7198.699707
v -12814.797852 -735.282166 -6121.989258
v -10068.521484 -864.568604 -4810.013672
v -6935.318848 -960.637329 -3313.192627
v -3535.594482 -1019.795959 -1689.046509
v 0.000000 1039.416992 -0.008218
v -3928.541748 1019.441284 -1163.448853
v -7706.112305 960.282410 -2282.179443
v -11187.541016 864.213440 -3313.206299
v -14239.041016 734.926636 -4216.910645
v -16743.339844 577.390076 -4958.555664
v -18604.201172 397.657623 -5509.654785
v -19750.115234 202.636871 -5849.015625
v -20137.042969 -0.177930 -5963.599609
v -19750.115234 -202.992737 -5849.009766
v -18604.201172 -398.013428 -5509.648438
v -16743.339844 -577.745300 -4958.548828
v -14239.041016 -735.281799 -4216.897949
v -11187.541016 -864.568481 -3313.192871
v -7706.112305 -960.637329 -2282.164062
v -3928.541748 -1019.795959 -1163.432983
v -4170.517578 1019.441345 -593.125061
v -8180.766113 960.282532 -1163.448853
v -11876.629883 864.213623 -1689.061157
v -15116.084961 734.926819 -2149.765625
v -17774.632812 577.390320 -2527.852783
v -19750.115234 397.657990 -2808.799072
v -20966.609375 202.637177 -2981.801514
v -21377.367188 -0.177611 -3040.215332
v -20966.609375 -202.992386 -2981.798340
v -19750.115234 -398.013031 -2808.792969
v -17774.632812 -577.745117 -2527.842773
v -15116.084961 -735.281616 -2149.753418
v -11876.629883 -864.568298 -1689.046631
v -8180.766113 -960.637207 -1163.432861
v -4170.517578 -1019.795837 -593.108643
v -4252.222168 1019.441345 -0.008052
v -8341.037109 960.282654 -0.007343
v -12109.307617 864.213745 -0.006151
v -15412.224609 734.926941 -0.006082
v -18122.857422 577.390442 -0.003281
v -20137.042969 397.658234 -0.003808
v -21377.369141 202.637512 -0.000285
v -21796.173828 -0.177271 0.002458
v -21377.369141 -202.992065 0.003058
v -20137.042969 -398.012787 0.002548
v -18122.857422 -577.744934 0.006055
v -15412.224609 -735.281433 0.005797
v -12109.307617 -864.568237 0.007740
v -8341.037109 -960.637146 0.008002
v -4252.222168 -1019.795837 0.008367
v -4170.516602 1019.441345 593.108948
v -8180.766113 960.282715 1163.433350
v -11876.627930 864.213806 1689.048096
v -15116.084961 734.927124 2149.752441
v -17774.630859 577.390625 2527.845459
v -19750.115234 397.658478 2808.791748
v -20966.609375 202.637833 2981.801025
v -21377.363281 -0.176932 3040.219971
v -20966.609375 -202.991730 2981.804199
v -19750.115234 -398.012543 2808.798096
v -17774.630859 -577.744812 2527.854980
v -15116.084961 -735.281311 2149.764404
v -11876.627930 -864.568115 1689.062500
v -8180.766113 -960.637024 1163.449585
v -4170.516602 -1019.795837 593.125183
v -3928.541016 1019.441467 1163.432983
v -7706.112305 960.282837 2282.164551
v -11187.540039 864.213989 3313.194092
v -14239.041016 734.927307 4216.896973
v -16743.333984 577.390808 4958.551758
v -18604.201172 397.658875 5509.646484
v -19750.111328 202.638184 5849.012207
v -20137.035156 -0.176613 5963.603516
v -19750.111328 -202.991425 5849.017578
v -18604.201172 -398.012177 5509.652832
v -16743.333984 -577.744568 4958.558105
v -14239.041016 -735.281128 4216.910156
v -11187.540039 -864.567932 3313.207275
v -7706.112305 -960.636902 2282.179932
v -3928.541016 -1019.795776 1163.449097
v -3535.592773 1019.441467 1689.046265
v -6935.317871 960.282837 3313.192871
v -10068.518555 864.214111 4810.014160
v -12814.794922 734.927673 6121.987793
v -15068.603516 577.391357 7198.700684
v -16743.339844 397.659058 7998.769531
v -17774.630859 202.638489 8491.451172
v -18122.849609 -0.176310 8657.808594
v -17774.630859 -202.991104 8491.451172
v -16743.339844 -398.011993 7998.772949
v -15068.603516 -577.743896 7198.707520
v -12814.794922 -735.280640 6122.000977
v -10068.518555 -864.567810 4810.026855
v -6935.317871 -960.636902 3313.207764
v -3535.592773 -1019.795776 1689.062256
v -3006.774414 1019.441467 2149.749756
v -5898.001465 960.282959 4216.897461
v -8562.569336 864.214600 6121.988281
v -10898.088867 734.928040 7791.815430
v -12814.791992 577.391479 9162.205078
v -14239.041016 397.659424 10180.502930
v -15116.080078 202.638733 10807.568359
v -15412.213867 -0.176048 11019.298828
v -15116.080078 -202.990845 10807.568359
v -14239.041016 -398.011536 10180.506836
v -12814.791992 -577.743774 9162.218750
v -10898.088867 -735.280334 7791.828125
v -8562.569336 -864.567444 6122.000977
v -5898.001465 -960.636780 4216.910645
v -3006.774414 -1019.795776 2149.766113
v -2362.407715 1019.441589 2527.839844
v -4634.029785 960.282959 4958.547852
v -6727.566895 864.214844 7198.697754
v -8562.573242 734.927917 9162.206055
v -10068.517578 577.391602 10773.617188
v -11187.541016 397.659576 11971.005859
v -11876.626953 202.638931 12708.354492
v -12109.296875 -0.175834 12957.325195
v -11876.626953 -202.990677 12708.354492
v -11187.541016 -398.011536 11971.009766
v -10068.517578 -577.743652 10773.627930
v -8562.573242 -735.280334 9162.219727
v -6727.566895 -864.567261 7198.710449
v -4634.029785 -960.636780 4958.561035
v -2362.407715 -1019.795654 2527.856445
v -1627.254517 1019.441589 2808.785645
v -3191.974609 960.283081 5509.643066
v -4634.027832 864.214783 7998.764648
v -5898.002441 734.927979 10180.499023
v -6935.314453 577.391663 11971.000000
v -7706.112305 397.659668 13301.469727
v -8180.761719 202.639099 14120.765625
v -8341.026367 -0.175674 14397.405273
v -8180.761719 -202.990494 14120.765625
v -7706.112305 -398.011414 13301.472656
v -6935.314453 -577.743591 11971.011719
v -5898.002441 -735.280273 10180.511719
v -4634.027832 -864.567261 7998.776855
v -3191.974609 -960.636658 5509.655762
v -1627.254517 -1019.795654 2808.802246
v -829.566956 1019.441589 2981.791504
v -1627.253906 960.283081 5849.005859
v -2362.405518 864.214783 8491.442383
v -3006.775635 734.928040 10807.561523
v -3535.591309 577.391724 12708.345703
v -3928.541992 397.659729 14120.765625
v -4170.513672 202.639221 14990.523438
v -4252.214844 -0.175575 15284.203125
v -4170.513672 -202.990402 14990.523438
v -3928.541992 -398.011322 14120.767578
v -3535.591309 -577.743530 12708.358398
v -3006.775635 -735.280212 10807.573242
v -2362.405518 -864.567261 8491.455078
v -1627.253906 -960.636658 5849.018555
v -829.566956 -1019.795654 2981.807617
v 0.000252 1019.441589 3040.208496
v 0.001111 960.283081 5963.595215
v 0.002180 864.214783 8657.798828
v 0.000252 734.928040 11019.292969
v 0.002180 577.391724 12957.316406
v -0.000671 397.659760 14397.405273
v 0.002851 202.639236 15284.205078
v 0.007233 -0.175552 15583.634766
v 0.002851 -202.990372 15284.205078
v -0.000671 -398.011292 14397.407227
v 0.002180 -577.743530 12957.329102
v 0.000252 -735.280212 11019.305664
v 0.002180 -864.567261 8657.811523
v 0.001111 -960.636658 5963.608398
v 0.000252 -1019.795654 3040.224609
v 829.567139 1019.441589 2981.791260
v 1627.255859 960.283081 5849.005859
v 2362.409912 864.214783 8491.442383
v 3006.776123 734.928040 10807.560547
v 3535.595947 577.391724 12708.344727
v 3928.541016 397.659729 14120.763672
v 4170.520020 202.639221 14990.523438
v 4252.228027 -0.175575 15284.199219
v 4170.520020 -202.990402 14990.523438
v 3928.541016 -398.011322 14120.765625
v 3535.595947 -577.743530 12708.358398
v 3006.776123 -735.280212 10807.572266
v 2362.409912 -864.567261 8491.455078
v 1627.255859 -960.636658 5849.018555
v 829.567139 -1019.795654 2981.807617
v 1627.254517 1019.441589 2808.785645
v 3191.976562 960.283081 5509.643066
v 4634.031250 864.214783 7998.762207
v 5898.002441 734.927979 10180.498047
v 6935.318848 577.391663 11970.998047
v 7706.109863 397.659668 13301.467773
v 8180.766113 202.639099 14120.761719
v 8341.037109 -0.175674 14397.398438
v 8180.766113 -202.990494 14120.761719
v 7706.109863 -398.011414 13301.470703
v 6935.318848 -577.743591 11971.010742
v 5898.002441 -735.280273 10180.511719
v 4634.031250 -864.567261 7998.773926
v 3191.976562 -960.636658 5509.655762
v 1627.254517 -1019.795654 2808.802002
v 2362.407227 1019.441589 2527.839355
v 4634.031250 960.282959 4958.546875
v 6727.569336 864.214844 7198.693359
v 8562.573242 734.927917 9162.205078
v 10068.518555 577.391602 10773.612305
v 11187.537109 397.659576 11971.003906
v 11876.629883 202.638931 12708.350586
v 12109.307617 -0.175834 12957.313477
v 11876.629883 -202.990677 12708.350586
v 11187.537109 -398.011536 11971.007812
v 10068.518555 -577.743652 10773.625000
v 8562.573242 -735.280334 9162.218750
v 6727.569336 -864.567261 7198.706543
v 4634.031250 -960.636780 4958.559570
v 2362.407227 -1019.795654 2527.855469
v 3006.774170 1019.441467 2149.749023
v 5898.002441 960.282959 4216.895996
v 8562.570312 864.214600 6121.983887
v 10898.088867 734.928040 7791.814453
v 12814.793945 577.391479 9162.202148
v 14239.036133 397.659424 10180.501953
v 15116.080078 202.638733 10807.562500
v 15412.219727 -0.176048 11019.289062
v 15116.080078 -202.990845 10807.562500
v 14239.036133 -398.011536 10180.505859
v 12814.793945 -577.743774 9162.215820
v 10898.088867 -735.280334 7791.827637
v 8562.570312 -864.567444 6121.996582
v 5898.002441 -960.636780 4216.909180
v 3006.774170 -1019.795776 2149.765625
v 0.000000 -1039.771484 0.008218
v 3535.592285 1019.441467 1689.045410
v 6935.316406 960.282837 3313.191406
v 10068.517578 864.214111 4810.010254
v 12814.794922 734.927673 6121.987305
v 15068.603516 577.391357 7198.696289
v 16743.332031 397.659058 7998.768555
v 17774.630859 202.638489 8491.446289
v 18122.849609 -0.176310 8657.797852
v 17774.630859 -202.991104 8491.446289
v 16743.332031 -398.011993 7998.771973
v 15068.603516 -577.743896 7198.704102
v 12814.794922 -735.280640 6122.000977
v 10068.517578 -864.567810 4810.022461
v 6935.316406 -960.636902 3313.206055
v 3535.592285 -1019.795776 1689.061523
v 3928.539551 1019.441467 1163.432007
v 7706.110840 960.282837 2282.163330
v 11187.533203 864.213989 3313.188965
v 14239.038086 734.927307 4216.896484
v 16743.332031 577.390808 4958.545898
v 18604.197266 397.658875 5509.645996
v 19750.111328 202.638184 5849.005371
v 20137.031250 -0.176613 5963.591309
v 19750.111328 -202.991425 5849.010742
v 18604.197266 -398.012177 5509.652344
v 16743.332031 -577.744568 4958.552734
v 14239.038086 -735.281128 4216.910156
v 11187.533203 -864.567932 3313.202393
v 7706.110840 -960.636902 2282.178223
v 3928.539551 -1019.795776 1163.447876
v 4170.514648 1019.441345 593.108276
v 8180.762207 960.282715 1163.431885
v 11876.623047 864.213806 1689.044189
v 15116.080078 734.927124 2149.752197
v 17774.626953 577.390625 2527.840820
v 19750.107422 397.658478 2808.791504
v 20966.603516 202.637833 2981.794922
v 21377.357422 -0.176932 3040.208740
v 20966.603516 -202.991730 2981.798096
v 19750.107422 -398.012543 2808.797607
v 17774.626953 -577.744812 2527.850586
v 15116.080078 -735.281311 2149.763916
v 11876.623047 -864.568115 1689.058594
v 8180.762207 -960.637024 1163.447998
v 4170.514648 -1019.795837 593.124573
v 4252.219727 1019.441345 -0.008501
v 8341.032227 960.282654 -0.008482
v 12109.297852 864.213745 -0.009269
v 15412.222656 734.926941 -0.006396
v 18122.851562 577.390442 -0.007164
v 20137.037109 397.658234 -0.003328
v 21377.363281 202.637512 -0.005876
v 21796.158203 -0.177271 -0.007030
v 21377.363281 -202.992065 -0.002533
v 20137.037109 -398.012787 0.003043
v 18122.851562 -577.744934 0.002172
v 15412.222656 -735.281433 0.005452
v 12109.297852 -864.568237 0.004622
v 8341.032227 -960.637146 0.006923
v 4252.219727 -1019.795837 0.007887
v 4170.514648 1019.441345 -593.125183
v 8180.761719 960.282532 -1163.449585
v 11876.621094 864.213623 -1689.062866
v 15116.080078 734.926819 -2149.764893
v 17774.623047 577.390320 -2527.855713
v 19750.107422 397.657990 -2808.798096
v 20966.599609 202.637177 -2981.805664
v 21377.345703 -0.177611 -3040.222412
v 20966.599609 -202.992386 -2981.802734
v 19750.107422 -398.013031 -2808.791748
v 17774.623047 -577.745117 -2527.845947
v 15116.080078 -735.281616 -2149.752930
v 11876.621094 -864.568298 -1689.048584
v 8180.761719 -960.637207 -1163.433350
v 4170.514648 -1019.795837 -593.108826
v 3928.538818 1019.441284 -1163.448364
v 7706.109863 960.282410 -2282.179443
v 11187.530273 864.213440 -3313.206543
v 14239.036133 734.926636 -4216.910156
v 16743.328125 577.390076 -4958.557617
v 18604.193359 397.657623 -5509.651855
v 19750.105469 202.636871 -5849.017578
v 20137.019531 -0.177930 -5963.603516
v 19750.105469 -202.992737 -5849.012207
v 18604.193359 -398.013428 -5509.645508
v 16743.328125 -577.745300 -4958.550293
v 14239.036133 -735.281799 -4216.896973
v 11187.530273 -864.568481 -3313.193115
v 7706.109863 -960.637329 -2282.164062
v 3928.538818 -1019.795959 -1163.432495
v 3535.591309 1019.441284 -1689.061646
v 6935.314453 960.282410 -3313.207275
v 10068.509766 864.213318 -4810.025879
v 12814.793945 734.926147 -6122.000977
v 15068.597656 577.389404 -7198.706543
v 16743.332031 397.657440 -7998.771973
v 17774.623047 202.636551 -8491.451172
v 18122.835938 -0.178233 -8657.807617
v 17774.623047 -202.993042 -8491.451172
v 16743.332031 -398.013611 -7998.767578
v 15068.597656 -577.745850 -7198.699707
v 12814.793945 -735.282166 -6121.987793
v 10068.509766 -864.568604 -4810.013184
v 6935.314453 -960.637329 -3313.191895
v 3535.591309 -1019.795959 -1689.045654
v 3006.773193 1019.441284 -2149.765625
v 5898.000000 960.282288 -4216.909180
v 8562.562500 864.212952 -6121.998535
v 10898.085938 734.925842 -7791.827637
v 12814.787109 577.389282 -9162.216797
v 14239.032227 397.656982 -10180.503906
v 15116.073242 202.636292 -10807.565430
v 15412.202148 -0.178494 -11019.293945
v 15116.073242 -202.993286 -10807.565430
v 14239.032227 -398.013977 -10180.500000
v 12814.787109 -577.745972 -9162.204102
v 10898.085938 -735.282532 -7791.814453
v 8562.562500 -864.569092 -6121.986328
v 5898.000000 -960.637451 -4216.895996
v 3006.773193 -1019.795959 -2149.749023
v 2362.406250 1019.441162 -2527.854980
v 4634.028320 960.282288 -4958.559082
v 6727.561035 864.212769 -7198.706543
v 8562.570312 734.925842 -9162.218750
v 10068.511719 577.389160 -10773.625000
v 11187.537109 397.656982 -11971.005859
v 11876.619141 202.636124 -12708.350586
v 12109.287109 -0.178709 -12957.318359
v 11876.619141 -202.993484 -12708.350586
v 11187.537109 -398.014130 -11971.002930
v 10068.511719 -577.746094 -10773.612305
v 8562.570312 -735.282410 -9162.205078
v 6727.561035 -864.569336 -7198.694336
v 4634.028320 -960.637451 -4958.546387
v 2362.406250 -1019.796082 -2527.838867
v 1627.253418 1019.441162 -2808.801025
v 3191.973877 960.282166 -5509.655273
v 4634.022461 864.212769 -7998.770996
v 5898.000977 734.925781 -10180.511719
v 6935.308594 577.389099 -11971.008789
v 7706.107910 397.656860 -13301.469727
v 8180.755859 202.635941 -14120.761719
v 8341.018555 -0.178868 -14397.398438
v 8180.755859 -202.993652 -14120.761719
v 7706.107910 -398.014221 -13301.464844
v 6935.308594 -577.746155 -11970.997070
v 5898.000977 -735.282471 -10180.498047
v 4634.022461 -864.569275 -7998.759277
v 3191.973877 -960.637573 -5509.641602
v 1627.253418 -1019.796082 -2808.784424
v 829.566589 1019.441162 -2981.806152
v 1627.253418 960.282166 -5849.017578
v 2362.401367 864.212769 -8491.449219
v 3006.773438 734.925720 -10807.572266
v 3535.587158 577.389038 -12708.353516
v 3928.539551 397.656769 -14120.763672
v 4170.510254 202.635849 -14990.519531
v 4252.208496 -0.178967 -15284.192383
v 4170.510254 -202.993774 -14990.519531
v 3928.539551 -398.014282 -14120.761719
v 3535.587158 -577.746216 -12708.340820
v 3006.773438 -735.282532 -10807.560547
v 2362.401367 -864.569275 -8491.437500
v 1627.253418 -960.637573 -5849.004883
v 829.566589 -1019.796082 -2981.790039
v -0.000252 1019.441162 -3040.223145
v -0.001510 960.282166 -5963.606445
v -0.001950 734.925720 -11019.305664
v -0.001321 397.656738 -14397.404297
v -0.001321 -398.014313 -14397.402344
v -0.001950 -735.282532 -11019.292969
v -0.004801 -864.569275 -8657.792969
v -0.001510 -960.637573 -5963.593262
v -0.000252 -1019.796082 -3040.207031
vn -1.0000 -0.0000 -0.0000
vn -0.0000 -0.0000 -1.0000
vn 1.0000 -0.0000 -0.0000
vn -0.0000 -0.0000 1.0000
vn -0.0000 -1.0000 -0.0000
vn -0.0000 1.0000 -0.0000
vn 0.0038 0.9985 0.0547
vn 0.0087 -0.9923 0.1238
vn 0.0025 0.9994 0.0356
vn 0.0151 -0.9766 0.2148
vn 0.0014 0.9998 0.0202
vn 0.0395 -0.8273 0.5604
vn 0.0005 -1.0000 0.0066
vn 0.0005 1.0000 0.0066
vn 0.0395 0.8273 0.5604
vn 0.0014 -0.9998 0.0202
vn 0.0151 0.9766 0.2148
vn 0.0025 -0.9994 0.0356
vn 0.0087 0.9923 0.1238
vn 0.0038 -0.9985 0.0547
vn 0.0057 0.9967 0.0810
vn 0.0057 -0.9967 0.0810
vn 0.0169 0.9968 0.0779
vn 0.0169 -0.9968 0.0779
vn 0.0114 0.9986 0.0526
vn 0.0258 -0.9925 0.1191
vn 0.0074 0.9994 0.0343
vn 0.0448 -0.9774 0.2067
vn 0.0042 0.9998 0.0195
vn 0.1175 -0.8321 0.5420
vn 0.0014 -1.0000 0.0063
vn 0.0014 1.0000 0.0063
vn 0.1175 0.8321 0.5420
vn 0.0042 -0.9998 0.0195
vn 0.0448 0.9774 0.2067
vn 0.0074 -0.9994 0.0343
vn 0.0258 0.9925 0.1191
vn 0.0114 -0.9986 0.0526
vn 0.0022 -1.0000 0.0058
vn 0.0022 1.0000 0.0058
vn 0.1930 0.8413 0.5050
vn 0.0069 -0.9998 0.0179
vn 0.0729 0.9789 0.1908
vn 0.0121 -0.9994 0.0316
vn 0.0420 0.9931 0.1098
vn 0.0185 -0.9987 0.0485
vn 0.0274 0.9970 0.0718
vn 0.0274 -0.9970 0.0718
vn 0.0185 0.9987 0.0485
vn 0.0420 -0.9931 0.1098
vn 0.0121 0.9994 0.0316
vn 0.0729 -0.9789 0.1908
vn 0.0069 0.9998 0.0179
vn 0.1930 -0.8413 0.5050
vn 0.0369 -0.9973 0.0630
vn 0.0249 0.9988 0.0425
vn 0.0565 -0.9937 0.0963
vn 0.0162 0.9995 0.0277
vn 0.0983 -0.9809 0.1676
vn 0.0092 0.9998 0.0157
vn 0.2635 -0.8537 0.4491
vn 0.0030 -1.0000 0.0051
vn 0.0030 1.0000 0.0051
vn 0.2635 0.8537 0.4491
vn 0.0092 -0.9998 0.0157
vn 0.0983 0.9809 0.1676
vn 0.0162 -0.9995 0.0277
vn 0.0565 0.9937 0.0963
vn 0.0249 -0.9988 0.0425
vn 0.0369 0.9973 0.0630
vn 0.3264 0.8678 0.3747
vn 0.0112 -0.9999 0.0129
vn 0.1201 0.9832 0.1378
vn 0.0198 -0.9995 0.0227
vn 0.0689 0.9945 0.0791
vn 0.0304 -0.9989 0.0349
vn 0.0450 0.9976 0.0517
vn 0.0450 -0.9976 0.0517
vn 0.0304 0.9989 0.0349
vn 0.0689 -0.9945 0.0791
vn 0.0198 0.9995 0.0227
vn 0.1201 -0.9832 0.1378
vn 0.0112 0.9999 0.0129
vn 0.3264 -0.8678 0.3747
vn 0.0036 -1.0000 0.0042
vn 0.0036 1.0000 0.0042
vn 0.0347 0.9991 0.0259
vn 0.0787 -0.9952 0.0588
vn 0.0226 0.9996 0.0169
vn 0.1373 -0.9852 0.1026
vn 0.0128 0.9999 0.0096
vn 0.3783 -0.8814 0.2828
vn 0.0042 -1.0000 0.0031
vn 0.0042 1.0000 0.0031
vn 0.3783 0.8814 0.2828
vn 0.0128 -0.9999 0.0096
vn 0.1373 0.9852 0.1026
vn 0.0226 -0.9996 0.0169
vn 0.0787 0.9952 0.0588
vn 0.0347 -0.9991 0.0259
vn 0.0514 0.9979 0.0384
vn 0.0514 -0.9979 0.0384
vn 0.1492 0.9868 0.0633
vn 0.0245 -0.9996 0.0104
vn 0.0854 0.9957 0.0362
vn 0.0376 -0.9992 0.0160
vn 0.0558 0.9982 0.0237
vn 0.0558 -0.9982 0.0237
vn 0.0376 0.9992 0.0160
vn 0.0854 -0.9957 0.0362
vn 0.0245 0.9996 0.0104
vn 0.1492 -0.9868 0.0633
vn 0.0139 0.9999 0.0059
vn 0.4155 -0.8923 0.1763
vn 0.0045 -1.0000 0.0019
vn 0.0045 1.0000 0.0019
vn 0.4155 0.8923 0.1763
vn 0.0139 -0.9999 0.0059
vn 0.0255 0.9997 0.0035
vn 0.1553 -0.9876 0.0214
vn 0.0145 0.9999 0.0020
vn 0.4351 -0.8984 0.0599
vn 0.0047 -1.0000 0.0006
vn 0.0047 1.0000 0.0006
vn 0.4351 0.8984 0.0599
vn 0.0145 -0.9999 0.0020
vn 0.1553 0.9876 0.0214
vn 0.0255 -0.9997 0.0035
vn 0.0889 0.9960 0.0122
vn 0.0391 -0.9992 0.0054
vn 0.0580 0.9983 0.0080
vn 0.0580 -0.9983 0.0080
vn 0.0391 0.9992 0.0054
vn 0.0889 -0.9960 0.0122
vn 0.0255 -0.9997 -0.0035
vn 0.0889 0.9960 -0.0122
vn 0.0391 -0.9992 -0.0054
vn 0.0580 0.9983 -0.0080
vn 0.0580 -0.9983 -0.0080
vn 0.0391 0.9992 -0.0054
vn 0.0889 -0.9960 -0.0122
vn 0.0255 0.9997 -0.0035
vn 0.1553 -0.9876 -0.0214
vn 0.0145 0.9999 -0.0020
vn 0.4351 -0.8984 -0.0599
vn 0.0047 -1.0000 -0.0006
vn 0.0047 1.0000 -0.0006
vn 0.4351 0.8984 -0.0599
vn 0.0145 -0.9999 -0.0020
vn 0.1553 0.9876 -0.0214
vn 0.1492 -0.9868 -0.0633
vn 0.0139 0.9999 -0.0059
vn 0.4155 -0.8923 -0.1763
vn 0.0045 -1.0000 -0.0019
vn 0.0045 1.0000 -0.0019
vn 0.4155 0.8923 -0.1763
vn 0.0139 -0.9999 -0.0059
vn 0.1492 0.9868 -0.0633
vn 0.0245 -0.9996 -0.0104
vn 0.0854 0.9957 -0.0362
vn 0.0376 -0.9992 -0.0160
vn 0.0558 0.9982 -0.0237
vn 0.0558 -0.9982 -0.0237
vn 0.0376 0.9992 -0.0160
vn 0.0854 -0.9957 -0.0362
vn 0.0245 0.9996 -0.0104
vn 0.0787 0.9952 -0.0588
vn 0.0347 -0.9991 -0.0259
vn 0.0514 0.9979 -0.0384
vn 0.0514 -0.9979 -0.0384
vn 0.0347 0.9991 -0.0259
vn 0.0787 -0.9952 -0.0588
vn 0.0226 0.9996 -0.0169
vn 0.1373 -0.9852 -0.1026
vn 0.0128 0.9999 -0.0096
vn 0.3783 -0.8814 -0.2828
vn 0.0042 -1.0000 -0.0031
vn 0.0042 1.0000 -0.0031
vn 0.3783 0.8814 -0.2828
vn 0.0128 -0.9999 -0.0096
vn 0.1373 0.9852 -0.1026
vn 0.0226 -0.9996 -0.0169
vn 0.0112 0.9999 -0.0129
vn 0.3264 -0.8678 -0.3747
vn 0.0036 -1.0000 -0.0042
vn 0.0036 1.0000 -0.0042
vn 0.3264 0.8678 -0.3747
vn 0.0112 -0.9999 -0.0129
vn 0.1201 0.9832 -0.1378
vn 0.0198 -0.9995 -0.0227
vn 0.0689 0.9945 -0.0791
vn 0.0304 -0.9989 -0.0349
vn 0.0450 0.9976 -0.0517
vn 0.0450 -0.9976 -0.0517
vn 0.0304 0.9989 -0.0349
vn 0.0689 -0.9945 -0.0791
vn 0.0198 0.9995 -0.0227
vn 0.1201 -0.9832 -0.1378
vn 0.0249 -0.9988 -0.0425
vn 0.0369 0.9973 -0.0630
vn 0.0369 -0.9973 -0.0630
vn 0.0249 0.9988 -0.0425
vn 0.0565 -0.9937 -0.0963
vn 0.0162 0.9995 -0.0277
vn 0.0983 -0.9809 -0.1676
vn 0.0092 0.9998 -0.0157
vn 0.2635 -0.8537 -0.4492
vn 0.0030 -1.0000 -0.0051
vn 0.0030 1.0000 -0.0051
vn 0.2635 0.8537 -0.4492
vn 0.0092 -0.9998 -0.0157
vn 0.0983 0.9809 -0.1676
vn 0.0162 -0.9995 -0.0277
vn 0.0565 0.9937 -0.0963
vn 0.1930 -0.8413 -0.5050
vn 0.0022 -1.0000 -0.0058
vn 0.0022 1.0000 -0.0058
vn 0.1930 0.8413 -0.5050
vn 0.0069 -0.9998 -0.0179
vn 0.0729 0.9789 -0.1908
vn 0.0121 -0.9994 -0.0316
vn 0.0420 0.9931 -0.1098
vn 0.0185 -0.9987 -0.0485
vn 0.0274 0.9970 -0.0718
vn 0.0274 -0.9970 -0.0718
vn 0.0185 0.9987 -0.0485
vn 0.0420 -0.9931 -0.1098
vn 0.0121 0.9994 -0.0316
vn 0.0729 -0.9789 -0.1908
vn 0.0069 0.9998 -0.0179
vn 0.0169 0.9968 -0.0779
vn 0.0169 -0.9968 -0.0779
vn 0.0114 0.9986 -0.0526
vn 0.0258 -0.9925 -0.1191
vn 0.0074 0.9994 -0.0343
vn 0.0448 -0.9774 -0.2067
vn 0.0042 0.9998 -0.0195
vn 0.1175 -0.8321 -0.5420
vn 0.0014 -1.0000 -0.0063
vn 0.0014 1.0000 -0.0063
vn 0.1175 0.8321 -0.5420
vn 0.0042 -0.9998 -0.0195
vn 0.0448 0.9774 -0.2067
vn 0.0074 -0.9994 -0.0343
vn 0.0258 0.9925 -0.1191
vn 0.0114 -0.9986 -0.0526
vn 0.0005 1.0000 -0.0066
vn 0.0395 0.8273 -0.5604
vn 0.0014 -0.9998 -0.0202
vn 0.0151 0.9765 -0.2148
vn 0.0025 -0.9994 -0.0356
vn 0.0087 0.9923 -0.1238
vn 0.0038 -0.9985 -0.0547
vn 0.0057 0.9967 -0.0810
vn 0.0057 -0.9967 -0.0810
vn 0.0038 0.9985 -0.0547
vn 0.0087 -0.9923 -0.1238
vn 0.0025 0.9994 -0.0356
vn 0.0151 -0.9766 -0.2148
vn 0.0014 0.9998 -0.0202
vn 0.0395 -0.8273 -0.5604
vn 0.0005 -1.0000 -0.0066
vn -0.0038 0.9985 -0.0547
vn -0.0087 -0.9923 -0.1238
vn -0.0025 0.9994 -0.0356
vn -0.0151 -0.9766 -0.2148
vn -0.0014 0.9998 -0.0202
vn -0.0395 -0.8273 -0.5604
vn -0.0005 -1.0000 -0.0066
vn -0.0005 1.0000 -0.0066
vn -0.0395 0.8273 -0.5604
vn -0.0014 -0.9998 -0.0202
vn -0.0151 0.9765 -0.2148
vn -0.0025 -0.9994 -0.0356
vn -0.0087 0.9923 -0.1238
vn -0.0038 -0.9985 -0.0547
vn -0.0057 0.9967 -0.0810
vn -0.0057 -0.9967 -0.0810
vn -0.0042 -0.9998 -0.0195
vn -0.0448 0.9774 -0.2067
vn -0.0074 -0.9994 -0.0343
vn -0.0258 0.9925 -0.1191
vn -0.0114 -0.9986 -0.0526
vn -0.0169 0.9968 -0.0779
vn -0.0169 -0.9968 -0.0779
vn -0.0114 0.9986 -0.0526
vn -0.0258 -0.9925 -0.1191
vn -0.0074 0.9994 -0.0343
vn -0.0448 -0.9774 -0.2067
vn -0.0042 0.9998 -0.0195
vn -0.1175 -0.8321 -0.5420
vn -0.0014 -1.0000 -0.0063
vn -0.0014 1.0000 -0.0063
vn -0.1175 0.8321 -0.5420
vn -0.0420 -0.9931 -0.1098
vn -0.0121 0.9994 -0.0316
vn -0.0729 -0.9789 -0.1908
vn -0.0069 0.9998 -0.0179
vn -0.1930 -0.8413 -0.5050
vn -0.0022 -1.0000 -0.0058
vn -0.0022 1.0000 -0.0058
vn -0.1930 0.8413 -0.5050
vn -0.0069 -0.9998 -0.0179
vn -0.0729 0.9789 -0.1908
vn -0.0121 -0.9994 -0.0316
vn -0.0420 0.9931 -0.1098
vn -0.0185 -0.9987 -0.0485
vn -0.0274 0.9970 -0.0718
vn -0.0274 -0.9970 -0.0718
vn -0.0185 0.9987 -0.0485
vn -0.0983 0.9809 -0.1676
vn -0.0162 -0.9995 -0.0277
vn -0.0565 0.9937 -0.0963
vn -0.0249 -0.9988 -0.0425
vn -0.0369 0.9973 -0.0630
vn -0.0369 -0.9973 -0.0630
vn -0.0249 0.9988 -0.0425
vn -0.0565 -0.9937 -0.0963
vn -0.0162 0.9995 -0.0277
vn -0.0983 -0.9809 -0.1676
vn -0.0092 0.9998 -0.0157
vn -0.2635 -0.8537 -0.4492
vn -0.0030 -1.0000 -0.0051
vn -0.0030 1.0000 -0.0051
vn -0.2635 0.8537 -0.4492
vn -0.0092 -0.9998 -0.0157
vn -0.0198 0.9995 -0.0227
vn -0.1201 -0.9832 -0.1378
vn -0.0112 0.9999 -0.0129
vn -0.3264 -0.8678 -0.3747
vn -0.0036 -1.0000 -0.0042
vn -0.0036 1.0000 -0.0042
vn -0.3264 0.8678 -0.3747
vn -0.0112 -0.9999 -0.0129
vn -0.1201 0.9832 -0.1378
vn -0.0198 -0.9995 -0.0227
vn -0.0689 0.9945 -0.0791
vn -0.0304 -0.9989 -0.0349
vn -0.0450 0.9976 -0.0517
vn -0.0450 -0.9976 -0.0517
vn -0.0304 0.9989 -0.0349
vn -0.0689 -0.9945 -0.0791
vn -0.0226 -0.9996 -0.0169
vn -0.0787 0.9952 -0.0588
vn -0.0347 -0.9991 -0.0259
vn -0.0514 0.9979 -0.0384
vn -0.0514 -0.9979 -0.0384
vn -0.0347 0.9991 -0.0259
vn -0.0787 -0.9952 -0.0588
vn -0.0226 0.9996 -0.0169
vn -0.1373 -0.9852 -0.1026
vn -0.0128 0.9999 -0.0096
vn -0.3783 -0.8814 -0.2828
vn -0.0042 -1.0000 -0.0031
vn -0.0042 1.0000 -0.0031
vn -0.3783 0.8814 -0.2828
vn -0.0128 -0.9999 -0.0096
vn -0.1373 0.9852 -0.1026
vn -0.1492 -0.9868 -0.0633
vn -0.0139 0.9999 -0.0059
vn -0.4155 -0.8923 -0.1763
vn -0.0045 -1.0000 -0.0019
vn -0.0045 1.0000 -0.0019
vn -0.4155 0.8923 -0.1763
vn -0.0139 -0.9999 -0.0059
vn -0.1492 0.9868 -0.0633
vn -0.0245 -0.9996 -0.0104
vn -0.0854 0.9957 -0.0362
vn -0.0376 -0.9992 -0.0160
vn -0.0558 0.9982 -0.0237
vn -0.0558 -0.9982 -0.0237
vn -0.0376 0.9992 -0.0160
vn -0.0854 -0.9957 -0.0362
vn -0.0245 0.9996 -0.0104
vn -0.0889 0.9960 -0.0122
vn -0.0391 -0.9992 -0.0054
vn -0.0580 0.9983 -0.0080
vn -0.0580 -0.9983 -0.0080
vn -0.0391 0.9992 -0.0054
vn -0.0889 -0.9960 -0.0122
vn -0.0255 0.9997 -0.0035
vn -0.1553 -0.9876 -0.0214
vn -0.0145 0.9999 -0.0020
vn -0.4351 -0.8984 -0.0599
vn -0.0047 -1.0000 -0.0006
vn -0.0047 1.0000 -0.0006
vn -0.4351 0.8984 -0.0599
vn -0.0145 -0.9999 -0.0020
vn -0.1553 0.9876 -0.0214
vn -0.0255 -0.9997 -0.0035
vn -0.0145 0.9999 0.0020
vn -0.4351 -0.8984 0.0599
vn -0.0047 -1.0000 0.0006
vn -0.0047 1.0000 0.0006
vn -0.4351 0.8984 0.0599
vn -0.0145 -0.9999 0.0020
vn -0.1553 0.9876 0.0214
vn -0.0255 -0.9997 0.0035
vn -0.0889 0.9960 0.0122
vn -0.0391 -0.9992 0.0054
vn -0.0580 0.9983 0.0080
vn -0.0580 -0.9983 0.0080
vn -0.0391 0.9992 0.0054
vn -0.0889 -0.9960 0.0122
vn -0.0255 0.9997 0.0035
vn -0.1553 -0.9876 0.0214
vn -0.0558 0.9982 0.0237
vn -0.0558 -0.9982 0.0237
vn -0.0376 0.9992 0.0160
vn -0.0854 -0.9957 0.0362
vn -0.0245 0.9996 0.0104
vn -0.1492 -0.9868 0.0633
vn -0.0139 0.9999 0.0059
vn -0.4155 -0.8923 0.1763
vn -0.0045 -1.0000 0.0019
vn -0.0045 1.0000 0.0019
vn -0.4155 0.8923 0.1763
vn -0.0139 -0.9999 0.0059
vn -0.1492 0.9868 0.0633
vn -0.0245 -0.9996 0.0104
vn -0.0854 0.9957 0.0362
vn -0.0376 -0.9992 0.0160
vn -0.0042 -1.0000 0.0031
vn -0.0042 1.0000 0.0031
vn -0.3783 0.8814 0.2828
vn -0.0128 -0.9999 0.0096
vn -0.1373 0.9852 0.1026
vn -0.0226 -0.9996 0.0169
vn -0.0787 0.9952 0.0588
vn -0.0347 -0.9991 0.0259
vn -0.0514 0.9979 0.0384
vn -0.0514 -0.9979 0.0384
vn -0.0347 0.9991 0.0259
vn -0.0787 -0.9952 0.0588
vn -0.0226 0.9996 0.0169
vn -0.1373 -0.9852 0.1026
vn -0.0128 0.9999 0.0096
vn -0.3783 -0.8814 0.2828
vn -0.0450 -0.9976 0.0517
vn -0.0304 0.9989 0.0349
vn -0.0689 -0.9945 0.0791
vn -0.0198 0.9995 0.0227
vn -0.1201 -0.9832 0.1378
vn -0.0112 0.9999 0.0129
vn -0.3264 -0.8678 0.3747
vn -0.0036 -1.0000 0.0042
vn -0.0036 1.0000 0.0042
vn -0.3264 0.8678 0.3747
vn -0.0112 -0.9999 0.0129
vn -0.1201 0.9832 0.1378
vn -0.0198 -0.9995 0.0227
vn -0.0689 0.9945 0.0791
vn -0.0304 -0.9989 0.0349
vn -0.0450 0.9976 0.0517
vn -0.2635 0.8537 0.4492
vn -0.0092 -0.9998 0.0157
vn -0.0983 0.9809 0.1676
vn -0.0162 -0.9995 0.0277
vn -0.0565 0.9937 0.0963
vn -0.0249 -0.9988 0.0425
vn -0.0369 0.9973 0.0630
vn -0.0369 -0.9973 0.0630
vn -0.0249 0.9988 0.0425
vn -0.0565 -0.9937 0.0963
vn -0.0162 0.9995 0.0277
vn -0.0983 -0.9809 0.1676
vn -0.0092 0.9998 0.0157
vn -0.2635 -0.8537 0.4492
vn -0.0030 -1.0000 0.0051
vn -0.0030 1.0000 0.0051
vn -0.0185 0.9987 0.0485
vn -0.0420 -0.9931 0.1098
vn -0.0121 0.9994 0.0316
vn -0.0729 -0.9789 0.1908
vn -0.0069 0.9998 0.0179
vn -0.1930 -0.8413 0.5050
vn -0.0022 -1.0000 0.0058
vn -0.0022 1.0000 0.0058
vn -0.1930 0.8413 0.5050
vn -0.0069 -0.9998 0.0179
vn -0.0729 0.9789 0.1908
vn -0.0121 -0.9994 0.0316
vn -0.0420 0.9931 0.1098
vn -0.0185 -0.9987 0.0485
vn -0.0274 0.9970 0.0718
vn -0.0274 -0.9970 0.0718
vn -0.0042 -0.9998 0.0195
vn -0.0448 0.9774 0.2067
vn -0.0074 -0.9994 0.0343
vn -0.0258 0.9925 0.1191
vn -0.0114 -0.9986 0.0526
vn -0.0169 0.9968 0.0779
vn -0.0169 -0.9968 0.0779
vn -0.0114 0.9986 0.0526
vn -0.0258 -0.9925 0.1191
vn -0.0074 0.9994 0.0343
vn -0.0448 -0.9774 0.2067
vn -0.0042 0.9998 0.0195
vn -0.1175 -0.8321 0.5420
vn -0.0014 -1.0000 0.0063
vn -0.0014 1.0000 0.0063
vn -0.1175 0.8321 0.5420
vn -0.0087 -0.9923 0.1238
vn -0.0025 0.9994 0.0356
vn -0.0151 -0.9765 0.2148
vn -0.0014 0.9998 0.0202
vn -0.0395 -0.8273 0.5604
vn -0.0005 -1.0000 0.0066
vn -0.0005 1.0000 0.0066
vn -0.0395 0.8273 0.5604
vn -0.0014 -0.9998 0.0202
vn -0.0151 0.9765 0.2148
vn -0.0025 -0.9994 0.0356
vn -0.0087 0.9923 0.1238
vn -0.0038 -0.9985 0.0547
vn -0.0057 0.9967 0.0810
vn -0.0057 -0.9967 0.0810
vn -0.0038 0.9985 0.0547
vn 0.0151 0.9765 0.2148
vn 0.2635 -0.8537 -0.4491
vn 0.2635 0.8537 -0.4491
vn 0.0151 0.9766 -0.2148
vn -0.0151 -0.9766 0.2148
vn -0.0151 0.9766 0.2148
vt 0.625000 0.000000
vt 0.375000 0.250000
vt 0.375000 0.000000
vt 0.625000 0.250000
vt 0.375000 0.500000
vt 0.625000 0.500000
vt 0.375000 0.750000
vt 0.625000 0.750000
vt 0.375000 1.000000
vt 0.125000 0.750000
vt 0.125000 0.500000
vt 0.875000 0.500000
vt 0.625000 1.000000
vt 0.875000 0.750000
vt 0.000000 0.000000
s 0
usemtl マテリアル.001
f 2/1/1 3/2/1 1/3/1
f 4/4/2 7/5/2 3/2/2
f 8/6/3 5/7/3 7/5/3
f 6/8/4 1/9/4 5/7/4
f 7/5/5 1/10/5 3/11/5
f 4/12/6 6/8/6 8/6/6
f 2/1/1 4/4/1 3/2/1
f 4/4/2 8/6/2 7/5/2
f 8/6/3 6/8/3 5/7/3
f 6/8/4 2/13/4 1/9/4
f 7/5/5 5/7/5 1/10/5
f 4/12/6 2/14/6 6/8/6
f 27/15/7 488/15/7 487/15/7
f 485/15/8 10/15/8 19/15/8
f 28/15/9 489/15/9 488/15/9
f 21/15/10 11/15/10 485/15/10
f 29/15/11 490/15/11 489/15/11
f 12/15/12 11/15/12 21/15/12
f 482/15/13 90/15/13 15/15/13
f 316/15/14 490/15/14 29/15/14
f 23/15/15 13/15/15 12/15/15
f 483/15/16 482/15/16 15/15/16
f 24/15/17 486/15/17 13/15/17
f 9/15/18 483/15/18 16/15/18
f 25/15/19 14/15/19 486/15/19
f 484/15/20 9/15/20 17/15/20
f 26/15/21 487/15/21 14/15/21
f 19/15/22 10/15/22 484/15/22
f 41/15/23 26/15/23 25/15/23
f 34/15/24 19/15/24 18/15/24
f 27/15/25 26/15/25 41/15/25
f 35/15/26 20/15/26 19/15/26
f 28/15/27 27/15/27 42/15/27
f 36/15/28 21/15/28 20/15/28
f 29/15/29 28/15/29 43/15/29
f 37/15/30 22/15/30 21/15/30
f 15/15/31 90/15/31 30/15/31
f 316/15/32 29/15/32 44/15/32
f 38/15/33 23/15/33 22/15/33
f 31/15/34 16/15/34 15/15/34
f 39/15/35 24/15/35 23/15/35
f 32/15/36 17/15/36 16/15/36
f 40/15/37 25/15/37 24/15/37
f 33/15/38 18/15/38 17/15/38
f 30/15/39 90/15/39 45/15/39
f 316/15/40 44/15/40 59/15/40
f 53/15/41 38/15/41 37/15/41
f 46/15/42 31/15/42 30/15/42
f 54/15/43 39/15/43 38/15/43
f 47/15/44 32/15/44 31/15/44
f 40/15/45 39/15/45 54/15/45
f 48/15/46 33/15/46 32/15/46
f 56/15/47 41/15/47 40/15/47
f 34/15/48 33/15/48 48/15/48
f 57/15/49 42/15/49 41/15/49
f 50/15/50 35/15/50 34/15/50
f 58/15/51 43/15/51 42/15/51
f 51/15/52 36/15/52 35/15/52
f 44/15/53 43/15/53 58/15/53
f 37/15/54 36/15/54 51/15/54
f 49/15/55 48/15/55 63/15/55
f 72/15/56 57/15/56 56/15/56
f 65/15/57 50/15/57 49/15/57
f 58/15/58 57/15/58 72/15/58
f 51/15/59 50/15/59 65/15/59
f 74/15/60 59/15/60 58/15/60
f 52/15/61 51/15/61 66/15/61
f 45/15/62 90/15/62 60/15/62
f 316/15/63 59/15/63 74/15/63
f 68/15/64 53/15/64 52/15/64
f 61/15/65 46/15/65 45/15/65
f 69/15/66 54/15/66 53/15/66
f 62/15/67 47/15/67 46/15/67
f 55/15/68 54/15/68 69/15/68
f 48/15/69 47/15/69 62/15/69
f 71/15/70 56/15/70 55/15/70
f 83/15/71 68/15/71 67/15/71
f 61/15/72 60/15/72 75/15/72
f 84/15/73 69/15/73 68/15/73
f 62/15/74 61/15/74 76/15/74
f 70/15/75 69/15/75 84/15/75
f 78/15/76 63/15/76 62/15/76
f 86/15/77 71/15/77 70/15/77
f 79/15/78 64/15/78 63/15/78
f 87/15/79 72/15/79 71/15/79
f 80/15/80 65/15/80 64/15/80
f 88/15/81 73/15/81 72/15/81
f 66/15/82 65/15/82 80/15/82
f 89/15/83 74/15/83 73/15/83
f 67/15/84 66/15/84 81/15/84
f 60/15/85 90/15/85 75/15/85
f 316/15/86 74/15/86 89/15/86
f 87/15/87 86/15/87 102/15/87
f 96/15/88 80/15/88 79/15/88
f 88/15/89 87/15/89 103/15/89
f 81/15/90 80/15/90 96/15/90
f 89/15/91 88/15/91 104/15/91
f 82/15/92 81/15/92 97/15/92
f 75/15/93 90/15/93 91/15/93
f 316/15/94 89/15/94 105/15/94
f 99/15/95 83/15/95 82/15/95
f 92/15/96 76/15/96 75/15/96
f 100/15/97 84/15/97 83/15/97
f 93/15/98 77/15/98 76/15/98
f 85/15/99 84/15/99 100/15/99
f 94/15/100 78/15/100 77/15/100
f 102/15/101 86/15/101 85/15/101
f 79/15/102 78/15/102 94/15/102
f 115/15/103 100/15/103 99/15/103
f 108/15/104 93/15/104 92/15/104
f 101/15/105 100/15/105 115/15/105
f 109/15/106 94/15/106 93/15/106
f 117/15/107 102/15/107 101/15/107
f 95/15/108 94/15/108 109/15/108
f 103/15/109 102/15/109 117/15/109
f 111/15/110 96/15/110 95/15/110
f 119/15/111 104/15/111 103/15/111
f 97/15/112 96/15/112 111/15/112
f 120/15/113 105/15/113 104/15/113
f 98/15/114 97/15/114 112/15/114
f 91/15/115 90/15/115 106/15/115
f 316/15/116 105/15/116 120/15/116
f 114/15/117 99/15/117 98/15/117
f 107/15/118 92/15/118 91/15/118
f 134/15/119 119/15/119 118/15/119
f 112/15/120 111/15/120 126/15/120
f 135/15/121 120/15/121 119/15/121
f 113/15/122 112/15/122 127/15/122
f 106/15/123 90/15/123 121/15/123
f 316/15/124 120/15/124 135/15/124
f 129/15/125 114/15/125 113/15/125
f 122/15/126 107/15/126 106/15/126
f 130/15/127 115/15/127 114/15/127
f 123/15/128 108/15/128 107/15/128
f 116/15/129 115/15/129 130/15/129
f 124/15/130 109/15/130 108/15/130
f 132/15/131 117/15/131 116/15/131
f 110/15/132 109/15/132 124/15/132
f 118/15/133 117/15/133 132/15/133
f 126/15/134 111/15/134 110/15/134
f 138/15/135 123/15/135 122/15/135
f 131/15/136 130/15/136 145/15/136
f 139/15/137 124/15/137 123/15/137
f 147/15/138 132/15/138 131/15/138
f 125/15/139 124/15/139 139/15/139
f 133/15/140 132/15/140 147/15/140
f 141/15/141 126/15/141 125/15/141
f 149/15/142 134/15/142 133/15/142
f 127/15/143 126/15/143 141/15/143
f 150/15/144 135/15/144 134/15/144
f 128/15/145 127/15/145 142/15/145
f 121/15/146 90/15/146 136/15/146
f 316/15/147 135/15/147 150/15/147
f 144/15/148 129/15/148 128/15/148
f 137/15/149 122/15/149 121/15/149
f 145/15/150 130/15/150 129/15/150
f 142/15/151 141/15/151 156/15/151
f 165/15/152 150/15/152 149/15/152
f 143/15/153 142/15/153 157/15/153
f 136/15/154 90/15/154 151/15/154
f 316/15/155 150/15/155 165/15/155
f 159/15/156 144/15/156 143/15/156
f 152/15/157 137/15/157 136/15/157
f 160/15/158 145/15/158 144/15/158
f 153/15/159 138/15/159 137/15/159
f 146/15/160 145/15/160 160/15/160
f 154/15/161 139/15/161 138/15/161
f 162/15/162 147/15/162 146/15/162
f 155/15/163 140/15/163 139/15/163
f 148/15/164 147/15/164 162/15/164
f 156/15/165 141/15/165 140/15/165
f 164/15/166 149/15/166 148/15/166
f 161/15/167 160/15/167 175/15/167
f 169/15/168 154/15/168 153/15/168
f 177/15/169 162/15/169 161/15/169
f 155/15/170 154/15/170 169/15/170
f 163/15/171 162/15/171 177/15/171
f 171/15/172 156/15/172 155/15/172
f 179/15/173 164/15/173 163/15/173
f 157/15/174 156/15/174 171/15/174
f 180/15/175 165/15/175 164/15/175
f 158/15/176 157/15/176 172/15/176
f 151/15/177 90/15/177 166/15/177
f 316/15/178 165/15/178 180/15/178
f 174/15/179 159/15/179 158/15/179
f 167/15/180 152/15/180 151/15/180
f 175/15/181 160/15/181 159/15/181
f 168/15/182 153/15/182 152/15/182
f 195/15/183 180/15/183 179/15/183
f 173/15/184 172/15/184 187/15/184
f 166/15/185 90/15/185 181/15/185
f 316/15/186 180/15/186 195/15/186
f 189/15/187 174/15/187 173/15/187
f 182/15/188 167/15/188 166/15/188
f 190/15/189 175/15/189 174/15/189
f 168/15/190 167/15/190 182/15/190
f 176/15/191 175/15/191 190/15/191
f 184/15/192 169/15/192 168/15/192
f 192/15/193 177/15/193 176/15/193
f 170/15/194 169/15/194 184/15/194
f 178/15/195 177/15/195 192/15/195
f 186/15/196 171/15/196 170/15/196
f 194/15/197 179/15/197 178/15/197
f 172/15/198 171/15/198 186/15/198
f 199/15/199 184/15/199 183/15/199
f 207/15/200 192/15/200 191/15/200
f 185/15/201 184/15/201 199/15/201
f 193/15/202 192/15/202 207/15/202
f 201/15/203 186/15/203 185/15/203
f 209/15/204 194/15/204 193/15/204
f 187/15/205 186/15/205 201/15/205
f 210/15/206 195/15/206 194/15/206
f 188/15/207 187/15/207 202/15/207
f 181/15/208 90/15/208 196/15/208
f 316/15/209 195/15/209 210/15/209
f 204/15/210 189/15/210 188/15/210
f 182/15/211 181/15/211 196/15/211
f 205/15/212 190/15/212 189/15/212
f 198/15/213 183/15/213 182/15/213
f 191/15/214 190/15/214 205/15/214
f 203/15/215 202/15/215 217/15/215
f 196/15/216 90/15/216 211/15/216
f 316/15/217 210/15/217 225/15/217
f 219/15/218 204/15/218 203/15/218
f 212/15/219 197/15/219 196/15/219
f 220/15/220 205/15/220 204/15/220
f 213/15/221 198/15/221 197/15/221
f 206/15/222 205/15/222 220/15/222
f 214/15/223 199/15/223 198/15/223
f 222/15/224 207/15/224 206/15/224
f 215/15/225 200/15/225 199/15/225
f 208/15/226 207/15/226 222/15/226
f 216/15/227 201/15/227 200/15/227
f 209/15/228 208/15/228 223/15/228
f 202/15/229 201/15/229 216/15/229
f 210/15/230 209/15/230 224/15/230
f 237/15/231 222/15/231 221/15/231
f 215/15/232 214/15/232 229/15/232
f 223/15/233 222/15/233 237/15/233
f 231/15/234 216/15/234 215/15/234
f 239/15/235 224/15/235 223/15/235
f 217/15/236 216/15/236 231/15/236
f 240/15/237 225/15/237 224/15/237
f 218/15/238 217/15/238 232/15/238
f 211/15/239 90/15/239 226/15/239
f 316/15/240 225/15/240 240/15/240
f 234/15/241 219/15/241 218/15/241
f 227/15/242 212/15/242 211/15/242
f 235/15/243 220/15/243 219/15/243
f 228/15/244 213/15/244 212/15/244
f 221/15/245 220/15/245 235/15/245
f 229/15/246 214/15/246 213/15/246
f 316/15/247 240/15/247 255/15/247
f 249/15/248 234/15/248 233/15/248
f 227/15/249 226/15/249 241/15/249
f 250/15/250 235/15/250 234/15/250
f 228/15/251 227/15/251 242/15/251
f 236/15/252 235/15/252 250/15/252
f 244/15/253 229/15/253 228/15/253
f 252/15/254 237/15/254 236/15/254
f 230/15/255 229/15/255 244/15/255
f 238/15/256 237/15/256 252/15/256
f 246/15/257 231/15/257 230/15/257
f 254/15/258 239/15/258 238/15/258
f 232/15/259 231/15/259 246/15/259
f 255/15/260 240/15/260 239/15/260
f 233/15/261 232/15/261 247/15/261
f 226/15/262 90/15/262 241/15/262
f 253/15/263 252/15/263 267/15/263
f 261/15/264 246/15/264 245/15/264
f 269/15/265 254/15/265 253/15/265
f 247/15/266 246/15/266 261/15/266
f 270/15/267 255/15/267 254/15/267
f 248/15/268 247/15/268 262/15/268
f 241/15/269 90/15/269 256/15/269
f 316/15/270 255/15/270 270/15/270
f 264/15/271 249/15/271 248/15/271
f 257/15/272 242/15/272 241/15/272
f 265/15/273 250/15/273 249/15/273
f 258/15/274 243/15/274 242/15/274
f 251/15/275 250/15/275 265/15/275
f 259/15/276 244/15/276 243/15/276
f 267/15/277 252/15/277 251/15/277
f 245/15/278 244/15/278 259/15/278
f 257/15/279 256/15/279 271/15/279
f 280/15/280 265/15/280 264/15/280
f 273/15/281 258/15/281 257/15/281
f 266/15/282 265/15/282 280/15/282
f 274/15/283 259/15/283 258/15/283
f 282/15/284 267/15/284 266/15/284
f 260/15/285 259/15/285 274/15/285
f 268/15/286 267/15/286 282/15/286
f 276/15/287 261/15/287 260/15/287
f 269/15/288 268/15/288 283/15/288
f 262/15/289 261/15/289 276/15/289
f 285/15/290 270/15/290 269/15/290
f 263/15/291 262/15/291 277/15/291
f 256/15/292 90/15/292 271/15/292
f 316/15/293 270/15/293 285/15/293
f 279/15/294 264/15/294 263/15/294
f 291/15/295 276/15/295 275/15/295
f 299/15/296 284/15/296 283/15/296
f 277/15/297 276/15/297 291/15/297
f 285/15/298 284/15/298 299/15/298
f 278/15/299 277/15/299 292/15/299
f 271/15/300 90/15/300 286/15/300
f 316/15/301 285/15/301 300/15/301
f 294/15/302 279/15/302 278/15/302
f 287/15/303 272/15/303 271/15/303
f 295/15/304 280/15/304 279/15/304
f 288/15/305 273/15/305 272/15/305
f 281/15/306 280/15/306 295/15/306
f 289/15/307 274/15/307 273/15/307
f 297/15/308 282/15/308 281/15/308
f 275/15/309 274/15/309 289/15/309
f 283/15/310 282/15/310 297/15/310
f 310/15/311 295/15/311 294/15/311
f 288/15/312 287/15/312 302/15/312
f 296/15/313 295/15/313 310/15/313
f 304/15/314 289/15/314 288/15/314
f 312/15/315 297/15/315 296/15/315
f 290/15/316 289/15/316 304/15/316
f 298/15/317 297/15/317 312/15/317
f 306/15/318 291/15/318 290/15/318
f 314/15/319 299/15/319 298/15/319
f 292/15/320 291/15/320 306/15/320
f 300/15/321 299/15/321 314/15/321
f 293/15/322 292/15/322 307/15/322
f 286/15/323 90/15/323 301/15/323
f 316/15/324 300/15/324 315/15/324
f 309/15/325 294/15/325 293/15/325
f 302/15/326 287/15/326 286/15/326
f 330/15/327 314/15/327 313/15/327
f 307/15/328 306/15/328 322/15/328
f 331/15/329 315/15/329 314/15/329
f 308/15/330 307/15/330 323/15/330
f 301/15/331 90/15/331 317/15/331
f 316/15/332 315/15/332 331/15/332
f 325/15/333 309/15/333 308/15/333
f 318/15/334 302/15/334 301/15/334
f 326/15/335 310/15/335 309/15/335
f 303/15/336 302/15/336 318/15/336
f 311/15/337 310/15/337 326/15/337
f 320/15/338 304/15/338 303/15/338
f 328/15/339 312/15/339 311/15/339
f 305/15/340 304/15/340 320/15/340
f 313/15/341 312/15/341 328/15/341
f 322/15/342 306/15/342 305/15/342
f 334/15/343 319/15/343 318/15/343
f 327/15/344 326/15/344 341/15/344
f 335/15/345 320/15/345 319/15/345
f 343/15/346 328/15/346 327/15/346
f 321/15/347 320/15/347 335/15/347
f 329/15/348 328/15/348 343/15/348
f 337/15/349 322/15/349 321/15/349
f 345/15/350 330/15/350 329/15/350
f 323/15/351 322/15/351 337/15/351
f 346/15/352 331/15/352 330/15/352
f 324/15/353 323/15/353 338/15/353
f 317/15/354 90/15/354 332/15/354
f 316/15/355 331/15/355 346/15/355
f 340/15/356 325/15/356 324/15/356
f 333/15/357 318/15/357 317/15/357
f 341/15/358 326/15/358 325/15/358
f 338/15/359 337/15/359 352/15/359
f 361/15/360 346/15/360 345/15/360
f 339/15/361 338/15/361 353/15/361
f 332/15/362 90/15/362 347/15/362
f 316/15/363 346/15/363 361/15/363
f 355/15/364 340/15/364 339/15/364
f 348/15/365 333/15/365 332/15/365
f 356/15/366 341/15/366 340/15/366
f 349/15/367 334/15/367 333/15/367
f 342/15/368 341/15/368 356/15/368
f 350/15/369 335/15/369 334/15/369
f 358/15/370 343/15/370 342/15/370
f 336/15/371 335/15/371 350/15/371
f 344/15/372 343/15/372 358/15/372
f 352/15/373 337/15/373 336/15/373
f 360/15/374 345/15/374 344/15/374
f 357/15/375 356/15/375 371/15/375
f 365/15/376 350/15/376 349/15/376
f 373/15/377 358/15/377 357/15/377
f 351/15/378 350/15/378 365/15/378
f 359/15/379 358/15/379 373/15/379
f 367/15/380 352/15/380 351/15/380
f 375/15/381 360/15/381 359/15/381
f 353/15/382 352/15/382 367/15/382
f 376/15/383 361/15/383 360/15/383
f 354/15/384 353/15/384 368/15/384
f 347/15/385 90/15/385 362/15/385
f 316/15/386 361/15/386 376/15/386
f 370/15/387 355/15/387 354/15/387
f 348/15/388 347/15/388 362/15/388
f 371/15/389 356/15/389 355/15/389
f 349/15/390 348/15/390 363/15/390
f 391/15/391 376/15/391 375/15/391
f 369/15/392 368/15/392 383/15/392
f 362/15/393 90/15/393 377/15/393
f 316/15/394 376/15/394 391/15/394
f 385/15/395 370/15/395 369/15/395
f 363/15/396 362/15/396 377/15/396
f 386/15/397 371/15/397 370/15/397
f 364/15/398 363/15/398 378/15/398
f 372/15/399 371/15/399 386/15/399
f 380/15/400 365/15/400 364/15/400
f 388/15/401 373/15/401 372/15/401
f 366/15/402 365/15/402 380/15/402
f 374/15/403 373/15/403 388/15/403
f 382/15/404 367/15/404 366/15/404
f 390/15/405 375/15/405 374/15/405
f 368/15/406 367/15/406 382/15/406
f 403/15/407 388/15/407 387/15/407
f 381/15/408 380/15/408 395/15/408
f 389/15/409 388/15/409 403/15/409
f 397/15/410 382/15/410 381/15/410
f 405/15/411 390/15/411 389/15/411
f 383/15/412 382/15/412 397/15/412
f 406/15/413 391/15/413 390/15/413
f 384/15/414 383/15/414 398/15/414
f 377/15/415 90/15/415 392/15/415
f 316/15/416 391/15/416 406/15/416
f 400/15/417 385/15/417 384/15/417
f 393/15/418 378/15/418 377/15/418
f 401/15/419 386/15/419 385/15/419
f 379/15/420 378/15/420 393/15/420
f 387/15/421 386/15/421 401/15/421
f 395/15/422 380/15/422 379/15/422
f 392/15/423 90/15/423 407/15/423
f 316/15/424 406/15/424 421/15/424
f 415/15/425 400/15/425 399/15/425
f 408/15/426 393/15/426 392/15/426
f 416/15/427 401/15/427 400/15/427
f 394/15/428 393/15/428 408/15/428
f 402/15/429 401/15/429 416/15/429
f 410/15/430 395/15/430 394/15/430
f 418/15/431 403/15/431 402/15/431
f 396/15/432 395/15/432 410/15/432
f 404/15/433 403/15/433 418/15/433
f 412/15/434 397/15/434 396/15/434
f 420/15/435 405/15/435 404/15/435
f 398/15/436 397/15/436 412/15/436
f 406/15/437 405/15/437 420/15/437
f 399/15/438 398/15/438 413/15/438
f 411/15/439 410/15/439 425/15/439
f 419/15/440 418/15/440 433/15/440
f 427/15/441 412/15/441 411/15/441
f 435/15/442 420/15/442 419/15/442
f 413/15/443 412/15/443 427/15/443
f 421/15/444 420/15/444 435/15/444
f 414/15/445 413/15/445 428/15/445
f 407/15/446 90/15/446 422/15/446
f 316/15/447 421/15/447 436/15/447
f 430/15/448 415/15/448 414/15/448
f 423/15/449 408/15/449 407/15/449
f 431/15/450 416/15/450 415/15/450
f 409/15/451 408/15/451 423/15/451
f 417/15/452 416/15/452 431/15/452
f 425/15/453 410/15/453 409/15/453
f 433/15/454 418/15/454 417/15/454
f 445/15/455 430/15/455 429/15/455
f 438/15/456 423/15/456 422/15/456
f 446/15/457 431/15/457 430/15/457
f 424/15/458 423/15/458 438/15/458
f 432/15/459 431/15/459 446/15/459
f 440/15/460 425/15/460 424/15/460
f 448/15/461 433/15/461 432/15/461
f 426/15/462 425/15/462 440/15/462
f 434/15/463 433/15/463 448/15/463
f 442/15/464 427/15/464 426/15/464
f 450/15/465 435/15/465 434/15/465
f 428/15/466 427/15/466 442/15/466
f 451/15/467 436/15/467 435/15/467
f 429/15/468 428/15/468 443/15/468
f 422/15/469 90/15/469 437/15/469
f 316/15/470 436/15/470 451/15/470
f 449/15/471 448/15/471 463/15/471
f 457/15/472 442/15/472 441/15/472
f 465/15/473 450/15/473 449/15/473
f 443/15/474 442/15/474 457/15/474
f 466/15/475 451/15/475 450/15/475
f 444/15/476 443/15/476 458/15/476
f 437/15/477 90/15/477 452/15/477
f 316/15/478 451/15/478 466/15/478
f 460/15/479 445/15/479 444/15/479
f 453/15/480 438/15/480 437/15/480
f 461/15/481 446/15/481 445/15/481
f 439/15/482 438/15/482 453/15/482
f 447/15/483 446/15/483 461/15/483
f 455/15/484 440/15/484 439/15/484
f 463/15/485 448/15/485 447/15/485
f 441/15/486 440/15/486 455/15/486
f 468/15/487 453/15/487 452/15/487
f 476/15/488 461/15/488 460/15/488
f 469/15/489 454/15/489 453/15/489
f 462/15/490 461/15/490 476/15/490
f 470/15/491 455/15/491 454/15/491
f 478/15/492 463/15/492 462/15/492
f 456/15/493 455/15/493 470/15/493
f 464/15/494 463/15/494 478/15/494
f 472/15/495 457/15/495 456/15/495
f 465/15/496 464/15/496 479/15/496
f 458/15/497 457/15/497 472/15/497
f 481/15/498 466/15/498 465/15/498
f 459/15/499 458/15/499 473/15/499
f 452/15/500 90/15/500 467/15/500
f 316/15/501 466/15/501 481/15/501
f 475/15/502 460/15/502 459/15/502
f 485/15/503 472/15/503 471/15/503
f 489/15/504 480/15/504 479/15/504
f 473/15/505 472/15/505 485/15/505
f 490/15/506 481/15/506 480/15/506
f 474/15/507 473/15/507 11/15/507
f 467/15/508 90/15/508 482/15/508
f 316/15/509 481/15/509 490/15/509
f 13/15/510 475/15/510 474/15/510
f 483/15/511 468/15/511 467/15/511
f 486/15/512 476/15/512 475/15/512
f 469/15/513 468/15/513 483/15/513
f 14/15/514 477/15/514 476/15/514
f 470/15/515 469/15/515 9/15/515
f 487/15/516 478/15/516 477/15/516
f 471/15/517 470/15/517 484/15/517
f 479/15/518 478/15/518 487/15/518
f 27/15/7 487/15/7 26/15/7
f 485/15/8 19/15/8 20/15/8
f 28/15/9 488/15/9 27/15/9
f 21/15/10 485/15/10 20/15/10
f 29/15/11 489/15/11 28/15/11
f 12/15/12 21/15/12 22/15/12
f 23/15/15 12/15/15 22/15/15
f 483/15/16 15/15/16 16/15/16
f 24/15/519 13/15/519 23/15/519
f 9/15/18 16/15/18 17/15/18
f 25/15/19 486/15/19 24/15/19
f 484/15/20 17/15/20 18/15/20
f 26/15/21 14/15/21 25/15/21
f 19/15/22 484/15/22 18/15/22
f 41/15/23 25/15/23 40/15/23
f 34/15/24 18/15/24 33/15/24
f 27/15/25 41/15/25 42/15/25
f 35/15/26 19/15/26 34/15/26
f 28/15/27 42/15/27 43/15/27
f 36/15/28 20/15/28 35/15/28
f 29/15/29 43/15/29 44/15/29
f 37/15/30 21/15/30 36/15/30
f 38/15/33 22/15/33 37/15/33
f 31/15/34 15/15/34 30/15/34
f 39/15/35 23/15/35 38/15/35
f 32/15/36 16/15/36 31/15/36
f 40/15/37 24/15/37 39/15/37
f 33/15/38 17/15/38 32/15/38
f 53/15/41 37/15/41 52/15/41
f 46/15/42 30/15/42 45/15/42
f 54/15/43 38/15/43 53/15/43
f 47/15/44 31/15/44 46/15/44
f 40/15/45 54/15/45 55/15/45
f 48/15/46 32/15/46 47/15/46
f 56/15/47 40/15/47 55/15/47
f 34/15/48 48/15/48 49/15/48
f 57/15/49 41/15/49 56/15/49
f 50/15/50 34/15/50 49/15/50
f 58/15/51 42/15/51 57/15/51
f 51/15/52 35/15/52 50/15/52
f 44/15/53 58/15/53 59/15/53
f 37/15/54 51/15/54 52/15/54
f 49/15/55 63/15/55 64/15/55
f 72/15/56 56/15/56 71/15/56
f 65/15/57 49/15/57 64/15/57
f 58/15/58 72/15/58 73/15/58
f 51/15/59 65/15/59 66/15/59
f 74/15/60 58/15/60 73/15/60
f 52/15/61 66/15/61 67/15/61
f 68/15/64 52/15/64 67/15/64
f 61/15/65 45/15/65 60/15/65
f 69/15/66 53/15/66 68/15/66
f 62/15/67 46/15/67 61/15/67
f 55/15/68 69/15/68 70/15/68
f 48/15/69 62/15/69 63/15/69
f 71/15/70 55/15/70 70/15/70
f 83/15/71 67/15/71 82/15/71
f 61/15/72 75/15/72 76/15/72
f 84/15/73 68/15/73 83/15/73
f 62/15/74 76/15/74 77/15/74
f 70/15/75 84/15/75 85/15/75
f 78/15/76 62/15/76 77/15/76
f 86/15/77 70/15/77 85/15/77
f 79/15/78 63/15/78 78/15/78
f 87/15/79 71/15/79 86/15/79
f 80/15/80 64/15/80 79/15/80
f 88/15/81 72/15/81 87/15/81
f 66/15/82 80/15/82 81/15/82
f 89/15/83 73/15/83 88/15/83
f 67/15/84 81/15/84 82/15/84
f 87/15/87 102/15/87 103/15/87
f 96/15/88 79/15/88 95/15/88
f 88/15/89 103/15/89 104/15/89
f 81/15/90 96/15/90 97/15/90
f 89/15/91 104/15/91 105/15/91
f 82/15/92 97/15/92 98/15/92
f 99/15/95 82/15/95 98/15/95
f 92/15/96 75/15/96 91/15/96
f 100/15/97 83/15/97 99/15/97
f 93/15/98 76/15/98 92/15/98
f 85/15/99 100/15/99 101/15/99
f 94/15/100 77/15/100 93/15/100
f 102/15/101 85/15/101 101/15/101
f 79/15/102 94/15/102 95/15/102
f 115/15/103 99/15/103 114/15/103
f 108/15/104 92/15/104 107/15/104
f 101/15/105 115/15/105 116/15/105
f 109/15/106 93/15/106 108/15/106
f 117/15/107 101/15/107 116/15/107
f 95/15/108 109/15/108 110/15/108
f 103/15/109 117/15/109 118/15/109
f 111/15/110 95/15/110 110/15/110
f 119/15/111 103/15/111 118/15/111
f 97/15/112 111/15/112 112/15/112
f 120/15/113 104/15/113 119/15/113
f 98/15/114 112/15/114 113/15/114
f 114/15/117 98/15/117 113/15/117
f 107/15/118 91/15/118 106/15/118
f 134/15/119 118/15/119 133/15/119
f 112/15/120 126/15/120 127/15/120
f 135/15/121 119/15/121 134/15/121
f 113/15/122 127/15/122 128/15/122
f 129/15/125 113/15/125 128/15/125
f 122/15/126 106/15/126 121/15/126
f 130/15/127 114/15/127 129/15/127
f 123/15/128 107/15/128 122/15/128
f 116/15/129 130/15/129 131/15/129
f 124/15/130 108/15/130 123/15/130
f 132/15/131 116/15/131 131/15/131
f 110/15/132 124/15/132 125/15/132
f 118/15/133 132/15/133 133/15/133
f 126/15/134 110/15/134 125/15/134
f 138/15/135 122/15/135 137/15/135
f 131/15/136 145/15/136 146/15/136
f 139/15/137 123/15/137 138/15/137
f 147/15/138 131/15/138 146/15/138
f 125/15/139 139/15/139 140/15/139
f 133/15/140 147/15/140 148/15/140
f 141/15/141 125/15/141 140/15/141
f 149/15/142 133/15/142 148/15/142
f 127/15/143 141/15/143 142/15/143
f 150/15/144 134/15/144 149/15/144
f 128/15/145 142/15/145 143/15/145
f 144/15/148 128/15/148 143/15/148
f 137/15/149 121/15/149 136/15/149
f 145/15/150 129/15/150 144/15/150
f 142/15/151 156/15/151 157/15/151
f 165/15/152 149/15/152 164/15/152
f 143/15/153 157/15/153 158/15/153
f 159/15/156 143/15/156 158/15/156
f 152/15/157 136/15/157 151/15/157
f 160/15/158 144/15/158 159/15/158
f 153/15/159 137/15/159 152/15/159
f 146/15/160 160/15/160 161/15/160
f 154/15/161 138/15/161 153/15/161
f 162/15/162 146/15/162 161/15/162
f 155/15/163 139/15/163 154/15/163
f 148/15/164 162/15/164 163/15/164
f 156/15/165 140/15/165 155/15/165
f 164/15/166 148/15/166 163/15/166
f 161/15/167 175/15/167 176/15/167
f 169/15/168 153/15/168 168/15/168
f 177/15/169 161/15/169 176/15/169
f 155/15/170 169/15/170 170/15/170
f 163/15/171 177/15/171 178/15/171
f 171/15/172 155/15/172 170/15/172
f 179/15/173 163/15/173 178/15/173
f 157/15/174 171/15/174 172/15/174
f 180/15/175 164/15/175 179/15/175
f 158/15/176 172/15/176 173/15/176
f 174/15/179 158/15/179 173/15/179
f 167/15/180 151/15/180 166/15/180
f 175/15/181 159/15/181 174/15/181
f 168/15/182 152/15/182 167/15/182
f 195/15/183 179/15/183 194/15/183
f 173/15/184 187/15/184 188/15/184
f 189/15/187 173/15/187 188/15/187
f 182/15/188 166/15/188 181/15/188
f 190/15/189 174/15/189 189/15/189
f 168/15/190 182/15/190 183/15/190
f 176/15/191 190/15/191 191/15/191
f 184/15/192 168/15/192 183/15/192
f 192/15/193 176/15/193 191/15/193
f 170/15/194 184/15/194 185/15/194
f 178/15/195 192/15/195 193/15/195
f 186/15/196 170/15/196 185/15/196
f 194/15/197 178/15/197 193/15/197
f 172/15/198 186/15/198 187/15/198
f 199/15/199 183/15/199 198/15/199
f 207/15/200 191/15/200 206/15/200
f 185/15/201 199/15/201 200/15/201
f 193/15/202 207/15/202 208/15/202
f 201/15/203 185/15/203 200/15/203
f 209/15/204 193/15/204 208/15/204
f 187/15/205 201/15/205 202/15/205
f 210/15/206 194/15/206 209/15/206
f 188/15/520 202/15/520 203/15/520
f 204/15/521 188/15/521 203/15/521
f 182/15/211 196/15/211 197/15/211
f 205/15/212 189/15/212 204/15/212
f 198/15/213 182/15/213 197/15/213
f 191/15/214 205/15/214 206/15/214
f 203/15/215 217/15/215 218/15/215
f 219/15/218 203/15/218 218/15/218
f 212/15/219 196/15/219 211/15/219
f 220/15/220 204/15/220 219/15/220
f 213/15/221 197/15/221 212/15/221
f 206/15/222 220/15/222 221/15/222
f 214/15/223 198/15/223 213/15/223
f 222/15/224 206/15/224 221/15/224
f 215/15/225 199/15/225 214/15/225
f 208/15/226 222/15/226 223/15/226
f 216/15/227 200/15/227 215/15/227
f 209/15/228 223/15/228 224/15/228
f 202/15/229 216/15/229 217/15/229
f 210/15/230 224/15/230 225/15/230
f 237/15/231 221/15/231 236/15/231
f 215/15/232 229/15/232 230/15/232
f 223/15/233 237/15/233 238/15/233
f 231/15/234 215/15/234 230/15/234
f 239/15/235 223/15/235 238/15/235
f 217/15/236 231/15/236 232/15/236
f 240/15/237 224/15/237 239/15/237
f 218/15/238 232/15/238 233/15/238
f 234/15/241 218/15/241 233/15/241
f 227/15/242 211/15/242 226/15/242
f 235/15/243 219/15/243 234/15/243
f 228/15/244 212/15/244 227/15/244
f 221/15/245 235/15/245 236/15/245
f 229/15/246 213/15/246 228/15/246
f 249/15/248 233/15/248 248/15/248
f 227/15/249 241/15/249 242/15/249
f 250/15/522 234/15/522 249/15/522
f 228/15/251 242/15/251 243/15/251
f 236/15/252 250/15/252 251/15/252
f 244/15/253 228/15/253 243/15/253
f 252/15/254 236/15/254 251/15/254
f 230/15/255 244/15/255 245/15/255
f 238/15/256 252/15/256 253/15/256
f 246/15/257 230/15/257 245/15/257
f 254/15/258 238/15/258 253/15/258
f 232/15/259 246/15/259 247/15/259
f 255/15/260 239/15/260 254/15/260
f 233/15/261 247/15/261 248/15/261
f 253/15/263 267/15/263 268/15/263
f 261/15/264 245/15/264 260/15/264
f 269/15/265 253/15/265 268/15/265
f 247/15/266 261/15/266 262/15/266
f 270/15/267 254/15/267 269/15/267
f 248/15/268 262/15/268 263/15/268
f 264/15/271 248/15/271 263/15/271
f 257/15/272 241/15/272 256/15/272
f 265/15/273 249/15/273 264/15/273
f 258/15/274 242/15/274 257/15/274
f 251/15/275 265/15/275 266/15/275
f 259/15/276 243/15/276 258/15/276
f 267/15/277 251/15/277 266/15/277
f 245/15/278 259/15/278 260/15/278
f 257/15/279 271/15/279 272/15/279
f 280/15/280 264/15/280 279/15/280
f 273/15/281 257/15/281 272/15/281
f 266/15/282 280/15/282 281/15/282
f 274/15/283 258/15/283 273/15/283
f 282/15/284 266/15/284 281/15/284
f 260/15/285 274/15/285 275/15/285
f 268/15/286 282/15/286 283/15/286
f 276/15/287 260/15/287 275/15/287
f 269/15/288 283/15/288 284/15/288
f 262/15/289 276/15/289 277/15/289
f 285/15/290 269/15/290 284/15/290
f 263/15/291 277/15/291 278/15/291
f 279/15/294 263/15/294 278/15/294
f 291/15/295 275/15/295 290/15/295
f 299/15/296 283/15/296 298/15/296
f 277/15/297 291/15/297 292/15/297
f 285/15/298 299/15/298 300/15/298
f 278/15/299 292/15/299 293/15/299
f 294/15/302 278/15/302 293/15/302
f 287/15/303 271/15/303 286/15/303
f 295/15/304 279/15/304 294/15/304
f 288/15/305 272/15/305 287/15/305
f 281/15/306 295/15/306 296/15/306
f 289/15/307 273/15/307 288/15/307
f 297/15/308 281/15/308 296/15/308
f 275/15/309 289/15/309 290/15/309
f 283/15/310 297/15/310 298/15/310
f 310/15/311 294/15/311 309/15/311
f 288/15/312 302/15/312 303/15/312
f 296/15/313 310/15/313 311/15/313
f 304/15/314 288/15/314 303/15/314
f 312/15/315 296/15/315 311/15/315
f 290/15/316 304/15/316 305/15/316
f 298/15/317 312/15/317 313/15/317
f 306/15/318 290/15/318 305/15/318
f 314/15/319 298/15/319 313/15/319
f 292/15/320 306/15/320 307/15/320
f 300/15/321 314/15/321 315/15/321
f 293/15/322 307/15/322 308/15/322
f 309/15/325 293/15/325 308/15/325
f 302/15/326 286/15/326 301/15/326
f 330/15/327 313/15/327 329/15/327
f 307/15/328 322/15/328 323/15/328
f 331/15/329 314/15/329 330/15/329
f 308/15/330 323/15/330 324/15/330
f 325/15/333 308/15/333 324/15/333
f 318/15/334 301/15/334 317/15/334
f 326/15/335 309/15/335 325/15/335
f 303/15/336 318/15/336 319/15/336
f 311/15/337 326/15/337 327/15/337
f 320/15/338 303/15/338 319/15/338
f 328/15/339 311/15/339 327/15/339
f 305/15/340 320/15/340 321/15/340
f 313/15/341 328/15/341 329/15/341
f 322/15/342 305/15/342 321/15/342
f 334/15/343 318/15/343 333/15/343
f 327/15/344 341/15/344 342/15/344
f 335/15/345 319/15/345 334/15/345
f 343/15/346 327/15/346 342/15/346
f 321/15/347 335/15/347 336/15/347
f 329/15/348 343/15/348 344/15/348
f 337/15/349 321/15/349 336/15/349
f 345/15/350 329/15/350 344/15/350
f 323/15/351 337/15/351 338/15/351
f 346/15/352 330/15/352 345/15/352
f 324/15/353 338/15/353 339/15/353
f 340/15/356 324/15/356 339/15/356
f 333/15/357 317/15/357 332/15/357
f 341/15/358 325/15/358 340/15/358
f 338/15/359 352/15/359 353/15/359
f 361/15/360 345/15/360 360/15/360
f 339/15/361 353/15/361 354/15/361
f 355/15/364 339/15/364 354/15/364
f 348/15/365 332/15/365 347/15/365
f 356/15/366 340/15/366 355/15/366
f 349/15/367 333/15/367 348/15/367
f 342/15/368 356/15/368 357/15/368
f 350/15/369 334/15/369 349/15/369
f 358/15/370 342/15/370 357/15/370
f 336/15/371 350/15/371 351/15/371
f 344/15/372 358/15/372 359/15/372
f 352/15/373 336/15/373 351/15/373
f 360/15/374 344/15/374 359/15/374
f 357/15/375 371/15/375 372/15/375
f 365/15/376 349/15/376 364/15/376
f 373/15/377 357/15/377 372/15/377
f 351/15/378 365/15/378 366/15/378
f 359/15/379 373/15/379 374/15/379
f 367/15/380 351/15/380 366/15/380
f 375/15/381 359/15/381 374/15/381
f 353/15/382 367/15/382 368/15/382
f 376/15/383 360/15/383 375/15/383
f 354/15/384 368/15/384 369/15/384
f 370/15/387 354/15/387 369/15/387
f 348/15/388 362/15/388 363/15/388
f 371/15/389 355/15/389 370/15/389
f 349/15/390 363/15/390 364/15/390
f 391/15/391 375/15/391 390/15/391
f 369/15/392 383/15/392 384/15/392
f 385/15/395 369/15/395 384/15/395
f 363/15/396 377/15/396 378/15/396
f 386/15/397 370/15/397 385/15/397
f 364/15/398 378/15/398 379/15/398
f 372/15/399 386/15/399 387/15/399
f 380/15/400 364/15/400 379/15/400
f 388/15/401 372/15/401 387/15/401
f 366/15/402 380/15/402 381/15/402
f 374/15/403 388/15/403 389/15/403
f 382/15/404 366/15/404 381/15/404
f 390/15/405 374/15/405 389/15/405
f 368/15/406 382/15/406 383/15/406
f 403/15/407 387/15/407 402/15/407
f 381/15/408 395/15/408 396/15/408
f 389/15/409 403/15/409 404/15/409
f 397/15/410 381/15/410 396/15/410
f 405/15/411 389/15/411 404/15/411
f 383/15/412 397/15/412 398/15/412
f 406/15/413 390/15/413 405/15/413
f 384/15/414 398/15/414 399/15/414
f 400/15/417 384/15/417 399/15/417
f 393/15/418 377/15/418 392/15/418
f 401/15/419 385/15/419 400/15/419
f 379/15/420 393/15/420 394/15/420
f 387/15/421 401/15/421 402/15/421
f 395/15/422 379/15/422 394/15/422
f 415/15/425 399/15/425 414/15/425
f 408/15/426 392/15/426 407/15/426
f 416/15/427 400/15/427 415/15/427
f 394/15/428 408/15/428 409/15/428
f 402/15/429 416/15/429 417/15/429
f 410/15/430 394/15/430 409/15/430
f 418/15/431 402/15/431 417/15/431
f 396/15/432 410/15/432 411/15/432
f 404/15/433 418/15/433 419/15/433
f 412/15/434 396/15/434 411/15/434
f 420/15/435 404/15/435 419/15/435
f 398/15/436 412/15/436 413/15/436
f 406/15/437 420/15/437 421/15/437
f 399/15/438 413/15/438 414/15/438
f 411/15/439 425/15/439 426/15/439
f 419/15/440 433/15/440 434/15/440
f 427/15/441 411/15/441 426/15/441
f 435/15/442 419/15/442 434/15/442
f 413/15/443 427/15/443 428/15/443
f 421/15/444 435/15/444 436/15/444
f 414/15/445 428/15/445 429/15/445
f 430/15/448 414/15/448 429/15/448
f 423/15/449 407/15/449 422/15/449
f 431/15/450 415/15/450 430/15/450
f 409/15/451 423/15/451 424/15/451
f 417/15/452 431/15/452 432/15/452
f 425/15/453 409/15/453 424/15/453
f 433/15/454 417/15/454 432/15/454
f 445/15/455 429/15/455 444/15/455
f 438/15/456 422/15/456 437/15/456
f 446/15/457 430/15/457 445/15/457
f 424/15/458 438/15/458 439/15/458
f 432/15/459 446/15/459 447/15/459
f 440/15/460 424/15/460 439/15/460
f 448/15/461 432/15/461 447/15/461
f 426/15/462 440/15/462 441/15/462
f 434/15/463 448/15/463 449/15/463
f 442/15/464 426/15/464 441/15/464
f 450/15/465 434/15/465 449/15/465
f 428/15/466 442/15/466 443/15/466
f 451/15/467 435/15/467 450/15/467
f 429/15/468 443/15/468 444/15/468
f 449/15/471 463/15/471 464/15/471
f 457/15/472 441/15/472 456/15/472
f 465/15/473 449/15/473 464/15/473
f 443/15/474 457/15/474 458/15/474
f 466/15/475 450/15/475 465/15/475
f 444/15/476 458/15/476 459/15/476
f 460/15/479 444/15/479 459/15/479
f 453/15/480 437/15/480 452/15/480
f 461/15/481 445/15/481 460/15/481
f 439/15/482 453/15/482 454/15/482
f 447/15/483 461/15/483 462/15/483
f 455/15/484 439/15/484 454/15/484
f 463/15/485 447/15/485 462/15/485
f 441/15/486 455/15/486 456/15/486
f 468/15/487 452/15/487 467/15/487
f 476/15/488 460/15/488 475/15/488
f 469/15/489 453/15/489 468/15/489
f 462/15/490 476/15/490 477/15/490
f 470/15/491 454/15/491 469/15/491
f 478/15/492 462/15/492 477/15/492
f 456/15/493 470/15/493 471/15/493
f 464/15/494 478/15/494 479/15/494
f 472/15/495 456/15/495 471/15/495
f 465/15/496 479/15/496 480/15/496
f 458/15/497 472/15/497 473/15/497
f 481/15/498 465/15/498 480/15/498
f 459/15/499 473/15/499 474/15/499
f 475/15/502 459/15/502 474/15/502
f 485/15/503 471/15/503 10/15/503
f 489/15/504 479/15/504 488/15/504
f 473/15/523 485/15/523 11/15/523
f 490/15/506 480/15/506 489/15/506
f 474/15/507 11/15/507 12/15/507
f 13/15/510 474/15/510 12/15/510
f 483/15/511 467/15/511 482/15/511
f 486/15/524 475/15/524 13/15/524
f 469/15/513 483/15/513 9/15/513
f 14/15/514 476/15/514 486/15/514
f 470/15/515 9/15/515 484/15/515
f 487/15/516 477/15/516 14/15/516
f 471/15/517 484/15/517 10/15/517
f 479/15/518 487/15/518 488/15/518
